<svg width="1907" height="313" viewBox="0 0 1907 313" fill="none" xmlns="http://www.w3.org/2000/svg">
<path fill-rule="evenodd" clip-rule="evenodd" d="M1907 231.198C1906.95 163.659 1906.65 150.096 1905.6 153.401C1900.8 168.537 1891.17 177.144 1880.88 175.498C1874.64 174.499 1866.33 170.176 1863.78 166.59C1860.47 161.951 1860.12 146.098 1862.92 128.005C1865.64 110.513 1865.64 101.85 1862.93 96.2631C1861.8 93.9151 1859.99 91.7151 1858.92 91.3751C1855.45 90.2761 1850.24 92.7781 1847.79 96.7151C1845.53 100.358 1845.5 100.798 1845.38 134.401C1845.3 156.713 1844.85 170.114 1844.07 173.385C1841.47 184.314 1836.38 191.839 1828.4 196.511C1824.4 198.854 1823.49 198.994 1816.21 198.359C1809.93 197.811 1807.71 197.999 1805.22 199.287C1798.11 202.964 1791.54 200.654 1780.03 190.424C1766.36 178.285 1754.45 177.854 1724.69 188.419C1714.23 192.134 1706.11 192.893 1698.74 190.846C1691.68 188.885 1691.68 188.877 1693.09 154.702C1694.49 120.568 1694.16 115.903 1689.99 111.738C1686.79 108.542 1684.51 108.245 1679.43 110.367C1676.8 111.465 1675.4 113.006 1673.85 116.499C1671.91 120.895 1671.86 121.832 1672.94 132.782C1674.81 151.66 1674.85 152.907 1673.89 163.077C1672.2 181.022 1667.44 190.931 1657.26 197.691L1651.68 201.401L1633.48 201.744C1616.87 202.057 1614.94 201.913 1611.37 200.089C1605.9 197.299 1599.28 189.876 1593.46 179.992C1587.1 169.203 1580.19 161.597 1574.75 159.402C1571.77 158.202 1565.7 157.443 1554.5 156.874C1532.66 155.763 1531.54 155.312 1517.5 141.906C1505.36 130.318 1501.27 128.385 1489 128.455C1480.45 128.503 1478.07 128.979 1465.23 133.205C1447.86 138.92 1440.44 139.423 1432.45 135.429C1417.35 127.886 1414.07 120.656 1411.53 89.3241C1408.89 56.7191 1403.32 39.3601 1394.86 37.3621C1392.82 36.8801 1391.47 37.4011 1388.95 39.6511C1385.91 42.3741 1385.6 43.2431 1384.36 52.9061C1383.32 60.9711 1382.54 63.7591 1380.84 65.5741C1376.17 70.5391 1370.89 67.3981 1366.97 57.3381C1364.93 52.0921 1364.59 49.0151 1364.03 30.9011C1363.36 9.37811 1362.59 5.46112 1358.23 1.58112C1355.26 -1.06189 1350.22 -0.299866 1347.63 3.18314C1344.57 7.29514 1344.3 17.1131 1346.9 29.6441C1349.73 43.3231 1349.53 53.1251 1346 73.9011C1343.2 90.3861 1343.02 93.0001 1343.01 118.969C1343 148.49 1342.56 151.912 1337.44 162.009C1334.49 167.842 1326.09 175.48 1321.77 176.265C1312.44 177.959 1295.29 171.979 1291.5 165.711C1288.6 160.906 1288.76 143.147 1291.88 123.678C1294.67 106.259 1294.31 101.46 1289.83 96.3591C1285.78 91.7501 1281.1 91.5421 1278.05 95.8351C1273.1 102.778 1272.78 105.471 1273.5 133.401C1274.47 170.484 1272.48 181.605 1263.2 191.236C1256.96 197.708 1253.12 199.136 1244.09 198.348C1237.93 197.811 1235.7 198.004 1233.22 199.287C1226.06 202.991 1220.19 200.877 1207.59 190.053C1198.46 182.21 1196.21 181.391 1184 181.46C1174.09 181.515 1172.62 181.81 1157.92 186.71C1141.32 192.244 1134.7 193.091 1126.73 190.703C1119.92 188.662 1119.72 187.33 1121.34 155.619C1122.79 127.218 1122.37 116.644 1119.64 112.473C1116.15 107.143 1106.37 108.617 1102.57 115.046C1100.33 118.845 1100.22 122.673 1101.87 139.401C1104.96 170.65 1098.38 191.804 1083.36 198.862C1079.07 200.879 1077.52 200.996 1058.98 200.708L1039.18 200.401L1035.34 197.325C1030.83 193.714 1023.93 184.645 1019 175.867C1017.08 172.438 1013.77 167.849 1011.66 165.669C1005.26 159.078 1001.06 157.816 982.358 156.865C961.446 155.801 958.908 154.759 945.133 141.577C937.344 134.124 934.048 131.685 929.391 129.929C920.456 126.559 911.262 127.408 893.229 133.265C878.148 138.164 870.685 139.05 863.899 136.748C858.421 134.889 850.013 128.878 847.428 124.971C843.833 119.539 841.229 107.688 840.005 91.1901C839.401 83.0561 838.253 72.4631 837.454 67.6511C836.654 62.8381 836 55.7801 836 51.9661C836 39.7121 832.747 34.9011 824.461 34.9011C814.71 34.9011 811 40.3431 811 54.6461C811 64.7751 809.616 67.9011 805.13 67.9011C801.207 67.9011 797.555 63.5841 794.98 55.9011C793.221 50.6531 792.642 45.7201 791.975 30.2981C791.032 8.46814 790.091 4.86612 784.661 2.27612C780.69 0.383118 776.939 0.962128 773.975 3.92612C771.225 6.67612 771.4 14.6921 774.5 27.9011C777.871 42.2671 777.759 52.8021 774 74.9011C770.442 95.8201 770.43 96.3581 773.103 117.089C774.348 126.747 774.985 135.849 774.664 139.403C773.849 148.426 770.321 156.631 764.929 162.047C759.362 167.638 757.404 168.694 742.266 174.269C726.002 180.258 721.618 182.673 713.019 190.384C708.913 194.066 703.547 198.254 701.096 199.691C696.746 202.24 696.203 202.304 678.569 202.352C657.992 202.408 657.168 202.176 649.066 194.047C640.073 185.023 636.603 173.382 636.654 152.401C636.672 144.701 637.234 134.945 637.901 130.722C639.821 118.58 636.413 110.819 628.509 109.337C624.766 108.634 619.656 110.82 618.509 113.614C616.63 118.189 616.377 130.467 617.65 155.343C619.244 186.489 619.059 187.86 612.932 190.312C605.577 193.254 598.213 192.422 581.075 186.71C566.377 181.81 564.909 181.515 555 181.46C542.745 181.391 540.285 182.295 531.305 190.164C519.217 200.756 512.945 202.993 505.754 199.274C503.255 197.981 501 197.78 494.809 198.297C488.213 198.847 486.431 198.648 483.255 197.009C478.502 194.555 472.785 188.572 470.254 183.401C465.965 174.641 465.587 170.873 465.543 136.401C465.504 106.124 465.346 103.112 463.629 99.9011C460.7 94.4191 458.943 92.9011 455.532 92.9011C451.365 92.9011 447.486 97.0031 445.99 102.993C445.024 106.858 445.25 110.363 447.421 125.15C451.382 152.126 450.763 163.517 445.048 168.856C440.128 173.452 424.102 177.671 416.978 176.247C412.828 175.417 404.41 167.645 401.556 162.009C396.449 151.923 396 148.468 396 119.289C396 93.7851 395.808 90.8571 393 73.5641C389.447 51.6831 389.299 44.6211 392.092 30.2021C394.66 16.9381 394.402 7.26114 391.37 3.18314C388.781 -0.299866 383.737 -1.06189 380.768 1.58112C376.411 5.46112 375.636 9.37811 374.969 30.9011C374.417 48.7161 374.044 52.1431 372.126 57.0681C369.133 64.7501 366.509 67.9011 363.102 67.9011C358.09 67.9011 356.128 64.4241 354.642 52.9061C353.395 43.2431 353.094 42.3741 350.047 39.6511C347.499 37.3751 346.209 36.8831 344.149 37.4001C340.374 38.3471 339.185 39.5871 336.05 45.8411C332.163 53.5961 329.285 68.2921 327.505 89.4651C324.878 120.733 321.608 127.905 306.554 135.429C298.561 139.423 291.138 138.92 273.771 133.205C260.931 128.979 258.547 128.503 250 128.455C237.617 128.385 234.214 130.053 220.584 142.868C207.524 155.148 205.899 155.778 184.5 156.857C166.511 157.764 162.744 158.826 156.678 164.7C154.577 166.735 149.683 173.504 145.804 179.742C137.978 192.326 133.947 196.867 127.831 199.987C124.011 201.936 122.41 202.062 105.583 201.744L87.45 201.401L82.1689 198.011C73.7909 192.632 68.928 184.807 66.3409 172.54C64.4879 163.754 64.338 145.816 66.001 131.784C67.178 121.853 67.1331 120.99 65.212 116.648C61.696 108.698 52.786 106.544 48.094 112.509C44.903 116.566 44.5909 122.593 45.9139 154.702C47.3219 188.877 47.321 188.885 40.259 190.846C32.9611 192.873 24.744 192.133 14.8 188.554C9.68506 186.713 4.26294 184.905 2.75 184.535L0 183.863V248.382V312.901L953.5 312.901L1907 312.901V231.198ZM1906.88 133.451C1906.97 123.702 1906.72 120.785 1905.85 121.649C1904.56 122.943 1904.58 132.462 1905.89 140.901C1906.63 145.61 1906.77 144.539 1906.88 133.451Z" fill="#8A2BE2"/>
</svg>
