<svg id="eeoM4RW23vC1" xmlns="http://www.w3.org/2000/svg" xmlns:xlink="http://www.w3.org/1999/xlink" viewBox="0 0 1000 1000" shape-rendering="geometricPrecision" text-rendering="geometricPrecision">
<style><![CDATA[
#eeoM4RW23vC9_tr {animation: eeoM4RW23vC9_tr__tr 6000ms linear infinite normal forwards}@keyframes eeoM4RW23vC9_tr__tr { 0% {transform: translate(395.5px,825.739868px) rotate(0deg);animation-timing-function: cubic-bezier(0.42,0,0.58,1)} 33.333333% {transform: translate(395.5px,825.739868px) rotate(-5.504189deg);animation-timing-function: cubic-bezier(0.42,0,0.58,1)} 66.666667% {transform: translate(395.5px,825.739868px) rotate(0deg)} 100% {transform: translate(395.5px,825.739868px) rotate(0deg)}} #eeoM4RW23vC39_tr {animation: eeoM4RW23vC39_tr__tr 6000ms linear infinite normal forwards}@keyframes eeoM4RW23vC39_tr__tr { 0% {transform: translate(423.774506px,688.484741px) rotate(0deg);animation-timing-function: cubic-bezier(0.42,0,0.58,1)} 33.333333% {transform: translate(423.774506px,688.484741px) rotate(11.704441deg);animation-timing-function: cubic-bezier(0.42,0,0.58,1)} 66.666667% {transform: translate(423.774506px,688.484741px) rotate(0deg)} 100% {transform: translate(423.774506px,688.484741px) rotate(0deg)}} #eeoM4RW23vC192_to {animation: eeoM4RW23vC192_to__to 6000ms linear infinite normal forwards}@keyframes eeoM4RW23vC192_to__to { 0% {transform: translate(166.5px,445.5px);animation-timing-function: cubic-bezier(0.42,0,0.58,1)} 50% {transform: translate(166.5px,433.5px);animation-timing-function: cubic-bezier(0.42,0,0.58,1)} 100% {transform: translate(166.5px,445.5px)}} #eeoM4RW23vC204_to {animation: eeoM4RW23vC204_to__to 6000ms linear infinite normal forwards}@keyframes eeoM4RW23vC204_to__to { 0% {transform: translate(618.749969px,187.900002px);animation-timing-function: cubic-bezier(0.42,0,0.58,1)} 50% {transform: translate(618.749969px,174.900002px);animation-timing-function: cubic-bezier(0.42,0,0.58,1)} 100% {transform: translate(618.749969px,187.9px)}} #eeoM4RW23vC263_ts {animation: eeoM4RW23vC263_ts__ts 6000ms linear infinite normal forwards}@keyframes eeoM4RW23vC263_ts__ts { 0% {transform: translate(359.799988px,276.150009px) scale(1,1);animation-timing-function: cubic-bezier(0.42,0,0.58,1)} 50% {transform: translate(359.799988px,276.150009px) scale(1.18219,1.18219);animation-timing-function: cubic-bezier(0.42,0,0.58,1)} 100% {transform: translate(359.799988px,276.150009px) scale(1,1)}} #eeoM4RW23vC282_ts {animation: eeoM4RW23vC282_ts__ts 6000ms linear infinite normal forwards}@keyframes eeoM4RW23vC282_ts__ts { 0% {transform: translate(844.25px,293.54998px) scale(1,1);animation-timing-function: cubic-bezier(0.42,0,0.58,1)} 50% {transform: translate(844.25px,293.54998px) scale(1.19109,1.19109);animation-timing-function: cubic-bezier(0.42,0,0.58,1)} 100% {transform: translate(844.25px,293.54998px) scale(1,1)}}
]]></style>
<g><g><g><g><g><path d="M112.6,645c18.7-39.3,51.1-35.9,67-38.4c53.2-8.2,107.6-40.7,121.1-92.8c4.5-17.4,4.3-35.5,6.2-53.3c3.1-28.1,12.1-56.1,29.1-78.7c17-22.7,42.4-39.6,70.5-43.1c64-8.1,123.4,38.3,187.6,32.2c55.2-5.2,106-83.6,190.3-68.4c71.1,12.9,127,80.1,86.1,222.6-11.2,39.3-.9,67.5,11.1,83.3c34.9,46.3,14.1,84.9-9.2,138-11,25.2-16.7,48.8.5,70.3-40.1,9.6-688.5,10.8-736.1,7.6c0,0-62.8-98.1-24.2-179.3Z" fill="#f2f0ff"/></g><g><g id="eeoM4RW23vC9_tr" transform="translate(395.5,825.739868) rotate(0)"><g transform="translate(-395.499963,-825.739865)"><g><g><path d="M152.7,379.6c17.8,30,34.2,60.8,48.9,92.4c51.3,110.4,82.7,229.6,92.8,351c.3,3.9-5.7,3.8-6,0-2.9-35.1-7.5-70-14-104.6-22.2-118.3-65.3-232.3-126.8-335.8-2-3.3,3.2-6.3,5.1-3Z" fill="#d2bfff"/></g></g><g><path d="M316.8,738.1c6.4-9.4,12.9-18.8,21.2-26.6c16.5-15.7,39.1-24.1,54.8-40.7-2.6,24-14.4,55.8-29.6,74.6-15.1,18.8-38.7,45.4-73,63.8-1-23.3,14-53,26.6-71.1Z" fill="#d2bfff"/></g><g><path d="M290.5,806.9c-28.8,3.9-69.5-7.1-97.9-25.8-25.4-16.6-41.8-32.3-55.7-56.8c24.9,12.1,60.6,15.7,86.5,25.2c31.4,11.5,49.8,29.4,67.1,57.4Z" fill="#d2bfff"/></g><g><path d="M305.3,644.4c14.1-19.7,28.3-39.3,45-56.9.6,18.5-2.9,40.6-8.6,60.8-4.9,17.2-10.6,33.4-18.5,45.9-4,6.3-37.6,44.5-43.3,38.2-4.6-5.1,8.6-64.6,25.4-88Z" fill="#d2bfff"/></g><g><path d="M255.1,699.6c11.5,11.8,24,29.6,24,29.6-28.6,10.6-101.3-20.1-128.8-50.2-4.3-4.7-14.2-15.5-21.6-31.4C157.1,660.1,179.1,662,198,667c21,5.6,41.9,17,57.1,32.6Z" fill="#d2bfff"/></g><g><path d="M320.4,505.2c-1.3,1-2.9,41.1-3.1,44.8-1.9,43.8-16.8,69.1-31.3,87.4-11.8,15-22.9,16-22.9,16c.1-19.8,5.4-54.9,11.2-73.8c7.6-24.2,24.9-59.7,46.1-74.4Z" fill="#d2bfff"/></g><g><path d="M261.4,646.9c-10.9,5.4-62.2-.1-88.7-11.9-28.3-12.6-53.9-35.1-72.6-59.6c27.4,7.4,67.4,15,93.3,26.7c28,12.5,51.6,25.3,68,44.8Z" fill="#d2bfff"/></g><g><path d="M267.5,437.8c5.9-12.1,13.7-24.8,26.5-28.9c4.9,33.8.1,68.9-13.3,100.3-6.5,15.4-26.5,48.3-40.9,65.9-6.8-11.5-3.5-36.5-1-48.9c6.4-31.7,14.4-59.3,28.7-88.4Z" fill="#d2bfff"/></g><g><path d="M237.5,569.5c-11.3,5.6-64.3-6.4-77.5-11.4-17.5-6.6-35.6-17.2-49.6-29.5-15.6-13.7-17.7-21.6-27.4-40c25.6,17.9,59.7,19.6,87.7,33.6c38.4,19.3,61.6,38,66.8,47.3Z" fill="#d2bfff"/></g><g><path d="M252.1,347.6c9.8,25.8,5.2,55.1-4.7,80.9s-25.6,45.6-36.8,70.8c-1.6-8.5-.6-18.8,1.1-30.3c2-14.5,5.1-29.6,7.9-44c5.5-27.7,15-54.9,32.5-77.4Z" fill="#d2bfff"/></g><g><path d="M208.1,493.7c3.3,7.4-40.7-3.9-47.9-6-16.8-4.9-33.4-11-47.7-21.3-18.1-13.1-31.1-32.2-41.3-52.1q34.2,14.3,67.9,29.9c9.6,4.4,67.5,46,69,49.5Z" fill="#d2bfff"/></g><g><path d="M210.1,297.3c5.2,23.4,5.1,52.8-.1,76.2-2.3,10.4-16.7,52.4-32.8,56c0,0,.3-26.1-.3-34.8-2.3-33.1,14.5-71,33.2-97.4Z" fill="#d2bfff"/></g><g><path d="M123.1,383.9c14.5,7.5,40.9,23.3,51.1,42.3-13.2,1.5-34.4-3.1-54.8-11.8-26.2-11.1-50.7-29-69.3-50.4c25.4,1.4,50.4,8.3,73,19.9Z" fill="#d2bfff"/></g><g><path d="M150.6,385.6c-13.6,1.8-41.3-59-44.8-70.9-4.7-15.7-6.7-47.4-1.6-63c14.6,18,29.4,36.1,39.8,56.7c3.9,7.9,28.2,74.4,6.6,77.2Z" fill="#d2bfff"/></g></g></g><g id="eeoM4RW23vC39_tr" transform="translate(423.774506,688.484741) rotate(0)"><g transform="translate(-423.7745,-688.484735)"><g><g><path d="M534.9,685.6c-1.8-17.1,3-33.3,8.5-49.3q7.6-22.3,16.8-44c12.4-29.5,26.9-58.1,43.4-85.5c33.1-55.1,74-105.3,121.1-149c2.8-2.7,7.1,1.6,4.2,4.2C683,404.6,643,453.4,610.5,507c-16.1,26.4-30.3,53.9-42.6,82.2q-9.7,22.4-17.7,45.5c-5.7,16.6-11.2,33.2-9.3,50.9.4,3.9-5.6,3.8-6,0Z" fill="#d2bfff"/></g></g><g><path d="M527.4,646.4c6.5,10.7,10,18.3,11.7,28.7-6.4-2.3-9-3.8-16.9-5.8-36.8-9.2-121.1-46.7-93.3-79.7c7.7-9.1,23.1-7.2,34.4-3.3s20.9,11.5,29.7,19.7c12.8,12,25.3,25.4,34.4,40.4Z" fill="#d2bfff"/></g><g><path d="M547.1,583.4c4.9,11.5,7.2,19.5,7.5,30-6-3.1-8.4-5-16-8.1-35-14.4-113.2-63.6-80.9-92.2c9-8,23.9-3.9,34.5,1.6c10.7,5.5,19.1,14.4,26.6,23.7c11,13.7,21.5,28.8,28.3,45Z" fill="#d2bfff"/></g><g><path d="M577.8,522.9c3.3,12,4.6,20.3,3.4,30.7-5.6-3.9-7.7-6.1-14.8-10.2-32.7-19-103.5-78.3-67.7-102.3c10-6.6,24.2-.6,34,6.3s17,16.9,23.2,27.1c9,15.1,17.3,31.4,21.9,48.4Z" fill="#d2bfff"/></g><g><path d="M616.7,461.7c2.1,12.3,2.6,20.7.4,31-5.2-4.5-7.1-6.8-13.7-11.6-30.8-22.1-95.4-88-57.5-108.4c10.6-5.7,24.2,1.8,33.3,9.5c9.1,7.8,15.2,18.5,20.4,29.3c7.5,15.8,14.2,32.9,17.1,50.2Z" fill="#d2bfff"/></g><g><path d="M662.3,404.3c.8,11.8.5,19.7-2.6,29.2-4.4-4.7-5.9-7.1-11.7-12.2-27-23.8-81.7-92-43.9-107.6c10.4-4.3,22.5,4,30.4,12.2c7.8,8.2,12.6,18.8,16.4,29.4c5.6,15.7,10.3,32.4,11.4,49Z" fill="#d2bfff"/></g><g><path d="M704.2,362.9c-.7,10.5-1.9,17.5-5.7,25.6-3.3-4.7-4.4-7-9-12.2-21-24.1-61.6-90.7-26.4-100.2c9.8-2.7,19.5,6.1,25.5,14.2c6,8.2,9,18.1,11.1,28c3.2,14.5,5.4,29.8,4.5,44.6Z" fill="#d2bfff"/></g><g><path d="M617.5,631.6c12.6-3.2,25.8-5.4,38.7-3.2s28.6,8.4,31.2,21.2c9.3,46.1-91,37.7-131,27.3-8.6-2.2-11.9-2.2-19.3-3.4c7.1-9,14.5-14.4,26.3-21.3c16.5-9.6,35.5-15.9,54.1-20.6Z" fill="#d2bfff"/></g><g><path d="M634.6,565.7c12.1-3.1,24.8-5.3,37.1-3.2c12.4,2.1,27.5,8.1,29.9,20.4c9,44.2-87.3,36.2-125.7,26.2-8.2-2.1-11.4-2.1-18.4-3.2c6.8-8.7,13.8-13.9,25.1-20.4c15.9-9.3,34.2-15.3,52-19.8Z" fill="#d2bfff"/></g><g><path d="M665.9,498.8c12.2-3,24.9-5.2,37.2-3.1c12.4,2.1,27.4,8.1,29.9,20.4c9,44.2-87.3,36.2-125.7,26.2-8.2-2.2-11.4-2.1-18.5-3.3c6.9-8.6,13.9-13.8,25.2-20.4c15.9-9.2,34.1-15.2,51.9-19.8Z" fill="#d2bfff"/></g><g><path d="M711.9,439.2c12-1.4,24.4-1.9,36,1.7c11.6,3.5,25.3,11.2,26.1,23.2c3,43.5-88.2,23.8-123.8,9.4-7.6-3.2-10.7-3.5-17.3-5.5c7.7-7.4,15.1-11.5,26.7-16.4c16.4-6.8,34.6-10.3,52.3-12.4Z" fill="#d2bfff"/></g><g><path d="M739.3,385.9c10.4-2,21.3-3.2,31.7-.8s22.9,8.2,24.4,18.7c5.5,38-75.9,26.5-108,16.2-6.9-2.2-9.6-2.3-15.5-3.7c6.2-7,12.4-11,22.3-16.1c14-7,29.8-11.3,45.1-14.3Z" fill="#d2bfff"/></g><g><path d="M757.5,317.1c8.1-6.3,17-12.1,26.9-14.6c10-2.5,23.4-3,29.3,5.5c21.3,30.3-53.8,56.1-86,61.2-6.9,1.1-9.3,2.2-15,3.6c2.3-8.7,5.9-15,12.2-23.6c9-12.2,20.7-22.8,32.6-32.1Z" fill="#d2bfff"/></g></g></g><g><g><path d="M754.6,748.2c-1.2-23.9,4.4-45,13.8-67c7.9-18.3,18.2-39.9,28.8-56.8C829.8,572,837.7,509.5,812.7,453c-4.4-10-9.2-23-1.3-30.5c3.1-2.9,7.4-4.1,11.6-4.6c21.6-2.9,43.3,8.2,58,24.3s47.6,87.5,22.1,143.7c-17.8,39.1-42.7,62.5-55.7,97.7-13,35.1-18.3,71.8.2,104.4c3.3,5.8,7.4,11.7,7,18.4-.6,11-12.7,17.6-23.6,18.9-45,5.3-74.4-37.9-76.4-77.1Z" fill="#fad87f"/></g><g><g><path d="M845.9,448.2c15.6,27.2,25.7,59.6,23.6,91.3-2,30.5-18.6,56.7-33.2,82.6-33.4,58.9-53.6,132.2-18.1,195.1c1.2,2.2-2.2,4.2-3.5,2-30.8-54.7-20.9-119.7,5-174.1c14-29.5,35.1-56.4,43.1-88.4c8.9-35.7-2.5-75.3-20.3-106.5-1.3-2.2,2.2-4.2,3.4-2Z" fill="#fff"/></g></g><g><g><path d="M836,480.1c9.8,9.4,21.1,17.1,31,26.6q-1.6.2-3.1.4c7.5-11.5,13.5-23.1,18.7-35.7c1-2.4,4.9-1.3,3.9,1-5.4,13-11.4,25-19.2,36.7-.7,1.1-2.2,1.3-3.1.4-9.9-9.5-21.2-17.1-31.1-26.6-1.8-1.8,1-4.6,2.9-2.8Z" fill="#fff"/></g></g><g><g><path d="M838.6,541.3c8.4,9.7,16.6,19.5,22.7,30.8q-1.4-.4-2.7-.7c12-9,22.7-19.2,34.2-28.8c2-1.6,4.8,1.2,2.8,2.9-11.7,9.7-22.8,20.1-35,29.3-.9.7-2.3.2-2.8-.7-5.9-11-13.9-20.5-22-30-1.6-2,1.2-4.8,2.8-2.8Z" fill="#fff"/></g></g><g><g><path d="M818.6,600.8q5.1,8.6,10.4,17.2c3.9,6.2,6.1,5.4,12.4,3.1c9.7-3.3,19.5-5.6,29.6-7.1c2.5-.4,3.6,3.5,1.1,3.9-13.7,2-26.6,5.7-39.4,10.8-.8.4-1.8-.2-2.3-.9q-7.8-12.4-15.3-25c-1.3-2.2,2.2-4.2,3.5-2Z" fill="#fff"/></g></g><g><g><path d="M783.1,666.8c6.2,5,12.1,10.4,17.9,15.9c1.7,1.6,3.4,3.5,5.2,5c.9.7-2.5,1.3-.1-.5c8.8-6.7,21.5-12,32.3-14.3c2.5-.5,3.6,3.3,1,3.9-11.7,2.5-22.8,8.4-32.8,14.8-.8.5-1.9.3-2.5-.3-7.6-7.6-15.5-14.9-23.8-21.7-2-1.6.8-4.4,2.8-2.8Z" fill="#fff"/></g></g><g><g><path d="M764.4,735.8c6.1,4.6,12.4,9.1,18.6,13.8c2.9,2.1,10.8,10.1,13.7,9.8c3.8-.4,12.2-12.1,15.4-15.1c4.4-4,9.1-7.6,13.8-11.2c2.1-1.5,4.1,1.9,2,3.5-11,8.2-20.7,17.5-29.6,28-.7.9-2,.7-2.8,0-10.5-9.1-22.1-17-33.2-25.4-2-1.5,0-5,2.1-3.4Z" fill="#fff"/></g></g></g><g><g><path d="M508.8,658.2c6.6,23.2,15.6,46,29.5,65.8c11.8,17,29.5,28.1,41.7,44.4c12.2,16.1,2.4,26.4-16.1,29.9-20.2,3.9-41.4-4.1-58.2-15-32.3-20.7-59.2-51.7-74.6-86.9-15.3-35.2-22.9-71.9-28.7-109.8-2.5-16.1-5.7-32.1-14.3-45.9-9.6-15.4-21.7-28.9-35.1-41-13.5-12.2-25.3-29.7-21.2-47.4c3.5-15,17.6-25.4,32.3-30.2c7.7-2.6,16-3.9,24.1-3.2c13.6,1.2,26.1,8.1,36.8,16.7c41.7,33.6,57.2,89.5,67.1,142.1c5,27,9.3,54.1,16.7,80.5Z" fill="#fad87f"/></g><g><g><path d="M360.8,456.9c26.7,13.7,48.9,34.9,63.5,61.1c17.1,30.7,21.5,66.7,28.6,100.6c3.9,18.6,8.8,36.8,15.1,54.8c6.1,17.6,12.2,35.5,22.7,51.2c16.6,25,45.5,49.3,74.6,57.5c2.4.7,1.4,4.5-1.1,3.8-26.8-7.5-52.2-28.3-69.8-49.5-20.7-25.1-31.4-60.4-39.5-91.5-9.7-37.2-12.5-77.3-28-112.8-13.7-31-38-56.3-68.1-71.8-2.3-1.2-.3-4.6,2-3.4Z" fill="#fff"/></g></g><g><g><path d="M469.9,737.5c14.7,4,29.3,8.6,43.8,13.2q-1.2,1.3-2.5,2.5c-2.1-13.8-4.7-29.3-1.8-43.1.6-2.5,4.4-1.4,3.9,1.1-2.8,13-.2,27.9,1.8,40.9.2,1.4-.9,3-2.5,2.5-14.5-4.6-29.1-9.2-43.8-13.2-2.4-.7-1.4-4.6,1.1-3.9Z" fill="#fff"/></g></g><g><g><path d="M432.3,668.7q22.6,17.4,46,33.9-1.5.8-3,1.7c1.1-18.9,4.8-37.1,11.2-54.9.8-2.4,4.7-1.4,3.8,1-6.3,17.5-9.9,35.4-11,53.9-.1,1.4-1.7,2.7-3,1.7q-23.4-16.4-46-33.8c-2-1.6,0-5.1,2-3.5Z" fill="#fff"/></g></g><g><g><path d="M416.9,597.2c11.9,9.9,24.3,19,36.8,28.1q-1.4.4-2.8.7c7.9-16.4,15.3-33,23.5-49.3c1.1-2.3,4.6-.3,3.4,2-8.1,16.3-15.5,32.9-23.4,49.4-.4.9-1.9,1.3-2.8.7-12.7-9.3-25.4-18.7-37.5-28.8-2-1.6.8-4.4,2.8-2.8Z" fill="#fff"/></g></g><g><g><path d="M403.2,538.6c5.8,3.7,11.9,7.1,17.9,10.4c4.5,2.5,10,6.7,15.1,8c3.5.9,1.8.4,3.6-3.7s4.1-8.1,6.1-12.2c3.9-8.2,7.7-16.4,12.3-24.2c1.3-2.3,4.7-.2,3.4,2-7.9,13.7-13.7,28.5-21.6,42.2-.5.8-1.4,1.1-2.3.9-4.4-1-9.1-4.4-13.1-6.6-7.9-4.2-15.8-8.5-23.4-13.3-2.2-1.4-.2-4.9,2-3.5Z" fill="#fff"/></g></g><g><g><path d="M366.9,489.4c15.8,3.9,31.3,8.5,46.9,13.1q-1.3.9-2.5,1.9c-.3-16.8-.5-33.8-2.3-50.6-.3-2.5,3.7-2.5,4,0c1.8,16.8,2,33.8,2.3,50.6c0,1.3-1.3,2.3-2.6,1.9-15.5-4.5-31.1-9.1-46.8-13.1-2.5-.6-1.5-4.5,1-3.8Z" fill="#fff"/></g></g></g></g></g><g><g><g><path d="M797.9,816.7c-27.1-.3-209.3,4.5-227.5,0-6.5-28.6,18.5-144,26.2-176c6.4-26.7,8.3-77.2,15-80c34.8-14.2,189.2-9.9,198.8-1.3c44.2,39.5-11.4,247.1-12.5,257.3Z" fill="#363c89"/></g><g><g><g><path d="M596.6,607.3c3.8,45.8-35.5,89.9-56.6,130.7-7.1,13.8-21.4,20.3-32.5,31.1-11,10.9-26,18.7-41.5,18-7.8-.4-16.1-3.4-20-10.1-6.3-10.6,1-23.8,7.4-34.3C466.2,721.8,491,717.5,498,694c6.4-21.5,53.7-142.5,68.3-142.5c33.5,0,25.3-3,30.3,55.8Z" fill="#9354ed"/></g><g><path d="M740.3,642c-9.6,46.8-30.9,53.4-36.8,100.8-4,31.6,10.2,44.3,19.2,74.9-67.1.8-137.2-1.6-202.5.9c2-44.2,21.7-21.1,35-63.1c3-9.6,6.9-46.3,9.4-58.3-8-5.5-16.4-18.8-13.9-38.2c1.7-13.7,11-22.3,15.9-41c4.1-15.5-.3-46.8-.3-66.5c0,0,13.7-5.2,55.6-11.9c19.5-3.2,99.9-1.5,118.5,10.6c3.8,2.4,8.2,51.3-.1,91.8Z" fill="#8249db"/></g><g><g><path d="M606.8,662.3c-5.7,33.8-8,68.1-16,101.5-.6,2.5-4.5,1.4-3.9-1.1c8-33.4,10.3-67.7,16.1-101.4.4-2.6,4.2-1.5,3.8,1Z" fill="#9354ed"/></g></g><g><g><path d="M625.6,691.3c12.2,15.5,31.9,6.9,46.1-.4c2.3-1.2,4.3,2.2,2,3.4-15.7,8.1-37.6,16.7-50.9-.2-1.6-2,1.3-4.9,2.8-2.8Z" fill="#9354ed"/></g></g><g><path d="M687,538c-13,40-78,109.3-78,109.3-16.3-33.3-12.4-96.1-12.4-96.1C608,532.9,687,538,687,538Z" fill="#a3ced8"/></g><g><path d="M620.4,594.3c-4.1,2.3-25.3-38.7-23.8-43.1c5.4-12.1,15.2.2,18.4-8.9c2.5-7.2-10-40-3-48.4c4.2-5,55.2-43,53.3-27.1-1.2,9.7,5.9,40.2,9,49.4c0,0,3.7,46.3-53.9,78.1Z" fill="#eaa27a"/></g><g><g><path d="M566.3,759.3c3.4-.4,2.9-3.9,7.5-3.8c1.4,0,4.3,3.6,6.2,3.2c3.2-.7,5.3-3.2,8-3.2c2.5,0,7.2,2.4,12.6,2.8c8.5.8,18.7-.4,24.6-1.3c11.1-1.7,16.5-1,19.8,11c4.9,17.6-9.2,16.8-25,21.3-3.3,1-13,1-16.3,0-3.3-.9-5.4-2-9.6-4.3.8,6.3,0,0-.2,4.1-.3,4.2-3.9,7.5-6,5.2-1-7.1-2.1-10.1-3.2-17.6-.6,5.6-.5,7.1-1,12.7.6,6.3-3.2,6.6-4.6,3.7-2.8-5.8-3.4-15.7-4.1-20.8-1.7,2.4-.7,13.4-1,19.4c0,6-5.9,6.1-6.3,2.6-.8-5.7-.9-17.2-1.7-22.9-2.6,5.2-2.9,12.2-2.2,18-1.1,8.3-6.1,7.9-7.5,5-1.5-2.8-1.2-17.3-.6-22.7.4-4.2.6-7.5,3.3-10.7c3.2-3.2,4.3-1.3,7.3-1.7Z" fill="#ffbb8e"/></g><g><path d="M615.1,755.5c3.3-2.2,23.7-.3,30.5-2.5c23.4-7.7,77.4-24,78.4-28.7c1.6-7.3-22.8-90.7-23-110.3-.7-61.3,39.4-63.8,39.4-63.8c33.3,13.8,45.1,212.1,39.7,216.6-21.9,18.1-99.3,21.1-128.4,24.9-6,.7-26,6.8-30.7,3-5.6-4.6-12-35.3-5.9-39.2Z" fill="#9354ed"/></g></g><g><path d="M698.8,541.1c.1,7.7-3.2,15-6.5,22.1-5.4,11.9-12.1,23.8-21.6,35.7-6.2-10.3-8.8-18.3-15.8-27.5-9.9,11-22.4,19.6-36.1,25.1-6.3-8-10.2-18.7-17.1-27.8-2.7,7.9-8.6,18.1-12.9,25.3-3.8-18.6-3.6-41.5,7.8-56.6c5.4-7.2,10.3-10.5,19.2-11.6c3.5,11.4-4.2,23.1-4.2,34.9.1,9.7,4.7,22.1,9.7,30.3c16.5-5,28.6-28.9,30.4-31.7s19-14.3,22.6-43.1c8.3,0,24.5,10,24.5,24.9Z" fill="#c5e6ef"/></g></g><g><g><path d="M729.7,444.5c3.6,10.2,7.9,20.3,14.6,28.8s26,12.3,35,6c0,0-7.1,47-42,35-33.8-11.7-32.5-55.4-53.2-50.7-14.3,3.2-29.4-6-30.2-23.9-.5-11.1,6.3-20.4,16-24.7c27-11.7,51.1,4.9,59.8,29.5Z" fill="#ea396b"/></g><g><path d="M594.8,464.3c2.7,7.5,3.9,15.9.8,23.2-3,7.4-11.2,12.9-18.9,10.8-9.8-2.7-13-14.9-13.8-25.1-.5-6.4-.7-13.1,2.2-18.9c9.5-19.2,25.3-2.3,29.7,10Z" fill="#363c89"/></g><g><path d="M663.3,492c-7.9,16.1-26.3,31.7-44.1,34.3-7,1-14.6.3-20.5-3.7-3.9-2.7-6.8-6.7-9.3-10.7-11.3-18-17.9-38.9-18.9-60.1-.7-16.7,3.1-35.5,17-44.9c10.6-7.1,24.2-7,37-6.6c6.5.2,13.3.5,19.1,3.5c6.1,3.1,10.4,8.8,14.4,14.3c14.6,20,16.2,51.8,5.3,73.9Z" fill="#ffbb8e"/></g><g><path d="M537.4,440.2c14.1-4.2,14.3-20,21-30.6c6.6-10.4,17.3-17.6,28.8-21.7c13.1-4.5,27.2-5.3,41-5.3c15,0,31.7,1.7,41.4,13.1c4.4,5.2,9,13.7,10.6,20.3c4.8,19.9,5.5,42.9-9.8,56.2-22.6,0-39.4-35.7-48.2-49c2.8,4.2-60.4,56.8-84.8,17Z" fill="#fe4571"/></g><g><path d="M681.7,458.1c1.3,7.9.2,21.2-5.1,27.1-5.3,6-13,8.3-19,2.9-5.4-4.9-9.4-14.2-9.3-28.9.1-6.4,2.7-20.7,13.8-22.7s17.6,8.7,19.6,21.6Z" fill="#363c89"/></g><g><g><path d="M666.4,445.6c-.1-15.5-2.9-33.3-14-45.4-11.8-13-31.3-16.1-58.9-14.2c0,0,2.5-5,15.3-6.5c14.5-1.8,33.5-1.2,47.5,12.8c13.9,13.8,17.9,34.9,18.1,53.3c0,5.2-8,5.2-8,0Z" fill="#363c89"/></g></g><g><g><path d="M672.3,480.6c-5.2,19.5-20.1,30.9-40,32.4-2.6.2-2.5-3.8,0-4c18.1-1.4,31.4-11.8,36.1-29.5.7-2.4,4.6-1.4,3.9,1.1Z" fill="#363c89"/></g></g><g><path d="M625.9,500.7c4.9,0,8.9,3.9,8.9,8.9c0,4.9-4,8.9-8.9,8.9s-8.9-4-8.9-8.9c0-5,4-8.9,8.9-8.9Z" fill="#8249db"/></g><g><path d="M595.1,460.5c3.4,0,5.9,11,6.8,14.7c1.5,5.7,3.9,15.7,2.3,17.3c0,0-13.2,4.6-14.6,1-2.4-6.2.8-4.2,2.6-7.8c3-5.6-.7-25.2,2.9-25.2Z" fill="#e89669"/></g><g><path d="M616.5,461.3c.4,3.3-.7,6-2.4,6.3-1.7.2-3.5-2.2-3.9-5.5-.4-3.2.7-6,2.4-6.2s3.5,2.2,3.9,5.4Z" fill="#363c89"/></g><g><path d="M585,464.8c.4,3.3-.7,6.1-2.4,6.3s-3.4-2.2-3.9-5.5c-.4-3.2.7-6,2.4-6.2s3.5,2.2,3.9,5.4Z" fill="#363c89"/></g><g><g><path d="M596.6,503.1c6.1,1.9,11.8,1.7,15.3-4.3c1-1.7,3.6-.2,2.6,1.5-1.7,2.9-4.2,5.2-7.4,6.5-3.7,1.4-7.6.3-11.3-.9-1.8-.5-1-3.4.8-2.8Z" fill="#e89669"/></g></g><g><g><path d="M603.8,444.3c2.9-3.8,7.5-5.5,12.1-4.3c1.9.5,1.1,3.4-.8,2.9-3.2-.8-6.6.2-8.7,2.9-1.1,1.5-3.7,0-2.6-1.5Z" fill="#fe4571"/></g></g><g><path d="M679.9,459.9c.8,4.9.1,13.3-3.2,17-3.3,3.8-8.1,5.2-11.9,1.8-3.4-3.1-5.9-8.9-5.8-18.1c0-4,1.7-13,8.6-14.2c7-1.2,11,5.4,12.3,13.5Z" fill="#8249db"/></g></g></g></g><g><g><g><path d="M71.2,799.3h841v34.7h-841Z" fill="#c5e6ef"/></g><g><path d="M891.2,834v77.1c-114.5,36.4-330.4,46.5-555.9.2-130.9-26.8-203.4-20.5-243.2-7.7v-69.6Z" fill="#d2bfff"/></g></g><g><g><path d="M647.1,775.3h14.8c10.1,0,18.2,8.2,18.2,18.3c0,3.2-2.5,5.7-5.7,5.7h-39.8c-3.2,0-5.8-2.5-5.8-5.7c0-10.1,8.2-18.3,18.3-18.3Z" fill="#363c89"/></g><g><g><path d="M215.5,618.1c-.6-5.9,4-11,9.9-11h264.2c7.6,0,14,5.7,14.8,13.3l17.8,166.9h-288.6Z" fill="#363c89"/></g><g><path d="M611,799.3h-377.4v-12h377.4Z" fill="#3956d6"/></g><g><path d="M611,799.3h-88.8v-12h88.8Z" fill="#363c89"/></g><g><path d="M392.8,697.9c0,6.3-15.8,11.3-35.4,11.3s-35.4-5-35.4-11.3c0-6.2,15.8-11.2,35.4-11.2s35.4,5,35.4,11.2Z" fill="#c5e6ef"/></g></g></g></g></g></g><g><g><path d="M280.4,445.5c0,55-44.6,99.7-99.7,99.7-55,0-99.7-44.7-99.7-99.7c0-55.1,44.7-99.7,99.7-99.7c55.1,0,99.7,44.6,99.7,99.7Z" fill="#fad87f"/></g><g><path d="M238.7,495.9l-43.4-21-31.5,42.9l6.8-49.6-63.3-10.4l117-67.2Z" fill="#8249db"/></g><g id="eeoM4RW23vC192_to" transform="translate(166.5,445.5)"><g transform="translate(-166.5,-445.5)"><g><path d="M164.1,459.5l-63.3-10.4l117-67.2Z" fill="#fff"/></g><g><path d="M232.2,487.2l-43.4-21.1l29-84.2Z" fill="#fff"/></g><g><path d="M217.8,381.9l-29,84.2-31.6,43l6.9-49.6Z" fill="#c5e6ef"/></g><g><path d="M157.2,509.1l60.6-127.2-29,84.2Z" fill="#88b8bf"/></g></g></g></g><g><g><path d="M737,190.6c0,67-54.4,121.3-121.3,121.3-67,0-121.3-54.3-121.3-121.3s54.3-121.3,121.3-121.3c66.9,0,121.3,54.3,121.3,121.3Z" fill="#fad87f"/></g><g id="eeoM4RW23vC204_to" transform="translate(618.749969,187.900002)"><g transform="translate(-618.749969,-187.900002)"><g><path d="M686.8,133.9v122.3c0,3.6-2.8,6.4-6.4,6.4h-117.1c-3.5,0-6.4-2.8-6.4-6.4v-122.3c0-3.5,2.9-6.4,6.4-6.4h117.1c3.6,0,6.4,2.9,6.4,6.4Z" fill="#8249db"/></g><g><path d="M680.6,127.7v122.3c0,3.6-2.8,6.4-6.4,6.4h-117.1c-3.5,0-6.4-2.8-6.4-6.4v-122.3c0-3.5,2.9-6.4,6.4-6.4h117.1c3.6,0,6.4,2.9,6.4,6.4Z" fill="#fff"/></g><g><g><path d="M565.6,137.7c-2.2,0-4-1.8-4-4v-16.5c0-2.2,1.8-4,4-4c2.3,0,4,1.8,4,4v16.5c0,2.2-1.7,4-4,4Z" fill="#8249db"/></g><g><path d="M585.7,137.7c-2.3,0-4-1.8-4-4v-16.5c0-2.2,1.7-4,4-4c2.2,0,4,1.8,4,4v16.5c0,2.2-1.8,4-4,4Z" fill="#8249db"/></g><g><path d="M605.7,137.7c-2.3,0-4-1.8-4-4v-16.5c0-2.2,1.7-4,4-4c2.2,0,4,1.8,4,4v16.5c0,2.2-1.8,4-4,4Z" fill="#8249db"/></g><g><path d="M625.7,137.7c-2.2,0-4-1.8-4-4v-16.5c0-2.2,1.8-4,4-4s4,1.8,4,4v16.5c0,2.2-1.8,4-4,4Z" fill="#8249db"/></g><g><path d="M645.7,137.7c-2.2,0-4-1.8-4-4v-16.5c0-2.2,1.8-4,4-4s4,1.8,4,4v16.5c0,2.2-1.8,4-4,4Z" fill="#8249db"/></g><g><path d="M665.7,137.7c-2.2,0-4-1.8-4-4v-16.5c0-2.2,1.8-4,4-4s4,1.8,4,4v16.5c0,2.2-1.8,4-4,4Z" fill="#8249db"/></g></g><g><g><g><path d="M599.1,169.1h-13.7v-13.7h13.7Z" fill="#c5e6ef"/></g><g><path d="M622.5,169.1h-13.7v-13.7h13.7Z" fill="#c5e6ef"/></g><g><path d="M645.9,169.1h-13.7v-13.7h13.7Z" fill="#c5e6ef"/></g><g><path d="M669.3,169.1h-13.7v-13.7h13.7Z" fill="#c5e6ef"/></g></g><g><g><path d="M575.7,191.2h-13.6v-13.6h13.6Z" fill="#fcaaa6"/></g><g><path d="M599.1,191.2h-13.7v-13.6h13.7Z" fill="#c5e6ef"/></g><g><path d="M622.5,191.2h-13.7v-13.6h13.7Z" fill="#c5e6ef"/></g><g><path d="M645.9,191.2h-13.7v-13.6h13.7Z" fill="#c5e6ef"/></g><g><path d="M669.3,191.2h-13.7v-13.6h13.7Z" fill="#c5e6ef"/></g></g><g><g><path d="M575.7,213.4h-13.6v-13.7h13.6Z" fill="#fcaaa6"/></g><g><path d="M599.1,213.4h-13.7v-13.7h13.7Z" fill="#c5e6ef"/></g><g><path d="M622.5,213.4h-13.7v-13.7h13.7Z" fill="#c5e6ef"/></g><g><path d="M645.9,213.4h-13.7v-13.7h13.7Z" fill="#c5e6ef"/></g><g><path d="M669.3,213.4h-13.7v-13.7h13.7Z" fill="#c5e6ef"/></g></g><g><g><path d="M575.7,235.5h-13.6v-13.7h13.6Z" fill="#fcaaa6"/></g><g><path d="M599.1,235.5h-13.7v-13.7h13.7Z" fill="#c5e6ef"/></g><g><path d="M622.5,235.5h-13.7v-13.7h13.7Z" fill="#c5e6ef"/></g><g><path d="M645.9,235.5h-13.7v-13.7h13.7Z" fill="#c5e6ef"/></g></g></g></g></g></g><g id="eeoM4RW23vC263_ts" transform="translate(359.799988,276.150009) scale(1,1)"><g transform="translate(-359.799988,-276.150009)"><g><path d="M470.3,276.2c0,61-49.5,110.4-110.5,110.4s-110.5-49.4-110.5-110.4c0-61.1,49.5-110.5,110.5-110.5s110.5,49.4,110.5,110.5Z" fill="#c5e6ef"/></g><g><g><path d="M423.5,293c-17.2,17.1-44.2,18.4-62.9,4l-12.3,12.3l3.3,3.3-27.2,27.2c-4.2,4.2-11.1,4.2-15.3,0s-4.2-11.1,0-15.3l27.2-27.2l3.3,3.3l12.3-12.3c-14.5-18.7-13.1-45.7,4-62.9c18.7-18.6,48.9-18.6,67.6,0c18.6,18.7,18.6,48.9,0,67.6Z" fill="#fff"/></g><g><g><path d="M338,306.6l-8.6-8.7l25.4-25.4l8.7,8.6Z" fill="#8249db"/></g><g><path d="M345.1,306.1l-27.2,27.2c-4.2,4.3-11,4.3-15.3,0-4.2-4.2-4.2-11,0-15.3l27.2-27.2Z" fill="#fe4571"/></g><g><path d="M417,286.5c-18.6,18.6-48.9,18.6-67.5,0-18.7-18.7-18.7-48.9,0-67.5c18.6-18.7,48.9-18.7,67.5,0c18.7,18.6,18.7,48.8,0,67.5Z" fill="#8249db"/></g><g><path d="M407.3,276.8c-13.3,13.3-34.8,13.3-48.1,0s-13.3-34.8,0-48.1s34.8-13.3,48.1,0s13.3,34.8,0,48.1Z" fill="#fff"/></g><g><path d="M399.8,272c-2.1,2.1-5.5,2.1-7.6,0-2.2-2.1-2.2-5.5,0-7.6c2.1-2.1,5.5-2.1,7.6,0s2.1,5.5,0,7.6Z" fill="#c5e6ef"/></g><g><path d="M401.5,249.8c-3.3,3.3-8.7,3.3-12,0s-3.3-8.7,0-12s8.7-3.3,12,0s3.3,8.7,0,12Z" fill="#c5e6ef"/></g></g></g></g></g><g id="eeoM4RW23vC282_ts" transform="translate(844.25,293.54998) scale(1,1)"><g transform="translate(-844.25,-293.54998)"><g><path d="M933,293.6c0,49-39.7,88.7-88.8,88.7-49,0-88.7-39.7-88.7-88.7s39.7-88.8,88.7-88.8c49.1,0,88.8,39.8,88.8,88.8Z" fill="#c5e6ef"/></g><g><g><g><path d="M884.7,248.9v96.2c0,4-3.3,7.2-7.3,7.2h-59.5c-4,0-7.2-3.2-7.2-7.2v-96.2c0-4,3.2-7.2,7.2-7.2h59.5c4,0,7.3,3.2,7.3,7.2Z" fill="#fff"/></g><g><path d="M877.8,242.1v96.1c0,4-3.2,7.2-7.2,7.2h-59.5c-4,0-7.3-3.2-7.3-7.2v-96.1c0-4,3.3-7.3,7.3-7.3h59.5c4,0,7.2,3.3,7.2,7.3Z" fill="#8249db"/></g><g><g><path d="M871.3,330.6h-61v-80.9h61Z" fill="#fff"/></g><g><path d="M836.4,249.7l15.3,80.9h-14.5l-16-80.9Z" fill="#c5e6ef"/></g><g><path d="M847.9,249.7l15.2,80.9h-5.3l-16-80.9Z" fill="#c5e6ef"/></g></g><g><path d="M844.4,338.1c0,2-1.6,3.6-3.6,3.6-1.9,0-3.5-1.6-3.5-3.6c0-1.9,1.6-3.5,3.5-3.5c2,0,3.6,1.6,3.6,3.5Z" fill="#fff"/></g><g><path d="M846.9,244.8h-12.2c-1.1,0-2-.9-2-2s.9-2,2-2h12.2c1.1,0,2,.9,2,2s-.9,2-2,2Z" fill="#fff"/></g></g><g><g><path d="M859.6,290.1c0,10.4-8.4,18.9-18.8,18.9s-18.8-8.5-18.8-18.9s8.4-18.8,18.8-18.8s18.8,8.4,18.8,18.8Z" fill="#fe4571"/></g><g><path d="M850.3,296.9l-2,2c-1.6,1.6-4.3,1.6-6,0l-10.2-10.3c-1.7-1.6-1.7-4.3,0-6l2-2c.6-.6,1.7-.6,2.3,0l1.5,1.5c.7.7.7,1.7,0,2.4l-.9.8c-.3.4-.3.9,0,1.3l7.4,7.3c.3.3.9.3,1.2,0l.9-.8c.6-.7,1.7-.7,2.3,0l1.5,1.4c.7.7.7,1.7,0,2.4Z" fill="#fff"/></g></g></g></g></g></g></g></svg>
