<svg width="1907" height="313" viewBox="0 0 1907 313" fill="none" xmlns="http://www.w3.org/2000/svg">
<path fill-rule="evenodd" clip-rule="evenodd" d="M0.067 81.75C0.122 149.289 0.354 162.805 1.402 159.5C6.202 144.364 15.828 135.757 26.116 137.403C32.365 138.402 40.668 142.725 43.224 146.311C46.532 150.95 46.882 166.803 44.077 184.896C41.365 202.388 41.362 211.051 44.067 216.638C45.204 218.986 47.011 221.186 48.083 221.526C51.546 222.625 56.76 220.123 59.208 216.186C61.473 212.543 61.501 212.103 61.622 178.5C61.702 156.188 62.151 142.787 62.929 139.516C65.526 128.587 70.625 121.062 78.598 116.39C82.596 114.047 83.514 113.907 90.79 114.542C97.069 115.09 99.288 114.902 101.779 113.614C108.89 109.937 115.455 112.247 126.975 122.477C140.642 134.616 152.551 135.047 182.307 124.482C192.772 120.767 200.887 120.008 208.259 122.055C215.321 124.016 215.322 124.024 213.914 158.199C212.508 192.333 212.844 196.998 217.009 201.163C220.206 204.359 222.493 204.656 227.573 202.534C230.201 201.436 231.601 199.895 233.146 196.402C235.091 192.006 235.144 191.069 234.061 180.119C232.194 161.241 232.155 159.994 233.112 149.824C234.8 131.879 239.56 121.97 249.737 115.21L255.323 111.5L273.519 111.157C290.134 110.844 292.056 110.988 295.632 112.812C301.101 115.602 307.717 123.025 313.543 132.909C319.903 143.698 326.814 151.304 332.252 153.499C335.226 154.699 341.299 155.458 352.5 156.027C374.344 157.138 375.46 157.589 389.5 170.995C401.636 182.583 405.73 184.516 418 184.446C426.547 184.398 428.931 183.922 441.771 179.696C459.138 173.981 466.561 173.478 474.554 177.472C489.646 185.015 492.925 192.245 495.467 223.577C498.111 256.182 503.682 273.541 512.143 275.539C514.184 276.021 515.528 275.5 518.047 273.25C521.094 270.527 521.395 269.658 522.642 259.995C523.683 251.93 524.457 249.142 526.162 247.327C530.827 242.362 536.113 245.503 540.025 255.563C542.065 260.809 542.407 263.886 542.969 282C543.636 303.523 544.411 307.44 548.768 311.32C551.737 313.963 556.781 313.201 559.37 309.718C562.427 305.606 562.698 295.788 560.102 283.257C557.267 269.578 557.466 259.776 561 239C563.804 222.515 563.978 219.901 563.988 193.932C564.001 164.411 564.444 160.989 569.556 150.892C572.51 145.059 580.908 137.421 585.23 136.636C594.561 134.942 611.712 140.922 615.5 147.19C618.403 151.995 618.245 169.754 615.124 189.223C612.332 206.642 612.692 211.441 617.171 216.542C621.218 221.151 625.896 221.359 628.953 217.066C633.897 210.123 634.223 207.43 633.497 179.5C632.534 142.417 634.515 131.296 643.802 121.665C650.044 115.193 653.88 113.765 662.91 114.553C669.068 115.09 671.298 114.897 673.779 113.614C680.943 109.91 686.812 112.024 699.414 122.848C708.545 130.691 710.792 131.51 723 131.441C732.909 131.386 734.377 131.091 749.075 126.191C765.68 120.657 772.296 119.81 780.268 122.198C787.078 124.239 787.283 125.571 785.663 157.282C784.212 185.683 784.628 196.257 787.361 200.428C790.853 205.758 800.629 204.284 804.427 197.855C806.671 194.056 806.781 190.228 805.128 173.5C802.039 142.251 808.625 121.097 823.64 114.039C827.93 112.022 829.481 111.905 848.021 112.193L867.82 112.5L871.66 115.576C876.168 119.187 883.074 128.256 887.997 137.034C889.921 140.463 893.226 145.052 895.341 147.232C901.738 153.823 905.938 155.085 924.642 156.036C945.554 157.1 948.092 158.142 961.867 171.324C969.656 178.777 972.952 181.216 977.609 182.972C986.544 186.342 995.738 185.493 1013.77 179.636C1028.85 174.737 1036.31 173.851 1043.1 176.153C1048.58 178.012 1056.99 184.023 1059.57 187.93C1063.17 193.362 1065.77 205.213 1066.99 221.711C1067.6 229.845 1068.75 240.438 1069.55 245.25C1070.35 250.063 1071 257.121 1071 260.935C1071 273.189 1074.25 278 1082.54 278C1092.29 278 1096 272.558 1096 258.255C1096 248.126 1097.38 245 1101.87 245C1105.79 245 1109.45 249.317 1112.02 257C1113.78 262.248 1114.36 267.181 1115.03 282.603C1115.97 304.433 1116.91 308.035 1122.34 310.625C1126.31 312.518 1130.06 311.939 1133.03 308.975C1135.78 306.225 1135.6 298.209 1132.5 285C1129.13 270.634 1129.24 260.099 1133 238C1136.56 217.081 1136.57 216.543 1133.9 195.812C1132.65 186.154 1132.02 177.052 1132.34 173.498C1133.15 164.475 1136.68 156.27 1142.07 150.854C1147.64 145.263 1149.6 144.207 1164.73 138.632C1181 132.643 1185.38 130.228 1193.98 122.517C1198.09 118.835 1203.45 114.647 1205.9 113.21C1210.25 110.661 1210.8 110.597 1228.43 110.549C1249.01 110.493 1249.83 110.725 1257.93 118.854C1266.93 127.878 1270.4 139.519 1270.35 160.5C1270.33 168.2 1269.77 177.956 1269.1 182.179C1267.18 194.321 1270.59 202.082 1278.49 203.564C1282.23 204.267 1287.34 202.081 1288.49 199.287C1290.37 194.712 1290.62 182.434 1289.35 157.558C1287.76 126.412 1287.94 125.041 1294.07 122.589C1301.42 119.647 1308.79 120.479 1325.93 126.191C1340.62 131.091 1342.09 131.386 1352 131.441C1364.26 131.51 1366.71 130.606 1375.69 122.737C1387.78 112.145 1394.05 109.908 1401.25 113.627C1403.74 114.92 1406 115.121 1412.19 114.604C1418.79 114.054 1420.57 114.253 1423.74 115.892C1428.5 118.346 1434.21 124.329 1436.75 129.5C1441.03 138.26 1441.41 142.028 1441.46 176.5C1441.5 206.777 1441.65 209.789 1443.37 213C1446.3 218.482 1448.06 220 1451.47 220C1455.64 220 1459.51 215.898 1461.01 209.908C1461.98 206.043 1461.75 202.538 1459.58 187.751C1455.62 160.775 1456.24 149.384 1461.95 144.045C1466.87 139.449 1482.9 135.23 1490.02 136.654C1494.17 137.484 1502.59 145.256 1505.44 150.892C1510.55 160.978 1511 164.433 1511 193.612C1511 219.116 1511.19 222.044 1514 239.337C1517.55 261.218 1517.7 268.28 1514.91 282.699C1512.34 295.963 1512.6 305.64 1515.63 309.718C1518.22 313.201 1523.26 313.963 1526.23 311.32C1530.59 307.44 1531.36 303.523 1532.03 282C1532.58 264.185 1532.96 260.758 1534.87 255.833C1537.87 248.151 1540.49 245 1543.9 245C1548.91 245 1550.87 248.477 1552.36 259.995C1553.61 269.658 1553.91 270.527 1556.95 273.25C1559.5 275.526 1560.79 276.018 1562.85 275.501C1566.63 274.554 1567.81 273.314 1570.95 267.06C1574.84 259.305 1577.71 244.609 1579.49 223.436C1582.12 192.168 1585.39 184.996 1600.45 177.472C1608.44 173.478 1615.86 173.981 1633.23 179.696C1646.07 183.922 1648.45 184.398 1657 184.446C1669.38 184.516 1672.79 182.848 1686.42 170.033C1699.48 157.753 1701.1 157.123 1722.5 156.044C1740.49 155.137 1744.26 154.075 1750.32 148.201C1752.42 146.166 1757.32 139.397 1761.2 133.159C1769.02 120.575 1773.05 116.034 1779.17 112.914C1782.99 110.965 1784.59 110.839 1801.42 111.157L1819.55 111.5L1824.83 114.89C1833.21 120.269 1838.07 128.094 1840.66 140.361C1842.51 149.147 1842.66 167.085 1841 181.117C1839.82 191.048 1839.87 191.911 1841.79 196.253C1845.3 204.203 1854.21 206.357 1858.91 200.392C1862.1 196.335 1862.41 190.308 1861.09 158.199C1859.68 124.024 1859.68 124.016 1866.74 122.055C1874.04 120.028 1882.26 120.768 1892.2 124.347C1897.31 126.188 1902.74 127.996 1904.25 128.366L1907 129.038V64.519V0H953.5H0L0.067 81.75ZM0.125 179.45C0.031 189.199 0.284 192.116 1.148 191.252C2.442 189.958 2.421 180.439 1.106 172C0.373 167.291 0.232 168.362 0.125 179.45Z" fill="#8A2BE2"/>
</svg>
