<svg id="eeaYsfZnSog1" xmlns="http://www.w3.org/2000/svg" xmlns:xlink="http://www.w3.org/1999/xlink" viewBox="0 0 1504 846" shape-rendering="geometricPrecision" text-rendering="geometricPrecision">
<style><![CDATA[
#eeaYsfZnSog42_to {animation: eeaYsfZnSog42_to__to 10000ms linear infinite normal forwards}@keyframes eeaYsfZnSog42_to__to { 0% {offset-distance: 0%} 60% {offset-distance: 73.15443%} 80% {offset-distance: 90.865521%} 100% {offset-distance: 100%}} #eeaYsfZnSog43_to {animation: eeaYsfZnSog43_to__to 10000ms linear infinite normal forwards}@keyframes eeaYsfZnSog43_to__to { 0% {offset-distance: 0%} 20% {offset-distance: 15.744149%} 30% {offset-distance: 23.787571%} 40% {offset-distance: 33.861373%} 100% {offset-distance: 100%}} #eeaYsfZnSog125_tr {animation: eeaYsfZnSog125_tr__tr 10000ms linear infinite normal forwards}@keyframes eeaYsfZnSog125_tr__tr { 0% {transform: translate(1389.85px,528.7px) rotate(0deg)} 100% {transform: translate(1389.85px,528.7px) rotate(-360deg)}}
]]></style>
<g transform="translate(0 1.611221)" opacity="0.5"><g><path d="M1502,105.5h-510c-53.7,0-97.5-43.7-97.5-97.5c0-53.7,43.8-97.4,97.5-97.4h510Z" fill="#fbefe7"/><path d="M101.2,611.6c.8.9.8,2.3,0,3.2-.9.8-2.3.8-3.2,0L85.9,602.6L73.7,614.8c-.9.8-2.3.8-3.1,0-.9-.9-.9-2.3,0-3.2l12.1-12.1-12.1-12.2c-.9-.9-.9-2.3,0-3.1.8-.9,2.2-.9,3.1,0l12.2,12.1L98,584.2c.9-.9,2.3-.9,3.2,0c.8.8.8,2.2,0,3.1L89,599.5Z"/><path d="M1351.3,1015.5c-148.7,0-269.2-120.5-269.2-269.1s120.5-269.1,269.2-269.1c148.6,0,269.1,120.5,269.1,269.1s-120.5,269.1-269.1,269.1Zm0-120.1c82.3,0,149-66.7,149-149s-66.7-149.1-149-149.1-149.1,66.8-149.1,149.1s66.8,149,149.1,149Z" fill="#b9e4d7" fill-rule="evenodd"/><g><g><path d="M1082.4,1047c-.6,0-1-.4-1-1s.7-1.1,1.2-.9c.6-.2,1.3.3,1.3.9s-.4,1-1,1q-.1,0-.2,0-.2,0-.3,0Zm-15.4-.5q-.1,0-.2,0c-.5-.2-.9-.7-.7-1.2.1-.5.5-.8,1-.7.5,0,.9.4.9.9c0,.6-.4,1-1,1Zm31.3-.1c-.4,0-.8-.2-1-.7-.1-.5.2-1,.8-1.2.5-.1,1.2.4,1.2,1c0,.5-.4.9-.9.9q-.1,0-.1,0Zm-46.6-1.4q-.1,0-.2-.1c-.6-.1-.9-.6-.7-1.1.1-.5.5-.8,1-.8.5.1.9.5.9,1s-.4,1-1,1Zm61.9-.1c-.5,0-.8-.3-1-.7-.1-.6.2-1.1.7-1.2.6-.1,1.3.3,1.3.9c0,.5-.4.9-.9,1q-.1,0-.1,0Zm-77-2.5q-.1,0-.2,0c-.5-.1-.8-.5-.8-.9c0-.7.7-1.1,1.3-1c.5.2.7.8.6,1.3q-.3.6-.9.6Zm92.1-.1c-.5,0-.9-.4-.9-.9s.3-.9.8-1c.4-.1.9.2,1.1.6.1.6-.1,1.1-.6,1.3q-.2,0-.4,0Zm-107.4-3.5c-.5-.1-.8-.6-.7-1.1.2-.5.7-.9,1.2-.7Zm122.4-.1c-.5,0-.9-.3-1-.8s.2-1,.7-1.1c.5-.2,1.1.1,1.2.6s-.1,1-.6,1.2q-.1,0-.1,0-.1.1-.2.1Zm-137.1-4.5c-.5-.1-.8-.6-.7-1.2.1-.5.7-.8,1.2-.7Zm151.7-.1c-.4,0-.8-.3-.9-.7-.2-.5.2-1.1.7-1.2s1,.2,1.1.7c.2.5-.1,1-.6,1.1q0,.1-.1.1t-.2,0Zm-165.8-5.4q-.2,0-.3,0-.2-.1-.3-.1c-.4-.3-.6-.9-.3-1.4.3-.4.8-.5,1.3-.3.4.2.6.7.5,1.2q-.3.6-.9.6Zm180.1-.1c-.3,0-.6-.2-.8-.5-.3-.4-.1-1,.3-1.3q.1-.1.2-.1c.6-.2,1.1.1,1.3.6.1.5-.1,1-.6,1.2q-.2.1-.4.1Zm-194.1-6.3q-.2,0-.5-.2c-.4-.2-.6-.7-.4-1.1.1-.5.7-.8,1.2-.6q.1,0,.2.1c.5.3.6.9.3,1.3-.2.3-.5.5-.8.5Zm208-.2c-.4,0-.7-.3-.9-.7-.1-.5.1-.9.5-1.2.4-.2,1-.1,1.3.3.3.5.1,1.1-.3,1.4q-.1.1-.2.1-.2.1-.4.1ZM965,1014.8q-.2,0-.5-.1c-.4-.2-.6-.7-.4-1.1.1-.5.7-.8,1.2-.6q.1,0,.2.1c.5.3.6.9.3,1.3-.2.3-.5.4-.8.4Zm235-.2c-.4,0-.8-.2-.9-.6-.2-.5,0-1,.5-1.2.4-.2.9-.1,1.2.3.3.5.2,1.1-.2,1.4q-.2,0-.3.1-.1,0-.3,0Zm-247.9-8q-.3,0-.6-.2-.1-.1-.2-.1c-.3-.4-.3-1,0-1.4.4-.4,1-.4,1.4,0c.5.3.5.8.2,1.3-.2.2-.5.4-.8.4Zm260.8-.3q-.3,0-.6-.3c-.4-.3-.4-.9,0-1.3q0-.1.1-.2c.5-.3,1.1-.1,1.4.3.2.4.1,1-.3,1.3q-.2.2-.6.2Zm-273.2-8.9q-.3,0-.6-.1-.1-.1-.1-.2c-.4-.4-.4-1,0-1.3.3-.4.9-.4,1.3,0c.5.3.5.8.2,1.2-.1.3-.5.4-.8.4Zm285.6-.2q-.4,0-.7-.3c-.4-.4-.4-1,0-1.4q.1,0,.2-.1c.4-.3,1-.2,1.3.3.3.4.2,1-.2,1.3q-.3.2-.6.2Zm-297.4-9.7q-.3,0-.5-.2-.2-.1-.3-.3c-.3-.4-.2-1,.3-1.3.3-.3.8-.2,1.2.1.3.3.4.8.1,1.2-.2.3-.5.5-.8.5Zm309.1-.3q-.3,0-.5-.1c-.5-.3-.6-.9-.3-1.4q.1-.1.3-.3c.4-.3,1-.1,1.3.3s.2,1-.1,1.3q-.3.2-.7.2ZM916.8,976.8q-.3,0-.6-.3c-.4-.4-.4-1,0-1.4.3-.4,1-.4,1.3,0c.4.4.4,1,0,1.4q-.3.3-.7.3Zm331.3-.3q-.4,0-.7-.3c-.4-.3-.4-1,0-1.3.4-.4,1-.4,1.3,0c.4.3.4.9,0,1.3q-.3.3-.6.3ZM906.5,965.4c-.2,0-.5-.1-.7-.4-.3-.3-.3-.8-.1-1.1.3-.5.9-.6,1.4-.3q.1.1.2.3c.3.4.2,1-.2,1.3q-.3.2-.6.2Zm351.9-.3c-.4,0-.7-.2-.8-.4-.3-.4-.2-.9,0-1.2.4-.4.9-.5,1.3-.2s.6.9.3,1.3q-.1.2-.3.3-.3.2-.5.2ZM897,953.3c-.3,0-.6-.1-.8-.4-.3-.3-.2-.9.1-1.2.4-.4,1-.4,1.4,0q0,0,.1.1c.3.5.2,1.1-.3,1.4q-.2.1-.5.1Zm370.9-.3q-.4,0-.7-.3c-.4-.4-.4-1,0-1.3.3-.5.8-.5,1.3-.2.4.2.5.9.2,1.4q-.1,0-.1.1-.3.3-.7.3ZM888.3,940.7c-.3,0-.6-.2-.8-.5q-.1-.1-.1-.2c-.2-.5.1-1.1.6-1.2.4-.2.9,0,1.1.4.3.5.1,1-.3,1.3q-.2.2-.5.2Zm388.3-.4q-.2,0-.3,0c-.5-.2-.8-.8-.6-1.3q0-.1.1-.2c.3-.5.9-.6,1.3-.3s.6.9.3,1.3c-.1.3-.5.5-.8.5ZM880.4,927.4c-.3,0-.6-.1-.8-.4q0-.1-.1-.2c-.2-.5.1-1.1.6-1.3.5-.1,1,.1,1.2.5s.1,1-.3,1.3q-.3.1-.6.1Zm404-.3q-.1,0-.3-.1c-.5-.2-.8-.7-.6-1.2q0-.1.1-.3c.3-.4.9-.5,1.4-.2.4.3.5.8.3,1.2q-.3.6-.9.6ZM873.5,913.7c-.4,0-.7-.2-.9-.5-.2-.5,0-1,.4-1.3.4-.2,1-.1,1.3.3q.1.1.1.3c.2.5-.1,1-.6,1.2q-.1,0-.3,0Zm417.8-.4q-.2,0-.5-.1c-.4-.3-.5-.8-.3-1.3.2-.4.7-.6,1.2-.5.5.2.7.7.6,1.2q-.1.2-.1.3c-.2.3-.5.4-.9.4ZM867.5,899.6q-.6,0-.9-.6c-.2-.4-.1-.9.3-1.2.5-.3,1.1-.2,1.4.3q.1.1.1.2c.2.5-.1,1.1-.6,1.2q-.2.1-.3.1Zm429.8-.5q-.2,0-.4-.1c-.5-.2-.7-.8-.4-1.3.1-.5.7-.7,1.2-.5.5.1.7.7.6,1.3q-.1,0-.1.1c-.2.3-.5.5-.9.5Zm-434.9-14c-.4,0-.7-.3-.9-.7q0,0,0-.1c-.1-.5.2-1,.7-1.2.5-.1,1,.2,1.2.8.1.5-.2,1-.7,1.1q-.1.1-.3.1Zm440-.5q-.1,0-.3-.1c-.5-.1-.8-.6-.7-1.1l1.9.4c-.1.5-.5.8-.9.8Zm-444-14.4c-.4,0-.8-.2-.9-.6q-.1-.2-.1-.3c0-.6.5-1,1-1s.9.3.9.8c.1.4-.1.9-.6,1.1q-.2,0-.3,0Zm448-.5c-.5,0-1-.4-1-.9q.1-.2.1-.4c.2-.5.7-.7,1.2-.6.5.2.8.7.7,1.1-.1.5-.5.8-1,.8ZM855.3,855.2c-.4,0-.7-.3-.9-.7q0-.2,0-.3c0-.6.4-1,.9-1s.9.4,1,.8c.1.5-.2,1-.7,1.1q-.1.1-.3.1Zm454.1-.6c-.5,0-.9-.4-.9-.9q0-.2,0-.3c.2-.5.7-.8,1.2-.7.5.2.8.7.7,1.2-.1.4-.5.7-1,.7ZM853.3,839.9c-.5,0-.9-.4-1-.9c0-.4.3-.9.8-1s1,.2,1.1.7q.1.1.1.3c0,.5-.5.9-1,.9Zm458.1-.5q-.1,0-.2,0c-.5-.1-.8-.6-.7-1.1c0-.5.4-.8.9-.8.6,0,1,.4,1,.9q0,.1,0,.3c-.1.4-.5.7-1,.7ZM852.3,824.6c-.6,0-1-.5-1-1s.4-1,1-1c.5,0,.9.5.9,1s-.4,1-.9,1Zm460.1-.5c-.5,0-.9-.5-.9-1s.4-1,.9-1c.6,0,1,.4,1,1c0,.5-.4,1-1,1ZM852.3,809.2c-.6,0-1-.4-1-1c0-.5.4-1,1-1c.5,0,.9.5.9,1s-.4,1-.9,1Zm460.1-.5c-.5,0-1-.5-1-1s.5-1,1-1s1,.5,1,1-.5,1-1,1ZM853.3,793.9c-.6,0-1-.5-1-1q0-.1,0-.3c.2-.5.7-.8,1.2-.7.5.2.8.6.7,1.1c0,.5-.4.9-.9.9Zm458.1-.6c-.5,0-.9-.3-1-.7q0-.1,0-.3c0-.5.4-.9,1-.9.5,0,.9.4.9.9.1.4-.2.9-.7,1q-.1,0-.2,0ZM855.3,778.6q-.2,0-.3,0c-.5-.2-.7-.7-.6-1.1c0-.5.4-.8.9-.8s1,.4,1,.9q0,.2-.1.3c-.1.5-.5.7-.9.7Zm454-.5c-.5,0-.9-.4-.9-.8-.1-.5.1-1,.6-1.1.5-.2,1,.1,1.2.6q.1.2.1.3c0,.6-.5,1-1,1Zm-451-14.6q-.1,0-.3,0c-.4-.2-.7-.7-.6-1.1.1-.5.5-.8.9-.8.6,0,1,.4,1,.9q0,.2,0,.4c-.2.4-.6.6-1,.6Zm447.9-.5c-.4,0-.8-.3-.9-.8-.1-.4.2-.9.6-1.1.5-.1,1.1.1,1.2.6q.1.2.1.4c0,.5-.4.9-1,.9Zm-4-14.8c-.5,0-.9-.3-1-.7-.1-.5.2-1.1.7-1.2.5-.2,1,.1,1.2.6q0,0,0,.1c.1.5-.2,1-.7,1.2q-.1,0-.2,0Zm-438.9-.3l-1.9-.4c.2-.5.7-.9,1.2-.7.5.1.8.6.7,1.1Zm4.1-13.7q-.1,0-.3-.1c-.5-.1-.8-.7-.6-1.2q0-.1.1-.2c.2-.5.8-.6,1.3-.4.4.2.6.8.4,1.3-.1.4-.5.6-.9.6Zm429.7-.5q-.6,0-.9-.6c-.1-.5.1-1.1.6-1.3.5-.1,1,.1,1.2.5.2.5,0,1-.5,1.3q-.2.1-.4.1ZM873.4,720q-.1,0-.3-.1c-.5-.2-.8-.7-.6-1.2q.1-.1.1-.3c.3-.4.9-.5,1.4-.2.4.2.5.8.3,1.2-.1.3-.5.6-.9.6Zm417.7-.5c-.3,0-.6-.1-.8-.4q-.1-.1-.2-.2c-.1-.5.1-1.1.7-1.3.4-.1.9.1,1.1.6.2.4.1.9-.3,1.2q-.2.1-.5.1ZM880.4,706.2q-.3,0-.6-.1c-.4-.3-.5-.9-.3-1.3.3-.4.7-.6,1.2-.5.5.2.8.7.6,1.2q0,.2-.1.3c-.2.3-.5.4-.8.4Zm403.7-.4c-.3,0-.7-.2-.8-.5-.3-.4-.2-1,.3-1.2.4-.3,1-.2,1.3.2q.1.1.1.3c.2.5-.1,1-.6,1.2q-.1,0-.3,0ZM888.2,693q-.3,0-.5-.2c-.4-.3-.6-.8-.3-1.3.2-.4.7-.6,1.1-.4.5.2.8.7.6,1.2q0,.1-.1.3c-.2.2-.5.4-.8.4Zm388-.4c-.3,0-.6-.2-.8-.5-.2-.4-.1-1,.3-1.2.4-.3,1-.2,1.3.2q.1.1.2.3c.1.5-.1,1-.6,1.2q-.2,0-.4,0ZM896.9,680.4q-.3,0-.6-.2c-.4-.3-.5-1-.2-1.4q.1-.1.2-.2c.3-.3,1-.3,1.3,0c.4.4.4,1,0,1.4-.1.3-.4.4-.7.4Zm370.6-.4q-.4,0-.7-.3q0-.1-.1-.2c-.3-.4-.2-1,.3-1.3.4-.3,1-.2,1.3.2s.3,1-.1,1.3q-.3.3-.7.3Zm-361-11.8q-.3,0-.6-.1c-.4-.3-.5-.9-.2-1.4q.1-.1.3-.3c.4-.3,1-.1,1.3.3.2.4.2.9-.1,1.2-.2.2-.5.3-.7.3Zm351.5-.3q-.3,0-.6-.1-.1-.1-.2-.3c-.3-.5-.2-1.1.2-1.3.4-.3,1-.2,1.3.1s.3.8.1,1.2c-.2.3-.5.4-.8.4ZM916.8,656.8q-.4,0-.7-.3c-.4-.4-.4-1,0-1.3v-.1c.4-.3,1-.3,1.4,0c.4.4.4,1,0,1.4q-.3.3-.7.3Zm330.8-.3q-.3,0-.6-.2c-.4-.4-.4-1-.1-1.4.4-.4,1-.4,1.4,0s.4,1,0,1.4q-.3.2-.7.2ZM927.8,646.1c-.3,0-.6-.1-.8-.4-.2-.4-.2-1,.2-1.3.3-.3.8-.3,1.2-.1.4.3.6.9.3,1.4q-.2.1-.3.2-.3.2-.6.2Zm308.8-.2q-.4,0-.7-.3c-.3-.3-.4-.8-.1-1.3.2-.4.8-.5,1.3-.2q.2.1.3.3c.3.4.1,1-.3,1.3q-.2.2-.5.2Zm-297-9.7c-.3,0-.6-.2-.8-.5-.3-.4-.2-1,.2-1.3s.9-.2,1.3.1c.3.4.3,1,0,1.4q-.1,0-.2.1-.2.2-.5.2Zm285.2-.3q-.4,0-.7-.3c-.4-.2-.5-.8-.2-1.2.3-.5,1-.5,1.4-.2q.1,0,.2.1c.4.4.4,1,0,1.3q-.3.3-.7.3ZM951.9,627c-.3,0-.6-.1-.8-.4-.2-.4-.1-1,.3-1.3.3-.3.9-.3,1.2.1.4.3.4,1,0,1.3q0,.1-.1.2-.3.1-.6.1Zm260.5-.2q-.4,0-.7-.3c-.4-.3-.5-.8-.2-1.3.3-.4,1-.5,1.4-.2q.1.1.2.2c.4.3.4.9,0,1.3q-.3.3-.7.3Zm-247.5-8.1c-.3,0-.6-.1-.8-.4-.3-.4-.2-1,.2-1.3q.2-.1.3-.1c.5-.2,1,.1,1.2.6.2.4,0,.9-.5,1.1q-.2.1-.4.1Zm234.6-.2q-.2,0-.4,0-.1-.1-.2-.1c-.4-.3-.6-.9-.3-1.4.3-.4.9-.5,1.3-.3s.6.7.5,1.2q-.3.6-.9.6Zm-221.2-7.2c-.3,0-.6-.1-.8-.4-.3-.4-.1-1,.3-1.3q.1-.1.3-.2c.5-.1,1,.2,1.2.7.1.4-.1.9-.5,1.1q-.2.1-.5.1Zm207.7-.2q-.2,0-.4,0-.1-.1-.2-.1c-.4-.3-.6-.9-.3-1.4.3-.4.9-.5,1.3-.3s.6.7.5,1.2q-.3.6-.9.6Zm-193.7-6.3c-.4,0-.8-.2-.9-.6-.2-.5,0-1,.5-1.2.4-.2.9-.1,1.2.3.3.5.2,1.1-.3,1.4q-.1.1-.2.1-.2,0-.3,0Zm179.7-.1q-.2,0-.4-.1c-.5-.2-.7-.7-.6-1.2.2-.5.8-.8,1.3-.6q.1,0,.2.1c.5.3.6.9.3,1.3-.2.3-.5.5-.8.5Zm-165.4-5.4c-.4,0-.8-.3-.9-.7-.2-.5.1-1,.6-1.2q0,0,.1,0c.5-.1,1,.2,1.1.7.2.5-.1,1-.7,1.2q-.1,0-.2,0Zm151-.2q-.1,0-.2,0l.4-1.9c.6.2.9.7.7,1.2-.1.4-.5.7-.9.7Zm-136.3-4.4c-.4,0-.8-.2-.9-.7-.2-.4.1-1,.6-1.1q0,0,.1-.1c.5-.1,1,.2,1.1.7.2.6-.2,1.1-.7,1.2q-.1,0-.2,0Zm121.6-.1q-.1,0-.2,0l.4-1.9c.6.1.9.7.7,1.2-.1.4-.5.7-.9.7Zm-106.7-3.4c-.4,0-.7-.3-.9-.7-.1-.5.1-1,.6-1.2.6-.2,1.3.3,1.3.9c0,.5-.3.9-.8,1q-.1,0-.2,0Zm91.7-.1q-.1,0-.3-.1c-.5-.1-.8-.7-.6-1.2s.6-.7,1.1-.6c.5,0,.8.4.8.9s-.4,1-1,1Zm-76.5-2.5c-.5,0-1-.4-1-.9s.4-1,.9-1c.5-.1.9.2,1.1.7.1.5-.2,1.1-.7,1.2q-.2,0-.3,0Zm61.4,0q-.1,0-.1-.1c-.5,0-.9-.4-.9-.9c0-.6.6-1.1,1.2-1c.5.2.8.7.7,1.2s-.5.8-.9.8Zm-46.1-1.5c-.5,0-1-.5-1-1s.4-.9.9-.9c.5-.1.9.2,1.1.7.1.5-.2,1-.7,1.2q-.2,0-.3,0Zm30.8-.1q-.1,0-.1,0c-.5,0-.9-.4-.9-.9c0-.6.6-1.1,1.2-1c.5.2.8.7.7,1.2s-.5.7-.9.7Zm-15.4-.4c-.5,0-1-.5-1-1s.4-1,1-1c.5,0,1,.5,1,1s-.5,1-1,1Z"/></g><g><path d="M1081.2,1028.5c0-.6.5-1.2,1.2-1.2q.1,0,.2,0q.2,0,.3,0c.7,0,1.2.5,1.2,1.2s-.5,1.2-1.2,1.2q-.1,0-.3,0-.1,0-.2,0c-.7,0-1.2-.5-1.2-1.2Zm-15.4-.6c.1-.7.7-1.2,1.3-1.1.7,0,1.2.6,1.2,1.3-.1.6-.6,1.1-1.3,1.1-.7-.1-1.2-.6-1.2-1.3Zm31.2.1c0-.6.5-1.2,1.2-1.3.6,0,1.2.5,1.2,1.1.1.7-.4,1.3-1.1,1.3q0,.1,0,.1c-.7,0-1.2-.5-1.3-1.2Zm-45.4-.5c-.7-.1-1.1-.7-1-1.3.1-.7.7-1.1,1.3-1.1.7.1,1.2.8,1.1,1.4s-.6,1-1.2,1q-.1,0-.2,0Zm60.7-1.1c-.1-.6.4-1.2,1-1.3.7-.1,1.3.3,1.4,1c.1.6-.4,1.3-1,1.4q-.1,0-.2,0c-.6,0-1.1-.5-1.2-1.1Zm-75.9-1.6c-.6-.2-1-.8-.9-1.4.1-.7.8-1.1,1.4-1c.7.2,1.1.8,1,1.5-.2.5-.7.9-1.2.9q-.1,0-.3,0Zm91-1c-.1-.7.3-1.3.9-1.5.7-.1,1.3.3,1.5.9.1.7-.3,1.3-.9,1.5q-.2,0-.3,0c-.6,0-1-.4-1.2-.9Zm-105.9-2.9c-.7-.2-1-.8-.8-1.5.1-.6.8-1,1.5-.8.6.2.9.9.8,1.5-.2.5-.7.9-1.2.9q-.2,0-.3-.1Zm120.8-.9c-.2-.7.2-1.3.8-1.5s1.3.1,1.5.8c.2.6-.2,1.3-.8,1.5q-.2,0-.3,0c-.6,0-1-.3-1.2-.8Zm-135.5-4c-.6-.2-.9-.9-.7-1.5.3-.7,1-1,1.6-.8.6.3.9,1,.7,1.6-.2.5-.7.8-1.1.8q-.3,0-.5-.1Zm150.1-.9c-.3-.6,0-1.3.7-1.5.6-.3,1.3,0,1.5.7.3.6-.1,1.3-.7,1.5q-.2.1-.4.1c-.5,0-.9-.3-1.1-.8ZM992.6,1010c-.6-.3-.9-1-.6-1.6s1-.8,1.6-.6c.6.3.9,1,.6,1.6-.2.5-.7.7-1.1.7q-.3,0-.5-.1Zm178.4-.8c-.2-.6,0-1.3.6-1.6.6-.2,1.3,0,1.6.6s0,1.3-.6,1.6q-.2.1-.5.1c-.4,0-.9-.2-1.1-.7ZM978.8,1003c-.6-.3-.8-1-.5-1.6.4-.6,1.1-.8,1.7-.5.5.3.8,1.1.4,1.7-.2.3-.6.6-1,.6-.2,0-.4-.1-.6-.2Zm205.9-.7c-.3-.6-.1-1.3.5-1.6s1.3-.1,1.6.5c.4.5.2,1.3-.4,1.6q-.3.2-.6.2c-.4,0-.8-.3-1.1-.7Zm-219.1-7.2c-.6-.4-.7-1.2-.4-1.7.4-.6,1.1-.7,1.7-.4.5.4.7,1.1.3,1.7-.2.4-.6.5-1,.5q-.3,0-.6-.1Zm232.3-.6c-.3-.6-.2-1.3.3-1.7.6-.4,1.4-.2,1.7.3.4.6.2,1.3-.3,1.7q-.3.2-.7.2c-.4,0-.8-.2-1-.5ZM953,986.1c-.6-.4-.7-1.1-.3-1.7.4-.5,1.2-.6,1.7-.2s.6,1.2.2,1.7c-.2.3-.6.5-.9.5q-.4,0-.7-.3Zm257.5-.4c-.4-.6-.3-1.3.2-1.7s1.3-.4,1.7.2c.4.5.3,1.3-.2,1.7q-.4.2-.8.2c-.3,0-.7-.1-.9-.4ZM941,976.3c-.5-.4-.5-1.2-.1-1.7s1.2-.5,1.7-.1c.5.5.5,1.2.1,1.7-.2.3-.6.4-.9.4s-.6,0-.8-.3Zm281.4-.3c-.5-.5-.4-1.3.1-1.7.5-.5,1.3-.4,1.7.1s.4,1.2-.1,1.7q-.4.3-.8.3c-.3,0-.7-.2-.9-.4ZM929.8,965.7c-.5-.5-.5-1.2,0-1.7s1.2-.4,1.7,0c.5.5.5,1.3,0,1.7q-.4.4-.8.4c-.4,0-.7-.1-.9-.4Zm303.8-.3c-.5-.4-.5-1.2,0-1.7.4-.4,1.2-.4,1.7,0c.4.5.5,1.3,0,1.7-.3.3-.6.4-.9.4s-.6-.1-.8-.4ZM919.4,954.3c-.5-.5-.4-1.2.1-1.7.5-.4,1.3-.3,1.7.2s.4,1.3-.1,1.7c-.2.2-.5.3-.8.3q-.5,0-.9-.5Zm324.6-.1c-.5-.5-.6-1.2-.2-1.7.5-.5,1.2-.6,1.7-.2.6.5.6,1.2.2,1.7-.3.3-.6.5-.9.5q-.5,0-.8-.3Zm-334.2-12c-.4-.5-.3-1.2.2-1.6.6-.4,1.3-.3,1.7.2s.3,1.3-.2,1.7q-.4.2-.7.2c-.4,0-.8-.1-1-.5Zm343.8,0c-.6-.4-.7-1.2-.3-1.7.4-.6,1.1-.7,1.7-.3.5.4.6,1.2.2,1.7-.2.3-.6.5-.9.5q-.4,0-.7-.2ZM901.1,929.5c-.3-.6-.2-1.3.4-1.7.6-.3,1.3-.2,1.7.4.3.6.2,1.3-.4,1.6q-.3.2-.7.2c-.4,0-.8-.2-1-.5Zm361.1,0c-.5-.4-.7-1.1-.3-1.7.3-.5,1-.7,1.6-.4.6.4.7,1.1.4,1.7-.2.4-.6.6-1,.6q-.4,0-.7-.2ZM893.4,916.1c-.3-.6-.1-1.3.5-1.6s1.3-.1,1.6.5.1,1.3-.5,1.6q-.2.2-.5.2c-.5,0-.9-.3-1.1-.7Zm376.6.1c-.6-.3-.8-1-.5-1.6s1-.8,1.6-.5.8,1,.5,1.6c-.2.4-.6.7-1.1.7q-.3-.1-.5-.2Zm-383.4-14c-.2-.6,0-1.3.7-1.5.6-.3,1.3,0,1.5.6.3.6,0,1.3-.6,1.6q-.2.1-.5.1c-.4,0-.9-.3-1.1-.8Zm390.1.2c-.6-.3-.9-1-.6-1.6s1-.9,1.6-.6.9,1,.6,1.6c-.2.5-.6.7-1.1.7q-.2,0-.5-.1ZM880.9,887.9c-.2-.6.1-1.3.7-1.5.7-.3,1.4.1,1.6.7s-.1,1.3-.7,1.6q-.2,0-.4,0c-.5,0-1-.3-1.2-.8Zm401.6.3c-.6-.3-1-1-.8-1.6.3-.6,1-.9,1.6-.7s1,.9.7,1.5c-.1.5-.6.8-1.1.8q-.2,0-.4,0Zm-406.2-15c-.2-.6.2-1.3.8-1.5s1.3.2,1.5.9c.2.6-.2,1.3-.8,1.4q-.2.1-.4.1c-.5,0-1-.4-1.1-.9Zm410.9.3c-.7-.1-1-.8-.9-1.4.2-.7.9-1.1,1.5-.9.7.2,1,.8.9,1.5-.2.5-.7.9-1.2.9q-.2,0-.3-.1ZM872.7,858.2c-.2-.7.3-1.3.9-1.4.7-.2,1.3.3,1.4.9.2.7-.3,1.3-.9,1.4q-.1,0-.2.1c-.6,0-1.1-.5-1.2-1Zm418.1.4c-.7-.1-1.1-.8-1-1.4.2-.7.8-1.1,1.5-1c.6.2,1,.8.9,1.5-.1.5-.6.9-1.2.9q-.1,0-.2,0ZM870.2,842.9c-.1-.6.4-1.2,1-1.3.7-.1,1.3.4,1.4,1c.1.7-.4,1.3-1.1,1.4q-.1,0-.1,0c-.6,0-1.1-.5-1.2-1.1Zm423.1.6c-.7-.1-1.1-.7-1-1.4.1-.6.7-1.1,1.3-1c.7.1,1.2.7,1.1,1.3s-.6,1.1-1.2,1.1q-.1,0-.2,0ZM868.8,827.6c0-.7.5-1.3,1.1-1.3.7,0,1.3.5,1.3,1.1.1.7-.5,1.3-1.1,1.3q-.1,0-.1,0c-.6,0-1.2-.5-1.2-1.1Zm424.8-.7c0-.6.6-1.2,1.3-1.1.6,0,1.1.6,1.1,1.3c0,.6-.6,1.1-1.2,1.1-.7,0-1.2-.6-1.2-1.3ZM869.7,813.4c-.7-.1-1.2-.6-1.2-1.3c0-.6.6-1.2,1.2-1.2.7.1,1.2.6,1.2,1.3c0,.6-.5,1.2-1.2,1.2Zm424.1-1.7c0-.7.6-1.3,1.2-1.3.7,0,1.2.5,1.3,1.2c0,.7-.6,1.2-1.2,1.2q0,0-.1,0c-.6,0-1.1-.5-1.2-1.1ZM870.4,798c-.6,0-1.1-.6-1.1-1.3.1-.7.7-1.2,1.3-1.1.7.1,1.2.7,1.1,1.3c0,.7-.6,1.1-1.2,1.1q0,0-.1,0Zm422.6-1.6c-.1-.7.4-1.2,1.1-1.3s1.2.4,1.3,1.1-.4,1.2-1.1,1.3q0,0-.1,0c-.6,0-1.1-.5-1.2-1.1ZM872.2,782.8c-.6-.1-1.1-.8-.9-1.4c0-.7.7-1.1,1.3-1c.7.1,1.1.7,1,1.4-.1.6-.6,1-1.2,1q-.1,0-.2,0Zm418.9-1.5c-.1-.7.3-1.3,1-1.4.6-.1,1.2.3,1.4,1c.1.6-.4,1.3-1,1.4q-.1,0-.2,0c-.6,0-1.1-.5-1.2-1Zm-416-13.6c-.6-.1-1-.8-.8-1.4.1-.7.8-1.1,1.4-.9.7.1,1.1.8.9,1.4-.1.6-.6.9-1.2.9q-.1,0-.3,0Zm413-1.4h-.1c-.1-.6.3-1.3.9-1.5.7-.1,1.3.3,1.5.9.1.7-.3,1.3-.9,1.5q-.1,0-.3,0c-.5,0-1-.3-1.1-.9ZM879.2,752.9c-.7-.2-1-.9-.8-1.5.2-.7.9-1,1.5-.8s1,.9.8,1.5c-.2.5-.7.8-1.2.8q-.2,0-.3,0Zm404.7-1.3c-.1-.6.2-1.3.8-1.5.7-.2,1.3.1,1.5.8.3.6-.1,1.3-.7,1.5q-.2,0-.4,0c-.5,0-1-.3-1.2-.8ZM884.2,738.4c-.6-.3-.9-1-.6-1.6.2-.6.9-.9,1.5-.7.7.3.9,1,.7,1.6-.2.5-.6.8-1.1.8q-.2,0-.5-.1Zm394.6-1.2c-.3-.6,0-1.3.7-1.5.6-.3,1.3,0,1.5.6.3.7,0,1.3-.6,1.6q-.3.1-.5.1c-.5,0-.9-.3-1.1-.8ZM890.4,724.3c-.6-.3-.9-1-.6-1.6s1-.9,1.6-.6.9,1,.6,1.6c-.2.4-.7.7-1.1.7q-.3,0-.5-.1Zm382.2-1c-.3-.6,0-1.3.6-1.6s1.3-.1,1.6.5s0,1.4-.6,1.7q-.2.1-.5.1c-.5,0-.9-.3-1.1-.7ZM897.5,710.7c-.6-.4-.8-1.1-.5-1.7.4-.6,1.1-.8,1.7-.4.6.3.8,1,.4,1.6-.2.4-.6.6-1,.6q-.3,0-.6-.1Zm367.9-.9c-.3-.6-.1-1.3.5-1.6.5-.4,1.3-.2,1.6.4.4.6.2,1.3-.4,1.7q-.3.1-.6.1c-.4,0-.8-.2-1.1-.6ZM905.6,697.6c-.6-.4-.7-1.1-.4-1.7.4-.5,1.2-.7,1.7-.3.6.4.7,1.1.3,1.7-.2.3-.6.5-1,.5-.2,0-.4-.1-.6-.2Zm351.7-.7c-.4-.5-.2-1.3.3-1.7.6-.3,1.3-.2,1.7.3.4.6.2,1.4-.3,1.7q-.3.3-.7.2c-.4,0-.8-.2-1-.5ZM914.6,685.2c-.6-.5-.6-1.2-.2-1.7.4-.6,1.1-.7,1.7-.3.5.5.6,1.2.2,1.7-.3.3-.6.5-1,.5q-.4,0-.7-.2Zm333.7-.6c-.5-.5-.4-1.3.1-1.7.6-.4,1.3-.3,1.7.2s.4,1.3-.1,1.7q-.4.3-.8.3c-.3,0-.7-.2-.9-.5ZM924.4,673.4c-.4-.5-.5-1.2,0-1.7.4-.5,1.2-.6,1.7-.1s.5,1.2.1,1.7h-.1c-.2.3-.5.4-.8.4q-.5,0-.9-.3Zm314-.4c-.5-.5-.5-1.3,0-1.7s1.3-.4,1.7.1c.5.5.5,1.2,0,1.7q-.4.3-.9.3c-.3,0-.6-.1-.8-.4ZM935.1,662.4c-.4-.5-.4-1.3.1-1.8.5-.4,1.2-.4,1.7.1.4.5.4,1.2-.1,1.7-.2.2-.5.3-.8.3q-.5,0-.9-.3Zm292.5-.3c-.5-.4-.5-1.2,0-1.7.4-.5,1.2-.5,1.7,0c.5.4.5,1.2,0,1.7q-.3.3-.8.3t-.9-.3Zm-281-10c-.4-.5-.4-1.2.2-1.7.5-.4,1.2-.3,1.7.2.4.5.3,1.3-.2,1.7q-.4.3-.8.3c-.3,0-.7-.2-.9-.5Zm269.6-.1c-.6-.4-.6-1.2-.2-1.7s1.2-.6,1.7-.1c.5.4.6,1.1.2,1.7-.3.3-.6.4-1,.4q-.4,0-.7-.3Zm-257.5-9.3c-.3-.5-.2-1.2.3-1.6.6-.4,1.3-.3,1.7.3.4.5.3,1.2-.3,1.7q-.3.2-.7.2c-.3,0-.7-.2-1-.6Zm245.3.1c-.5-.4-.7-1.1-.3-1.7.4-.5,1.1-.7,1.7-.3.5.4.7,1.2.3,1.7-.3.3-.6.5-1,.5-.2,0-.5,0-.7-.2Zm-232.5-8.5c-.3-.6-.1-1.3.4-1.7.6-.3,1.4-.1,1.7.4.3.6.2,1.4-.4,1.7q-.3.2-.6.2c-.4,0-.8-.2-1.1-.6Zm219.7.2c-.6-.4-.7-1.1-.4-1.7s1.1-.7,1.7-.4c.5.3.7,1.1.4,1.6-.3.4-.7.6-1.1.6q-.3,0-.6-.1Zm-206.3-7.7c-.3-.6-.1-1.4.5-1.7s1.4,0,1.7.6c.3.5,0,1.3-.6,1.6q-.2.1-.5.1c-.5,0-.9-.2-1.1-.6Zm192.9.3c-.6-.3-.8-1.1-.5-1.7.3-.5,1-.8,1.6-.5s.8,1,.6,1.6c-.3.5-.7.7-1.1.7q-.3,0-.6-.1Zm-179-6.9c-.3-.6,0-1.3.6-1.6.7-.2,1.3,0,1.6.7.3.6,0,1.3-.6,1.5q-.3.1-.5.1c-.5,0-.9-.2-1.1-.7Zm165.2.5c-.7-.3-.9-1-.7-1.6.3-.6,1-.9,1.6-.7.6.3.9,1,.6,1.6-.1.5-.6.8-1.1.8q-.2,0-.4-.1Zm-150.9-6c-.2-.6.1-1.3.7-1.5.7-.2,1.4.1,1.6.7.2.7-.1,1.3-.8,1.5q-.2.1-.4.1c-.5,0-.9-.3-1.1-.8Zm136.6.6c-.7-.2-1-.9-.8-1.6.2-.6.9-.9,1.5-.7.7.2,1,.9.8,1.5-.2.5-.7.8-1.2.8q-.1.1-.3,0Zm-121.9-5.1c-.2-.6.2-1.3.8-1.4.7-.2,1.4.2,1.5.8.2.7-.2,1.3-.8,1.5q-.2,0-.3,0c-.6,0-1.1-.3-1.2-.9Zm107.2.8c-.6-.2-1-.9-.9-1.5.2-.7.9-1,1.5-.9.7.2,1,.8.9,1.5-.2.5-.6.9-1.2.9q-.1,0-.3,0Zm-92.2-4.2c-.2-.6.3-1.3.9-1.4.7-.1,1.3.3,1.4,1c.2.7-.3,1.3-.9,1.4q-.2,0-.3,0c-.5,0-1-.4-1.1-1Zm77.3.9c-.7-.1-1.1-.7-1-1.4.1-.6.8-1.1,1.4-1c.7.2,1.1.8,1,1.4s-.6,1-1.2,1q-.1,0-.2,0Zm-62.2-3.2c0-.6.4-1.2,1.1-1.3s1.3.4,1.3,1.1c.1.6-.4,1.2-1,1.3q-.1,0-.2,0c-.6,0-1.1-.4-1.2-1.1Zm47.1,1c-.7,0-1.2-.6-1.1-1.3.1-.6.7-1.1,1.3-1c.7,0,1.2.6,1.1,1.3-.1.6-.6,1.1-1.2,1.1q0,0-.1-.1Zm-31.8-2.2c0-.6.5-1.2,1.2-1.2s1.2.5,1.3,1.2c0,.6-.5,1.2-1.2,1.2q0,0-.1,0c-.6,0-1.1-.5-1.2-1.2Zm15.4-.1c0-.6.6-1.1,1.2-1.1.7,0,1.2.6,1.2,1.2c0,.7-.6,1.2-1.2,1.2-.7,0-1.2-.6-1.2-1.3Zm146.7,362.2" fill-rule="evenodd"/></g><g><path d="M1082.6,1012.5q-.1,0-.2,0c-.8,0-1.5-.7-1.5-1.5s.7-1.4,1.5-1.4q.1,0,.2,0t.3,0c.8,0,1.4.6,1.4,1.4s-.6,1.5-1.4,1.5q-.1,0-.3,0Zm-15.6-.6c-.8-.1-1.4-.8-1.4-1.6.1-.8.8-1.4,1.6-1.3s1.4.8,1.3,1.6c0,.7-.7,1.3-1.4,1.3q-.1,0-.1,0Zm29.7-1.4c0-.8.6-1.5,1.4-1.5.7-.1,1.5.5,1.5,1.3.1.8-.5,1.5-1.3,1.6q-.1,0-.1,0c-.8,0-1.4-.6-1.5-1.4Zm-45.1-.4c-.8-.1-1.3-.9-1.2-1.7.2-.7.9-1.3,1.7-1.2.8.2,1.3.9,1.2,1.7-.1.7-.7,1.2-1.4,1.2q-.1,0-.3,0Zm60.4-1.3c-.2-.8.4-1.5,1.2-1.7v.1c.8-.2,1.5.4,1.6,1.2.2.8-.4,1.5-1.2,1.6q-.1,0-.2,0c-.7,0-1.3-.5-1.4-1.2Zm-75.5-1.7c-.8-.2-1.3-1-1.1-1.7.2-.8,1-1.3,1.8-1.1.7.2,1.2,1,1,1.7-.1.7-.7,1.1-1.4,1.1q-.1,0-.3,0Zm90.5-1.2c-.2-.8.3-1.5,1.1-1.7.7-.2,1.5.3,1.7,1c.2.8-.3,1.6-1,1.8q-.2,0-.4,0c-.6,0-1.2-.4-1.4-1.1Zm-105.4-3c-.7-.2-1.1-1-.9-1.8s1.1-1.2,1.8-.9c.8.2,1.2,1,1,1.8-.2.6-.8,1-1.4,1q-.3,0-.5-.1Zm120.2-1.1c-.3-.7.1-1.5.9-1.8.8-.2,1.6.2,1.8.9.3.8-.1,1.6-.9,1.9q-.2.1-.4,0c-.7,0-1.2-.3-1.4-1Zm-134.7-4.2c-.7-.3-1-1.2-.7-1.9.3-.8,1.1-1.1,1.9-.8.7.3,1,1.2.7,1.9-.2.5-.7.9-1.3.9q-.3,0-.6-.1Zm149.1-1c-.3-.7,0-1.6.8-1.9.7-.3,1.5.1,1.9.8.3.7-.1,1.6-.8,1.9q-.3.1-.6.1c-.6,0-1.1-.3-1.3-.9Zm-163.1-5.5c-.7-.4-1-1.2-.6-2c.3-.7,1.2-1,1.9-.6s1,1.2.7,2c-.3.5-.8.8-1.3.8q-.4,0-.7-.2Zm177-.8c-.3-.7-.1-1.6.6-2c.7-.3,1.6-.1,2,.7.4.7.1,1.5-.6,1.9q-.4.2-.7.2c-.5,0-1-.3-1.3-.8Zm-190.5-6.8c-.6-.4-.8-1.3-.4-2c.4-.6,1.3-.8,2-.4.6.4.9,1.3.4,2-.2.4-.7.6-1.2.6-.3,0-.5,0-.8-.2Zm203.9-.7c-.4-.6-.2-1.5.5-1.9.6-.5,1.6-.3,2,.4s.2,1.6-.5,2q-.4.2-.8.2c-.4,0-.9-.2-1.2-.7Zm-216.7-7.9c-.6-.4-.8-1.3-.3-2c.5-.6,1.4-.8,2-.3.7.5.8,1.4.3,2-.3.4-.7.6-1.1.6q-.5,0-.9-.3Zm229.5-.5c-.5-.6-.3-1.6.3-2c.6-.5,1.6-.4,2,.3.5.6.4,1.5-.3,2-.2.2-.6.3-.8.3q-.7,0-1.2-.6Zm-241.6-9c-.6-.5-.7-1.4-.2-2.1.5-.6,1.4-.6,2.1-.1.6.5.6,1.4.1,2-.3.4-.7.5-1.1.5q-.5,0-.9-.3Zm253.7-.4c-.6-.6-.5-1.5.1-2.1.6-.5,1.5-.4,2.1.2.5.6.4,1.5-.2,2q-.4.4-.9.4c-.4,0-.9-.2-1.1-.5ZM943.3,954.9c-.5-.6-.5-1.5,0-2c.6-.6,1.5-.6,2.1,0c.6.5.6,1.4,0,2-.3.3-.7.4-1,.4-.4,0-.8-.1-1.1-.4Zm276.4-.3c-.6-.5-.6-1.5,0-2c.5-.6,1.4-.6,2,0c.6.5.6,1.5,0,2-.3.3-.6.4-1,.4s-.7-.1-1-.4Zm-286.8-11c-.5-.6-.5-1.6.1-2.1s1.6-.4,2.1.2.4,1.5-.2,2q-.4.4-.9.4c-.5,0-.9-.2-1.1-.5Zm297.2-.2c-.6-.5-.7-1.4-.1-2c.5-.6,1.4-.7,2-.2s.7,1.5.2,2.1c-.3.3-.7.5-1.1.5q-.5,0-1-.4Zm-306.8-12c-.5-.6-.3-1.5.3-2c.7-.4,1.6-.3,2,.3.5.7.4,1.6-.3,2.1q-.4.3-.8.2-.7,0-1.2-.6Zm316.4,0c-.6-.4-.8-1.3-.3-2c.4-.6,1.3-.8,2-.3.6.5.8,1.4.3,2-.3.4-.7.6-1.1.6q-.5,0-.9-.3Zm-325-12.8c-.4-.7-.2-1.5.5-2c.7-.4,1.6-.2,2,.5s.2,1.6-.5,2c-.2.1-.5.2-.7.2-.5,0-1-.2-1.3-.7Zm333.6.1c-.7-.4-.9-1.3-.5-1.9.4-.7,1.3-.9,2-.5s.9,1.3.5,2c-.3.4-.8.7-1.3.7q-.3,0-.7-.3ZM907.2,905.2c-.4-.7-.1-1.6.6-2c.7-.3,1.6-.1,1.9.7.4.7.1,1.5-.6,1.9q-.3.2-.7.2c-.5,0-1-.3-1.2-.8Zm348.7.2c-.7-.3-1-1.2-.7-1.9.4-.7,1.3-1,2-.6.7.3,1,1.2.6,1.9-.2.5-.7.8-1.3.8q-.3,0-.6-.2ZM900.7,891.2c-.3-.8,0-1.6.8-1.9.7-.3,1.5,0,1.9.8.3.7-.1,1.5-.8,1.9q-.3.1-.6.1c-.5,0-1.1-.4-1.3-.9Zm361.7.3c-.8-.3-1.1-1.1-.8-1.9v.1c.3-.8,1.1-1.1,1.9-.8.7.3,1.1,1.1.8,1.9-.3.5-.8.8-1.4.8q-.2,0-.5-.1ZM895.3,876.7c-.2-.8.2-1.6,1-1.8.7-.3,1.5.1,1.8.9.2.8-.2,1.6-.9,1.8q-.3.1-.5.1c-.6,0-1.2-.4-1.4-1Zm372.5.5c-.8-.3-1.2-1.1-1-1.8.3-.8,1.1-1.2,1.8-1c.8.3,1.2,1.1,1,1.8s-.8,1.1-1.4,1.1q-.2,0-.4-.1ZM891.1,861.9c-.1-.8.4-1.6,1.1-1.8.8-.2,1.6.3,1.8,1.1.2.7-.3,1.5-1.1,1.7q-.2,0-.3.1c-.7,0-1.3-.5-1.5-1.1Zm380.9.6c-.8-.2-1.2-1-1.1-1.8.2-.8,1-1.3,1.8-1.1s1.2,1,1,1.8c-.1.6-.7,1.1-1.4,1.1q-.1,0-.3,0ZM888.2,846.7c-.2-.8.4-1.5,1.1-1.7.8-.1,1.6.5,1.7,1.2.1.8-.4,1.6-1.2,1.7q-.1,0-.2,0c-.7,0-1.3-.5-1.4-1.2Zm386.9.7c-.8-.1-1.4-.8-1.2-1.6.1-.8.8-1.3,1.6-1.2s1.3.8,1.2,1.6c-.1.7-.7,1.2-1.4,1.2q-.1,0-.2,0Zm-388.8-16c0-.8.6-1.5,1.4-1.6.8,0,1.5.5,1.5,1.4.1.7-.5,1.4-1.3,1.5q-.1,0-.1,0c-.8,0-1.4-.6-1.5-1.3Zm390.6.8c-.8,0-1.4-.7-1.3-1.5s.7-1.4,1.5-1.4c.8.1,1.4.8,1.4,1.6-.1.7-.7,1.3-1.5,1.3q0,0-.1,0ZM885.7,816c0-.9.7-1.5,1.5-1.5s1.4.6,1.4,1.5c0,.7-.6,1.4-1.4,1.4s-1.5-.7-1.5-1.4Zm390.5-.5c0-.8.6-1.5,1.4-1.5s1.4.7,1.4,1.5-.6,1.4-1.4,1.4-1.4-.6-1.4-1.4ZM887.7,802.1c-.8-.1-1.4-.8-1.4-1.6.1-.8.8-1.4,1.6-1.3.8,0,1.4.8,1.3,1.6c0,.7-.7,1.3-1.4,1.3q-.1,0-.1,0Zm387.8-1.8c0-.8.6-1.5,1.4-1.6s1.5.5,1.5,1.3c.1.8-.5,1.5-1.3,1.6q-.1,0-.1,0c-.8,0-1.4-.6-1.5-1.3ZM889.3,786.8c-.8-.1-1.3-.8-1.2-1.6s.9-1.3,1.7-1.2c.7.1,1.3.9,1.2,1.6-.1.8-.8,1.3-1.5,1.3q-.1,0-.2-.1Zm384.4-1.6c-.1-.8.4-1.6,1.2-1.7s1.6.4,1.7,1.2-.4,1.5-1.2,1.7q-.1,0-.2,0c-.7,0-1.3-.5-1.5-1.2ZM892.2,771.8c-.8-.2-1.3-1-1.1-1.7.2-.8.9-1.3,1.7-1.1s1.3.9,1.1,1.7c-.2.7-.8,1.1-1.4,1.1q-.2,0-.3,0Zm378.6-1.5c-.2-.8.3-1.6,1-1.8.8-.2,1.6.3,1.8,1.1.2.7-.3,1.5-1.1,1.7q-.2.1-.3.1c-.7,0-1.3-.5-1.4-1.1ZM896.2,757c-.8-.2-1.2-1-.9-1.8.2-.8,1-1.2,1.8-.9.7.2,1.2,1,.9,1.8-.2.6-.8,1-1.4,1q-.2,0-.4-.1Zm370.4-1.4c-.2-.7.2-1.6.9-1.8.8-.3,1.6.2,1.9.9.2.8-.2,1.6-1,1.9q-.2,0-.4,0c-.6,0-1.2-.4-1.4-1Zm-365.2-13c-.7-.3-1.1-1.2-.8-1.9.3-.8,1.2-1.1,1.9-.8s1.1,1.2.8,1.9c-.3.6-.8.9-1.4.9q-.2,0-.5-.1Zm359.9-1.2c-.3-.8.1-1.6.8-1.9s1.6,0,1.9.8c.3.7,0,1.6-.8,1.9q-.3.1-.5.1c-.6,0-1.1-.4-1.4-.9ZM907.7,728.6c-.7-.4-1-1.2-.6-2c.3-.6,1.2-.9,1.9-.6.7.4,1,1.2.6,2-.2.5-.7.8-1.2.8q-.4,0-.7-.2Zm347.2-1c-.3-.7,0-1.6.7-2c.7-.3,1.5-.1,1.9.7.4.7.1,1.5-.6,1.9q-.3.2-.7.2c-.5,0-1-.3-1.3-.8ZM915.1,715.2c-.7-.5-.9-1.3-.5-2s1.3-.9,2-.5.9,1.3.5,2c-.3.4-.8.7-1.2.7q-.4,0-.8-.2Zm332.4-.9c-.4-.6-.2-1.5.4-1.9.7-.5,1.6-.3,2,.4.5.7.2,1.6-.4,2q-.4.2-.8.2c-.5,0-.9-.2-1.2-.7Zm-324-11.9c-.6-.5-.8-1.4-.3-2q0,0,0-.1c.5-.6,1.4-.7,2-.3.7.5.8,1.4.3,2-.2.4-.7.6-1.1.6q-.5,0-.9-.2Zm315.5-.7c-.5-.6-.3-1.5.3-2c.7-.5,1.6-.3,2,.3q.1,0,0,0c.5.7.4,1.6-.3,2-.2.2-.5.3-.8.3q-.8,0-1.2-.6ZM932.9,690.3c-.6-.6-.7-1.5-.1-2.1.5-.6,1.4-.7,2-.2.6.6.7,1.5.2,2.1-.3.3-.7.5-1.1.5q-.5,0-1-.3Zm296.7-.5c-.6-.6-.5-1.5.1-2c.6-.6,1.5-.5,2.1.1.5.6.4,1.5-.2,2.1q-.5.3-.9.3c-.4,0-.9-.2-1.1-.5ZM943.2,678.9c-.5-.5-.5-1.5,0-2c.6-.6,1.5-.6,2.1,0c.6.5.6,1.5,0,2-.3.3-.7.4-1,.4-.4,0-.8-.1-1.1-.4Zm276-.3c-.5-.5-.5-1.4,0-2c.6-.6,1.5-.6,2.1,0c.5.6.5,1.5,0,2-.3.3-.7.5-1.1.5-.3,0-.7-.2-1-.5ZM954.4,668.4c-.5-.6-.4-1.5.2-2s1.5-.5,2,.1.4,1.6-.2,2.1q-.4.3-.9.3c-.4,0-.8-.1-1.1-.5Zm253.6-.1c-.6-.5-.6-1.4-.1-2s1.4-.7,2-.2.7,1.5.2,2.1c-.3.3-.7.5-1.1.5s-.7-.1-1-.4Zm-241.7-9.5c-.4-.6-.3-1.5.4-2c.6-.5,1.5-.3,2,.3.5.7.3,1.6-.3,2q-.5.3-.9.3c-.4,0-.9-.2-1.2-.6Zm229.8.1c-.7-.5-.8-1.4-.3-2c.4-.7,1.3-.8,2-.3.6.4.8,1.3.3,2q-.5.6-1.2.6-.4,0-.8-.3ZM979,650.2c-.4-.7-.2-1.6.5-2s1.6-.2,2,.5.2,1.5-.5,2c-.2.1-.5.2-.7.2-.5,0-1-.2-1.3-.7Zm204.4.3c-.7-.5-.9-1.4-.5-2c.5-.7,1.4-.9,2-.5.7.4.9,1.3.5,2-.3.4-.7.7-1.2.7q-.4,0-.8-.2Zm-191.1-7.9c-.4-.7-.1-1.6.6-2q0,0,0,.1c.7-.4,1.6-.1,2,.6.3.7.1,1.6-.6,1.9q-.4.2-.7.2c-.5,0-1-.3-1.3-.8Zm177.8.4c-.7-.3-.9-1.2-.6-1.9.4-.7,1.2-1,1.9-.7.8.4,1.1,1.3.7,2-.3.5-.8.8-1.3.8q-.3,0-.7-.2Zm-164-6.9c-.2-.8.1-1.6.8-1.9.8-.3,1.6,0,1.9.8.3.7,0,1.5-.7,1.8q-.3.2-.6.2c-.6,0-1.1-.4-1.4-.9Zm150.2.6c-.7-.3-1.1-1.2-.8-1.9.3-.8,1.2-1.1,1.9-.8.8.3,1.1,1.1.8,1.9-.2.5-.8.9-1.3.9q-.3,0-.6-.1Zm-135.8-6.1c-.3-.7.1-1.5.9-1.8.8-.2,1.6.2,1.8.9.3.8-.1,1.6-.9,1.9q-.2,0-.4,0c-.7,0-1.2-.4-1.4-1Zm121.5.8c-.7-.2-1.1-1-.9-1.8s1.1-1.2,1.8-.9c.8.2,1.2,1,.9,1.8-.2.6-.7,1-1.3,1q-.3,0-.5-.1Zm-106.8-5c-.2-.8.3-1.6,1.1-1.8.7-.2,1.5.3,1.7,1.1s-.3,1.6-1.1,1.7q-.1.1-.3.1c-.7,0-1.2-.5-1.4-1.1Zm92.2.9c-.8-.2-1.3-1-1.1-1.7.2-.8,1-1.3,1.7-1.1.8.2,1.3,1,1.1,1.7-.1.7-.7,1.2-1.4,1.2q-.2,0-.3-.1Zm-77.2-4c-.1-.8.4-1.6,1.2-1.7s1.5.4,1.6,1.2c.2.8-.4,1.5-1.1,1.7q-.2,0-.3,0c-.7,0-1.3-.5-1.4-1.2Zm62.3,1.1c-.8-.1-1.4-.9-1.2-1.7.1-.8.8-1.3,1.6-1.2.8.2,1.3.9,1.2,1.7-.1.7-.7,1.2-1.4,1.2q-.1,0-.2,0Zm-47.1-3.1c-.1-.8.5-1.5,1.3-1.5.8-.1,1.5.5,1.6,1.3c0,.8-.6,1.5-1.3,1.6q-.1,0-.2,0c-.7,0-1.3-.6-1.4-1.4Zm31.9,1.3c-.7,0-1.3-.7-1.3-1.5.1-.8.8-1.4,1.6-1.4.8.1,1.4.8,1.3,1.6s-.7,1.3-1.4,1.3q-.1,0-.2,0Zm-16.6-2c0-.8.7-1.4,1.4-1.4.9,0,1.5.6,1.5,1.4s-.6,1.5-1.5,1.5c-.7,0-1.4-.7-1.4-1.5Z"/></g><g><path d="M1080.7,993.5c0-.9.8-1.7,1.7-1.7v.1q.1,0,.2,0t.2-.1c.9,0,1.7.8,1.7,1.7c0,1-.8,1.7-1.7,1.7q-.1,0-.2,0t-.2,0c-.9,0-1.7-.7-1.7-1.7Zm-13.7,1.1c-.9-.1-1.6-.9-1.6-1.8.1-1,.9-1.7,1.9-1.6.9.1,1.6.9,1.5,1.8s-.8,1.6-1.7,1.6q-.1,0-.1,0Zm29.4-1.6c-.1-.9.6-1.7,1.5-1.8s1.8.6,1.9,1.5c0,.9-.6,1.8-1.6,1.9q0,0-.1,0c-.9,0-1.6-.7-1.7-1.6Zm-44.7-.4c-.9-.2-1.6-1-1.4-1.9.1-1,1-1.6,1.9-1.4c1,.1,1.6,1,1.4,1.9-.1.9-.8,1.4-1.7,1.4q-.1,0-.2,0Zm59.9-1.4c-.2-1,.4-1.8,1.3-2c1-.1,1.8.5,2,1.4s-.5,1.8-1.4,1.9q-.1.1-.3.1c-.8,0-1.5-.6-1.6-1.4Zm-75-1.9c-.9-.2-1.5-1.1-1.2-2c.2-.9,1.2-1.5,2-1.2.9.2,1.5,1.1,1.3,2-.2.8-.9,1.3-1.7,1.3q-.2,0-.4-.1Zm89.9-1.3c-.2-.9.3-1.8,1.2-2c.9-.3,1.8.3,2.1,1.2.2.9-.3,1.8-1.2,2q-.2.1-.4.1c-.8,0-1.5-.5-1.7-1.3Zm-104.6-3.3q0,0,0,.1c-.9-.4-1.4-1.3-1.1-2.2s1.3-1.3,2.2-1s1.3,1.3,1,2.1c-.2.7-.9,1.2-1.6,1.2q-.3,0-.5-.2Zm119.3-1.1c-.3-.9.1-1.8,1-2.1.8-.4,1.8.1,2.1,1c.4.8-.1,1.8-1,2.1q-.3.1-.5.1c-.7,0-1.4-.4-1.6-1.1Zm-133.6-4.7c-.9-.4-1.3-1.4-.9-2.2.4-.9,1.4-1.2,2.3-.8.8.3,1.2,1.3.8,2.2-.3.6-.9,1-1.6,1q-.3,0-.6-.2Zm147.8-1c-.4-.8-.1-1.8.8-2.2.8-.4,1.8,0,2.2.8.4.9,0,1.9-.8,2.2q-.4.2-.7.2c-.7,0-1.3-.3-1.5-1Zm-161.6-6c-.8-.5-1.1-1.5-.6-2.3.4-.8,1.5-1.1,2.3-.7.8.5,1.1,1.5.6,2.3-.3.6-.9.9-1.5.9q-.4,0-.8-.2Zm175.2-.8c-.5-.9-.2-1.9.6-2.3.8-.5,1.9-.2,2.3.6.5.8.2,1.8-.6,2.3q-.4.2-.8.2c-.6,0-1.2-.3-1.5-.8Zm-188.3-7.4c-.7-.6-.9-1.6-.4-2.4.5-.7,1.6-.9,2.3-.4.8.5,1,1.6.5,2.3-.3.5-.9.8-1.4.8q-.5,0-1-.3ZM1182,963c-.5-.7-.3-1.8.4-2.3.8-.5,1.9-.4,2.4.4s.3,1.8-.4,2.4q-.5.3-1,.3c-.5,0-1.1-.3-1.4-.8Zm-213.6-8.6c-.7-.6-.8-1.7-.2-2.4s1.6-.8,2.4-.2c.7.6.8,1.6.2,2.4-.3.4-.8.6-1.3.6q-.6,0-1.1-.4Zm225.9-.5c-.6-.7-.5-1.8.2-2.4s1.8-.5,2.4.3c.6.7.5,1.7-.2,2.3-.3.3-.7.4-1.1.4-.5,0-1-.2-1.3-.6Zm-237.4-9.8c-.6-.7-.6-1.8,0-2.4.6-.7,1.7-.7,2.4-.1.7.7.7,1.8,0,2.4-.3.4-.7.5-1.2.5-.4,0-.8-.1-1.2-.4Zm248.8-.3c-.6-.7-.6-1.7.1-2.4.6-.7,1.7-.7,2.3,0c.7.7.7,1.8,0,2.4-.3.3-.7.5-1.2.5-.4,0-.8-.2-1.2-.5Zm-259.3-11c-.6-.7-.6-1.8.2-2.4.6-.6,1.7-.5,2.3.2s.6,1.8-.1,2.4c-.4.3-.8.4-1.1.4-.5,0-1-.2-1.3-.6Zm269.9-.1c-.7-.6-.8-1.7-.2-2.4s1.7-.8,2.4-.1c.7.5.8,1.6.2,2.3-.4.4-.9.6-1.3.6q-.6,0-1.1-.4Zm-279.5-12c-.5-.8-.4-1.8.4-2.4.7-.5,1.8-.3,2.3.4.6.8.4,1.8-.3,2.4q-.5.3-1,.3c-.5,0-1.1-.2-1.4-.7Zm289,.1c-.7-.6-.9-1.6-.3-2.4.5-.7,1.6-.9,2.3-.4.8.6.9,1.6.4,2.4-.3.5-.9.7-1.4.7q-.5,0-1-.3Zm-297.5-13c-.5-.8-.2-1.8.6-2.3s1.9-.2,2.3.6c.5.8.2,1.8-.6,2.3q-.4.2-.8.2c-.6,0-1.2-.3-1.5-.8Zm306,.3c-.8-.5-1-1.5-.6-2.4.5-.7,1.6-1,2.4-.5.8.4,1,1.5.6,2.3-.4.5-.9.8-1.5.8q-.4,0-.9-.2ZM921,894.2c-.4-.8-.1-1.8.8-2.2.8-.4,1.8-.1,2.2.8.4.8.1,1.8-.8,2.2q-.3.2-.7.2c-.6,0-1.2-.4-1.5-1Zm320.7.5c-.8-.4-1.2-1.5-.8-2.3s1.5-1.2,2.3-.8s1.2,1.4.8,2.3c-.3.6-.9.9-1.6.9q-.3,0-.7-.1ZM914.8,880.1c-.3-.9.1-1.9,1-2.2s1.9.1,2.2,1c.3.8-.1,1.8-1,2.2q-.3.1-.6.1c-.7,0-1.3-.4-1.6-1.1Zm333.1.6c-.9-.4-1.3-1.3-1-2.2.4-.9,1.3-1.3,2.2-1s1.3,1.3,1,2.2c-.3.7-.9,1.1-1.6,1.1q-.3,0-.6-.1Zm-338-15.2c-.2-.9.3-1.9,1.2-2.1.9-.3,1.8.2,2.1,1.1.2.9-.3,1.8-1.2,2.1q-.2.1-.4.1c-.8,0-1.5-.5-1.7-1.2Zm343,.7c-.9-.2-1.4-1.2-1.2-2.1.3-.9,1.2-1.4,2.1-1.1.9.2,1.4,1.1,1.1,2.1-.2.7-.8,1.2-1.6,1.2q-.2,0-.4-.1ZM906.3,850.5c-.1-1,.5-1.9,1.4-2c.9-.2,1.8.4,1.9,1.3.2.9-.4,1.8-1.3,2q-.2,0-.3,0c-.8,0-1.5-.5-1.7-1.3Zm350.3.9c-1-.2-1.6-1.1-1.4-2s1.1-1.5,2-1.3c.9.1,1.5,1,1.3,1.9-.1.9-.8,1.4-1.6,1.4q-.2,0-.3,0ZM904,835.2c-.1-.9.6-1.8,1.5-1.9s1.8.6,1.9,1.5c.1,1-.6,1.8-1.5,1.9q-.1,0-.2,0c-.9,0-1.6-.6-1.7-1.5Zm354.9,1.1c-.9-.1-1.6-1-1.5-1.9s1-1.6,1.9-1.5s1.6.9,1.5,1.9c-.1.9-.8,1.5-1.7,1.5q-.1,0-.2,0ZM903,819.8c0-.9.7-1.7,1.7-1.7.9-.1,1.7.7,1.7,1.6s-.7,1.7-1.7,1.8c-.9,0-1.7-.8-1.7-1.7Zm357,1.2c-.9,0-1.6-.8-1.6-1.7s.8-1.7,1.7-1.6c.9,0,1.7.7,1.7,1.7-.1.9-.8,1.6-1.7,1.6q-.1,0-.1,0ZM904.9,806.2c-.9-.1-1.6-.9-1.5-1.8c0-1,.8-1.7,1.7-1.6c1,.1,1.7.8,1.6,1.8c0,.9-.8,1.6-1.7,1.6q0,0-.1,0Zm353.1-2c0-1,.7-1.8,1.6-1.8.9-.1,1.8.6,1.8,1.6.1.9-.6,1.7-1.6,1.7q0,0-.1,0c-.9,0-1.6-.6-1.7-1.5ZM906.4,791c-.9-.2-1.6-1.1-1.4-2c.1-.9,1-1.5,1.9-1.4s1.5,1,1.4,1.9-.8,1.5-1.7,1.5q-.1,0-.2,0Zm350-1.9c-.1-.9.5-1.8,1.4-1.9s1.8.5,1.9,1.4c.2.9-.4,1.8-1.4,1.9q-.1.1-.2,0c-.9,0-1.6-.6-1.7-1.4ZM909.2,775.9c-.9-.2-1.5-1.1-1.3-2s1.1-1.5,2.1-1.3c.9.2,1.4,1.2,1.2,2.1-.2.7-.9,1.3-1.6,1.3q-.2,0-.4-.1Zm344.3-1.6c-.2-.9.3-1.9,1.2-2.1s1.8.4,2.1,1.3c.2.9-.4,1.8-1.3,2q-.2.1-.4.1c-.7,0-1.4-.6-1.6-1.3ZM913.2,761.2c-.9-.3-1.3-1.3-1-2.2.3-.8,1.2-1.3,2.1-1s1.4,1.2,1.1,2.1c-.3.7-.9,1.2-1.6,1.2q-.3,0-.6-.1Zm336.1-1.5c-.3-.9.2-1.8,1.1-2.1.8-.3,1.8.2,2.1,1c.3.9-.2,1.9-1.1,2.2q-.2.1-.5.1c-.7,0-1.4-.5-1.6-1.2ZM918.6,746.8c-.9-.3-1.3-1.3-.9-2.2.3-.8,1.3-1.2,2.2-.9.9.4,1.2,1.4.9,2.3-.3.6-.9,1-1.6,1q-.3,0-.6-.2Zm325.2-1.2h.1c-.4-.9,0-1.9.8-2.2.9-.4,1.9,0,2.2.8.4.9,0,1.9-.8,2.3q-.4.1-.7.1c-.7,0-1.3-.4-1.6-1ZM925.1,733c-.8-.4-1.1-1.5-.7-2.3.5-.8,1.5-1.1,2.3-.7.8.5,1.1,1.5.7,2.3-.3.6-.9.9-1.5.9q-.4,0-.8-.2Zm312.1-1c-.4-.8-.1-1.9.7-2.3s1.8-.1,2.3.7c.4.8.1,1.8-.7,2.3q-.4.2-.8.2c-.6,0-1.2-.3-1.5-.9ZM932.8,719.8c-.8-.5-1-1.6-.5-2.3.5-.8,1.6-1,2.4-.5s1,1.5.4,2.3c-.3.5-.8.8-1.4.8q-.5,0-.9-.3Zm296.6-.8c-.5-.8-.3-1.8.5-2.3s1.8-.3,2.3.5c.5.7.3,1.8-.4,2.3-.3.2-.7.3-1,.3-.5,0-1-.3-1.4-.8ZM941.6,707.3c-.7-.6-.8-1.6-.2-2.4.5-.7,1.6-.8,2.3-.2.7.5.9,1.6.3,2.3-.3.5-.8.7-1.3.7q-.6,0-1.1-.4Zm278.9-.6c-.5-.7-.4-1.8.3-2.3.8-.6,1.8-.5,2.4.3.6.7.5,1.7-.3,2.3-.3.3-.7.4-1,.4-.5,0-1-.2-1.4-.7Zm-269-11.1c-.7-.6-.7-1.7-.1-2.4s1.7-.7,2.4,0c.7.6.7,1.7.1,2.3-.4.4-.8.6-1.3.6q-.6,0-1.1-.5Zm259.2-.3c-.7-.7-.6-1.8,0-2.4.7-.7,1.8-.6,2.4.1.7.6.6,1.7-.1,2.3-.3.3-.7.5-1.1.5-.5,0-.9-.2-1.2-.5ZM962.3,684.8c-.6-.7-.6-1.8.1-2.4s1.8-.5,2.4.1c.6.7.6,1.8-.1,2.4-.3.3-.7.5-1.1.5-.5,0-1-.2-1.3-.6Zm237.5-.1c-.7-.6-.7-1.7-.1-2.4s1.7-.7,2.4-.1.7,1.7.1,2.4c-.3.3-.8.5-1.3.5-.4,0-.8-.1-1.1-.4ZM974,675c-.6-.8-.4-1.8.3-2.4.8-.6,1.8-.4,2.4.3.6.8.4,1.8-.3,2.4-.3.2-.7.3-1,.3-.6,0-1.1-.2-1.4-.6Zm214.1.1c-.7-.6-.9-1.6-.3-2.4.6-.7,1.6-.9,2.3-.3.8.5.9,1.6.4,2.4-.4.4-.9.6-1.4.6q-.5,0-1-.3Zm-201.6-8.9c-.5-.8-.3-1.9.5-2.4s1.9-.2,2.4.6.2,1.8-.6,2.3q-.4.3-.9.3c-.5,0-1.1-.3-1.4-.8Zm189.1.3c-.8-.5-1-1.5-.5-2.3s1.5-1.1,2.3-.6s1.1,1.6.6,2.4c-.4.5-.9.8-1.5.8q-.4,0-.9-.3Zm-175.9-8c-.4-.9-.1-1.9.7-2.3.9-.4,1.9-.1,2.3.7.4.9.1,1.9-.7,2.3q-.4.2-.8.2c-.6,0-1.2-.4-1.5-.9Zm162.8.5c-.9-.4-1.2-1.4-.8-2.2.5-.9,1.5-1.2,2.3-.8s1.2,1.5.7,2.3c-.3.6-.9.9-1.5.9q-.4,0-.7-.2Zm-149-7.1c-.3-.8.1-1.8.9-2.2.9-.3,1.9.1,2.2,1c.4.8,0,1.8-.9,2.2q-.3.1-.6.1c-.7,0-1.3-.4-1.6-1.1Zm135.2.8c-.9-.3-1.3-1.3-.9-2.2.3-.9,1.3-1.3,2.2-.9.8.3,1.2,1.3.9,2.2-.3.6-.9,1-1.6,1q-.3,0-.6-.1Zm-120.8-6.1c-.3-.9.2-1.8,1.1-2.1s1.8.2,2.1,1.1-.2,1.9-1.1,2.1q-.3.1-.5.1c-.7,0-1.4-.4-1.6-1.2Zm106.5,1c-.9-.3-1.4-1.2-1.1-2.1s1.2-1.4,2.1-1.1s1.4,1.2,1.1,2.1c-.2.7-.9,1.2-1.6,1.2q-.2,0-.5-.1Zm-91.8-5c-.2-.9.4-1.8,1.3-2s1.8.3,2,1.3c.2.9-.4,1.8-1.3,2q-.2,0-.3,0c-.8,0-1.5-.5-1.7-1.3Zm77.2,1.2c-.9-.2-1.5-1.1-1.3-2s1.1-1.5,2-1.3s1.5,1.1,1.3,2c-.2.8-.9,1.3-1.7,1.3q-.2,0-.3,0Zm-62.2-4c-.1-.9.6-1.8,1.5-1.9s1.8.6,1.9,1.5-.5,1.7-1.5,1.9q-.1,0-.2,0c-.8,0-1.5-.6-1.7-1.5Zm47.3,1.4c-1-.1-1.6-.9-1.5-1.9.1-.9.9-1.6,1.9-1.4.9.1,1.6.9,1.4,1.9-.1.8-.8,1.4-1.6,1.4q-.1,0-.2,0Zm-32-2.8c-.1-1,.6-1.8,1.6-1.8.9-.1,1.7.7,1.7,1.6.1.9-.7,1.7-1.6,1.8q0,0-.1,0c-.9,0-1.6-.7-1.6-1.6Zm15.2-.2c.1-.9.9-1.7,1.8-1.6.9,0,1.7.8,1.6,1.7c0,1-.8,1.7-1.7,1.6v.1c-1-.1-1.7-.9-1.7-1.8Z"/></g><g><path d="M1080.5,976c0-1,.8-1.9,1.9-1.9q.1,0,.2,0t.1,0h.1c1,0,1.9.9,1.9,1.9c0,1.1-.9,2-1.9,2q-.1,0-.2,0t-.2,0c-1.1,0-1.9-.9-1.9-2Zm-13.3,1.3c-1.1-.1-1.8-1.1-1.7-2.1.1-1.1,1-1.9,2.1-1.8c1,.1,1.8,1.1,1.7,2.1s-.9,1.8-1.9,1.8q-.1,0-.2,0Zm28.6-1.8c-.1-1.1.7-2,1.8-2.1c1-.1,2,.7,2.1,1.7.1,1.1-.7,2-1.8,2.1q-.1.1-.1.1c-1,0-1.9-.8-2-1.8Zm-43.6-.3c-1.1-.2-1.8-1.2-1.6-2.3.2-1,1.2-1.7,2.3-1.5c1,.2,1.7,1.2,1.5,2.2s-1,1.6-1.9,1.6q-.2,0-.3,0Zm58.5-1.6c-.2-1.1.5-2.1,1.6-2.3c1-.2,2,.5,2.2,1.5.2,1.1-.5,2.1-1.5,2.3q-.2,0-.4,0c-.9,0-1.7-.6-1.9-1.5Zm-73.3-2c-1-.2-1.6-1.3-1.3-2.3.3-1.1,1.3-1.6,2.3-1.4c1.1.3,1.7,1.4,1.4,2.4-.3.9-1,1.4-1.9,1.4q-.3,0-.5-.1Zm88-1.4c-.3-1,.2-2.1,1.3-2.4c1-.3,2.1.3,2.4,1.4.3,1-.3,2.1-1.3,2.4q-.3,0-.6,0c-.8,0-1.6-.5-1.8-1.4ZM1023,966.7c-1-.3-1.5-1.5-1.1-2.4.4-1,1.5-1.5,2.5-1.1c1,.3,1.5,1.5,1.1,2.5-.3.7-1,1.2-1.8,1.2q-.4,0-.7-.2Zm116.6-1.2c-.4-.9.1-2.1,1.1-2.5s2.1.1,2.5,1.1-.1,2.1-1.1,2.5q-.3.2-.7.1c-.7,0-1.5-.4-1.8-1.2Zm-130.5-5c-.9-.5-1.3-1.6-.8-2.6.5-.9,1.6-1.3,2.6-.8.9.5,1.3,1.6.8,2.6-.3.6-1,1-1.7,1q-.5,0-.9-.2Zm144.3-1c-.5-.9-.1-2.1.8-2.6c1-.5,2.1-.1,2.6.9.5.9.1,2.1-.8,2.6q-.4.2-.9.2c-.7,0-1.4-.4-1.7-1.1ZM995.9,953c-.9-.5-1.2-1.7-.6-2.6s1.8-1.2,2.7-.6c.9.5,1.1,1.7.6,2.6-.4.6-1,.9-1.7.9q-.5,0-1-.3Zm170.6-.8c-.5-.9-.3-2.1.6-2.6.9-.6,2.1-.3,2.7.6s.3,2.1-.6,2.6c-.3.2-.7.3-1.1.3-.6,0-1.2-.3-1.6-.9Zm-183-7.9c-.9-.6-1-1.9-.4-2.7s1.9-1,2.7-.3c.8.6,1,1.8.4,2.7-.4.4-1,.7-1.6.7q-.6,0-1.1-.4Zm195.4-.5c-.6-.9-.5-2.1.3-2.8.9-.6,2.1-.5,2.8.4.6.8.4,2-.4,2.7q-.5.4-1.2.4c-.5,0-1.1-.3-1.5-.7Zm-207-9.3c-.8-.7-.9-2-.1-2.7.7-.8,1.9-.9,2.7-.1.8.7.8,1.9.1,2.7-.4.4-.9.6-1.4.6s-1-.2-1.3-.5Zm218.6-.4c-.8-.7-.7-2,0-2.7.8-.7,2-.7,2.8.1.7.8.7,2-.1,2.7-.4.4-.9.5-1.3.5-.6,0-1.1-.2-1.4-.6ZM961.2,923.6c-.7-.8-.6-2,.2-2.7s2-.6,2.7.1c.7.8.7,2-.1,2.8q-.6.5-1.3.4-.9,0-1.5-.6Zm239.8-.1c-.7-.7-.8-1.9-.1-2.7s1.9-.9,2.7-.2.9,1.9.2,2.7c-.4.5-.9.7-1.5.7q-.7,0-1.3-.5ZM951.7,911.8c-.7-.9-.5-2.1.4-2.7.8-.6,2.1-.4,2.7.4.6.9.4,2.1-.4,2.7-.4.3-.8.4-1.2.4-.6,0-1.2-.3-1.5-.8Zm258.9.1c-.8-.6-1-1.8-.4-2.7.6-.8,1.8-1,2.7-.4s1.1,1.8.4,2.7c-.4.5-.9.8-1.5.8-.4,0-.8-.1-1.2-.4ZM943.3,899.1c-.6-.9-.3-2.1.6-2.6.9-.6,2.1-.2,2.7.7.5.9.2,2.1-.7,2.6q-.5.3-1,.3c-.6,0-1.3-.4-1.6-1Zm275.8.4c-.9-.5-1.3-1.7-.7-2.6.5-1,1.7-1.2,2.7-.7.9.5,1.1,1.7.6,2.6-.3.6-1,1-1.7,1q-.5,0-.9-.3Zm-283-13.7c-.5-1-.1-2.1.9-2.6.9-.5,2.1-.1,2.5.9.5,1,.1,2.1-.9,2.6q-.4.2-.8.2c-.7,0-1.4-.4-1.7-1.1Zm290.2.6c-.9-.5-1.4-1.7-.9-2.6.5-1,1.6-1.4,2.6-.9.9.4,1.3,1.6.9,2.5-.3.7-1,1.1-1.8,1.1q-.4,0-.8-.1ZM930.2,871.8c-.4-1,.1-2.2,1.1-2.5c1-.4,2.1.1,2.5,1.1.3,1-.2,2.1-1.2,2.5q-.3.1-.7.1c-.7,0-1.5-.5-1.7-1.2Zm302.1.8c-1-.4-1.5-1.5-1.2-2.5.4-1,1.5-1.5,2.5-1.2c1,.4,1.5,1.5,1.2,2.5-.3.8-1.1,1.3-1.8,1.3q-.4,0-.7-.1ZM925.6,857.3c-.3-1.1.3-2.1,1.4-2.4c1-.3,2,.4,2.3,1.4s-.3,2.1-1.4,2.4q-.2,0-.4,0c-.9,0-1.7-.6-1.9-1.4Zm311.3,1c-1-.3-1.6-1.3-1.3-2.4.2-1,1.3-1.6,2.3-1.3c1,.2,1.7,1.3,1.4,2.3-.2.9-1,1.4-1.9,1.4q-.2,0-.5,0ZM922.4,842.4c-.2-1,.5-2,1.6-2.2c1-.2,2,.5,2.2,1.6.2,1-.5,2-1.6,2.2q-.1,0-.3,0c-.9,0-1.7-.6-1.9-1.6Zm317.8,1.2c-1-.1-1.7-1.1-1.6-2.2.2-1,1.2-1.8,2.2-1.6c1.1.2,1.8,1.2,1.6,2.2-.1,1-.9,1.7-1.9,1.7q-.1,0-.3-.1ZM920.6,827.3c0-1,.8-2,1.8-2c1.1-.1,2,.7,2.1,1.7.1,1.1-.7,2-1.8,2.1q-.1,0-.1,0c-1.1,0-1.9-.8-2-1.8Zm321.5,1.4c-1.1,0-1.9-1-1.8-2c.1-1.1,1-1.9,2.1-1.8c1,.1,1.8,1,1.8,2.1-.1,1-.9,1.7-1.9,1.7q-.1.1-.2,0ZM922.2,814.1c-1.1,0-1.9-.9-1.9-2c0-1,.9-1.9,1.9-1.9c1.1.1,2,.9,1.9,2c0,1.1-.9,1.9-1.9,1.9Zm318.4-2.3c0-1,.8-1.9,1.9-1.9c1.1-.1,2,.8,2,1.9c0,1-.8,1.9-1.9,1.9s-1.9-.8-2-1.9ZM923,799.1c-1-.1-1.8-1.1-1.7-2.1.2-1.1,1.1-1.9,2.2-1.7c1,.1,1.8,1.1,1.7,2.1-.2,1-1,1.7-2,1.7q-.1,0-.2,0Zm316.6-2.1c-.1-1,.6-2,1.7-2.1c1-.1,2,.6,2.1,1.7.1,1-.6,2-1.7,2.1q-.1,0-.2,0c-1,0-1.8-.7-1.9-1.7ZM925.3,784.3c-1.1-.3-1.7-1.3-1.5-2.3.2-1.1,1.2-1.7,2.3-1.5c1,.2,1.7,1.2,1.4,2.3-.1.9-.9,1.5-1.8,1.5q-.2,0-.4,0Zm311.8-1.9c-.2-1,.5-2.1,1.5-2.3c1.1-.2,2.1.5,2.3,1.5.2,1.1-.4,2.1-1.5,2.3q-.2,0-.4,0c-.9,0-1.7-.6-1.9-1.5ZM928.9,769.7c-1-.3-1.6-1.4-1.3-2.4.4-1,1.4-1.6,2.5-1.3c1,.3,1.5,1.4,1.2,2.4-.2.8-1,1.4-1.8,1.4q-.3,0-.6-.1Zm304.5-1.6c-.4-1,.2-2.1,1.2-2.4c1-.4,2.1.2,2.4,1.2.4,1-.2,2.1-1.2,2.4q-.3.1-.6.1c-.8,0-1.6-.5-1.8-1.3ZM933.9,755.5c-1-.4-1.5-1.5-1-2.5.4-1,1.5-1.4,2.5-1s1.4,1.5,1,2.5c-.3.7-1,1.2-1.8,1.2q-.3,0-.7-.2Zm294.3-1.3c-.4-1,.1-2.1,1.1-2.6.9-.4,2.1.1,2.5,1.1.4.9-.1,2.1-1,2.5q-.4.1-.8.1c-.7,0-1.5-.4-1.8-1.1Zm-288-12.3c-.9-.5-1.3-1.7-.8-2.6.5-1,1.7-1.3,2.6-.8c1,.5,1.3,1.7.8,2.6-.3.7-1,1-1.7,1q-.5,0-.9-.2Zm281.6-1.1c-.5-1-.2-2.1.8-2.6.9-.5,2.1-.2,2.6.8.5.9.2,2.1-.8,2.6q-.4.2-.9.2c-.7,0-1.3-.4-1.7-1Zm-274-11.9c-.9-.6-1.2-1.8-.6-2.7s1.8-1.1,2.7-.5s1.1,1.8.5,2.7c-.3.5-1,.8-1.6.8q-.5,0-1-.3Zm266.4-.8c-.6-.9-.4-2.1.5-2.7s2.1-.4,2.7.5.3,2.1-.6,2.7q-.5.3-1,.3c-.7,0-1.3-.3-1.6-.8ZM956.5,716.7c-.8-.7-1-1.9-.3-2.7.7-.9,1.9-1,2.7-.3s1,1.9.3,2.7c-.4.5-.9.7-1.5.7q-.6,0-1.2-.4Zm248.8-.6c-.6-.8-.5-2,.3-2.7.9-.6,2.1-.5,2.7.3.7.8.6,2-.2,2.7q-.6.5-1.2.4c-.6,0-1.2-.2-1.6-.7Zm-239-10.8c-.7-.7-.7-1.9,0-2.7.7-.7,2-.8,2.7,0c.8.7.8,1.9.1,2.7-.4.4-.9.6-1.4.6s-1-.2-1.4-.6Zm229.2-.2c-.8-.8-.8-2,0-2.8.8-.7,2-.7,2.7.1.8.7.8,1.9,0,2.7-.4.4-.9.5-1.3.5-.5,0-1-.2-1.4-.5ZM977.2,695c-.7-.8-.6-2.1.2-2.8.8-.6,2-.5,2.7.3s.6,2-.2,2.7c-.4.3-.8.4-1.2.4q-.9,0-1.5-.6Zm207.4,0c-.8-.7-.9-1.9-.2-2.8.7-.8,1.9-.9,2.7-.2s.9,1.9.2,2.7c-.4.5-.9.7-1.5.7-.4,0-.8-.1-1.2-.4ZM989,685.6c-.6-.8-.4-2,.4-2.6.9-.7,2.1-.5,2.7.4s.4,2.1-.5,2.7h.1q-.6.4-1.2.4c-.6,0-1.2-.3-1.5-.9Zm183.8.3c-.8-.6-1-1.8-.4-2.7.6-.8,1.8-1.1,2.7-.5.8.7,1,1.9.4,2.7-.3.6-.9.8-1.6.8-.3,0-.7,0-1.1-.3Zm-171.2-8.4c-.6-1-.3-2.2.7-2.7.9-.5,2.1-.2,2.6.7.5,1,.2,2.1-.7,2.7q-.5.2-1,.2c-.6,0-1.3-.3-1.6-.9Zm158.7.5c-.9-.5-1.3-1.7-.7-2.6.5-1,1.7-1.3,2.6-.8.9.6,1.2,1.8.7,2.7-.3.6-1,.9-1.7.9q-.5,0-.9-.2Zm-145.5-7.5c-.4-1,0-2.1,1-2.6c1-.4,2.1,0,2.6,1c.4,1,0,2.1-1,2.6q-.4.1-.8.1c-.7,0-1.4-.4-1.8-1.1Zm132.2.8c-.9-.4-1.3-1.6-.9-2.5.4-1,1.6-1.5,2.5-1c1,.4,1.4,1.5,1,2.5-.3.7-1,1.2-1.8,1.2q-.3,0-.8-.2Zm-118.3-6.5c-.3-1,.3-2.1,1.3-2.5c1-.3,2.1.2,2.4,1.2.4,1.1-.2,2.1-1.2,2.5q-.3.1-.6.1c-.8,0-1.6-.5-1.9-1.3Zm104.5,1.1c-1-.4-1.5-1.5-1.2-2.5.4-1,1.5-1.5,2.5-1.2c1,.4,1.5,1.5,1.2,2.5-.3.8-1,1.3-1.8,1.3q-.4,0-.7-.1Zm-90.1-5.5c-.2-1,.4-2,1.5-2.3c1-.2,2,.4,2.3,1.4.2,1.1-.4,2.1-1.5,2.4q-.2,0-.4,0c-.9,0-1.7-.6-1.9-1.5Zm75.9,1.4c-1-.3-1.7-1.3-1.5-2.3.3-1.1,1.3-1.7,2.4-1.5c1,.3,1.7,1.3,1.4,2.4-.2.8-1,1.4-1.9,1.4q-.2,0-.4,0Zm-61.2-4.3c-.1-1.1.6-2.1,1.7-2.2c1-.2,2,.6,2.2,1.6.1,1.1-.6,2-1.7,2.2q-.1,0-.3,0c-.9,0-1.7-.7-1.9-1.6Zm46.6,1.5c-1.1-.1-1.8-1.1-1.6-2.1.1-1.1,1.1-1.8,2.1-1.7c1.1.2,1.8,1.2,1.7,2.2s-1,1.7-1.9,1.7q-.2,0-.3-.1Zm-31.6-3.1c-.1-1.1.7-2,1.8-2c1.1-.1,2,.7,2,1.8.1,1.1-.7,2-1.8,2q-.1,0-.1,0c-1,0-1.9-.8-1.9-1.8Zm16.8,1.8c-1,0-1.9-.9-1.8-2c0-1.1.9-1.9,2-1.9c1.1.1,1.9,1,1.8,2.1c0,1-.9,1.8-1.9,1.8q0,0-.1,0Z"/></g><g><path d="M1080.2,958.6c0-1.2,1-2.2,2.2-2.2q.1,0,.1,0q.1,0,.2,0c1.2,0,2.2,1,2.2,2.1c0,1.2-1,2.2-2.2,2.2q-.1,0-.2,0q0,0-.1,0c-1.2,0-2.2-.9-2.2-2.1Zm-13,1.3c-1.1-.1-2-1.1-1.9-2.3s1.2-2.1,2.4-2c1.2.2,2.1,1.2,1.9,2.4-.1,1.1-1,2-2.1,2q-.1,0-.3-.1Zm28.3-1.9c-.2-1.2.7-2.3,1.9-2.4s2.3.7,2.4,1.9-.8,2.3-2,2.4q-.1,0-.2,0c-1.1,0-2-.8-2.1-1.9Zm-43.2-.4c-1.2-.2-2-1.4-1.7-2.6.2-1.2,1.4-1.9,2.6-1.7c1.1.3,1.9,1.4,1.6,2.6-.2,1-1.1,1.7-2.1,1.7q-.2,0-.4,0Zm58-1.7c-.3-1.2.4-2.4,1.6-2.6c1.2-.3,2.3.5,2.6,1.7.2,1.1-.5,2.3-1.7,2.5q-.2.1-.4.1c-1,0-1.9-.7-2.1-1.7Zm-72.7-2.2c-1.1-.4-1.7-1.6-1.4-2.8.4-1.1,1.6-1.7,2.8-1.3c1.1.3,1.7,1.5,1.4,2.7-.3.9-1.2,1.5-2.1,1.5q-.3,0-.7-.1Zm87.1-1.5c-.3-1.2.3-2.4,1.4-2.7c1.2-.4,2.4.2,2.7,1.4.4,1.1-.2,2.3-1.3,2.7q-.4.1-.7.1c-.9,0-1.8-.6-2.1-1.5Zm-101.2-4c-1.1-.5-1.6-1.7-1.1-2.8s1.7-1.6,2.8-1.1s1.6,1.7,1.1,2.8c-.3.9-1.1,1.3-2,1.3q-.4,0-.8-.2Zm115.2-1.2c-.5-1.1,0-2.4,1.1-2.8c1.1-.5,2.4,0,2.9,1c.5,1.1,0,2.4-1.1,2.9q-.4.2-.9.2c-.8,0-1.6-.5-2-1.3Zm-128.8-5.6q0,0,0-.1c-1-.6-1.3-1.9-.7-2.9.6-1.1,1.9-1.4,2.9-.8c1.1.6,1.4,1.9.8,2.9-.4.7-1.1,1.1-1.9,1.1q-.5.1-1.1-.2Zm142.2-1c-.6-1-.2-2.4.8-3c1.1-.6,2.4-.2,3,.8.6,1.1.2,2.4-.8,3q-.5.3-1.1.3c-.7,0-1.5-.4-1.9-1.1Zm-154.9-7.3c-.9-.7-1.1-2.1-.4-3c.7-1,2-1.2,3-.5.9.7,1.2,2,.5,3q-.8.9-1.8.9-.7,0-1.3-.4Zm167.6-.7c-.8-.9-.5-2.3.4-3c1-.7,2.4-.5,3.1.5.7.9.4,2.3-.5,3q-.6.4-1.3.4c-.7,0-1.3-.3-1.7-.9Zm-179.4-8.9c-.8-.8-.9-2.1-.1-3s2.2-1,3.1-.2c.8.8.9,2.2.1,3.1-.4.4-1,.7-1.6.7q-.8,0-1.5-.6Zm191.1-.3c-.8-.9-.7-2.3.1-3.1.9-.8,2.3-.7,3.1.2s.7,2.2-.1,3q-.8.6-1.5.6c-.6,0-1.2-.3-1.6-.7ZM974.7,912.8c-.8-.9-.7-2.3.2-3.1s2.2-.7,3,.2c.9.9.8,2.3-.1,3.1-.4.3-.9.5-1.5.5s-1.1-.2-1.6-.7Zm212.5-.1c-.9-.7-1-2.1-.2-3s2.2-1,3.1-.2s1,2.2.2,3.1c-.5.5-1.1.7-1.7.7-.5,0-1-.2-1.4-.6ZM965.2,901c-.7-.9-.5-2.3.5-3c.9-.7,2.3-.5,3,.5s.5,2.3-.5,3q-.6.4-1.3.4c-.6,0-1.3-.3-1.7-.9Zm231.5.3c-.9-.7-1.1-2.1-.4-3.1.7-.9,2-1.1,3-.4s1.2,2,.5,3q-.8.9-1.8.9-.7,0-1.3-.4Zm-239.8-13c-.6-1-.2-2.3.8-2.9s2.4-.3,3,.8c.6,1,.2,2.3-.8,2.9-.4.2-.8.3-1.1.3-.8,0-1.5-.4-1.9-1.1Zm248.2.6c-1.1-.6-1.4-2-.8-3s1.9-1.4,2.9-.8c1.1.6,1.4,1.9.8,3-.4.7-1.1,1.1-1.8,1.1q-.6,0-1.1-.3ZM950,874.8c-.5-1.1,0-2.4,1.1-2.8c1.1-.5,2.4,0,2.9,1.1s0,2.3-1.1,2.8q-.5.2-.9.2c-.8,0-1.6-.5-2-1.3Zm262,.8c-1.1-.4-1.6-1.7-1.1-2.8s1.8-1.6,2.9-1.1s1.6,1.7,1.1,2.8c-.3.9-1.2,1.3-2,1.3q-.4,0-.9-.2ZM944.6,860.7c-.4-1.2.2-2.4,1.4-2.8c1.1-.3,2.3.3,2.7,1.4.4,1.2-.3,2.4-1.4,2.8q-.3.1-.7.1c-.9,0-1.7-.6-2-1.5Zm273,1.1c-1.2-.4-1.8-1.6-1.4-2.8.4-1.1,1.6-1.7,2.7-1.4c1.2.4,1.8,1.6,1.4,2.8-.3.9-1.1,1.5-2,1.5q-.4,0-.7-.1ZM940.6,846c-.2-1.1.6-2.3,1.7-2.6c1.2-.2,2.3.5,2.6,1.7.2,1.2-.5,2.3-1.7,2.6q-.2,0-.4.1c-1,0-1.9-.7-2.2-1.8Zm281,1.4c-1.1-.2-1.9-1.4-1.6-2.6.2-1.2,1.4-1.9,2.5-1.7c1.2.3,1.9,1.4,1.7,2.6-.2,1-1.1,1.7-2.1,1.7q-.2,0-.5,0ZM938.3,831c-.1-1.2.7-2.2,1.9-2.3c1.2-.2,2.3.7,2.4,1.9s-.7,2.3-1.9,2.4q-.1,0-.3,0c-1.1,0-2-.8-2.1-2Zm285.9,1.7c-1.2-.2-2.1-1.2-2-2.4s1.2-2.1,2.4-2c1.2.2,2.1,1.2,1.9,2.4-.1,1.2-1,2-2.1,2q-.1,0-.2,0ZM937.5,815.9c0-1.2,1-2.2,2.2-2.2s2.1,1,2.1,2.2-.9,2.2-2.1,2.2-2.2-1-2.2-2.2Zm285.4-.3c0-1.2,1-2.2,2.2-2.2s2.2,1,2.2,2.2-1,2.2-2.2,2.2-2.1-1-2.2-2.2ZM940.2,803.1c-1.2-.1-2.1-1.1-1.9-2.3.1-1.2,1.2-2.1,2.3-2c1.2.2,2.1,1.2,2,2.4-.1,1.1-1.1,2-2.2,2q-.1,0-.2-.1Zm282-2.2c-.2-1.2.7-2.3,1.9-2.4s2.3.8,2.4,1.9c.1,1.2-.8,2.3-1.9,2.4q-.2.1-.3.1c-1.1,0-2-.9-2.1-2ZM942.3,788.4c-1.2-.3-1.9-1.4-1.7-2.6.3-1.2,1.4-1.9,2.6-1.7c1.2.3,1.9,1.4,1.7,2.6-.3,1-1.2,1.7-2.2,1.7q-.2,0-.4,0Zm277.6-2c-.3-1.2.5-2.3,1.6-2.6c1.2-.2,2.3.5,2.6,1.7.2,1.2-.5,2.3-1.7,2.6q-.2,0-.4,0c-1,0-1.9-.7-2.1-1.7Zm-274-12.5c-1.1-.4-1.8-1.6-1.4-2.8.4-1.1,1.6-1.7,2.7-1.4c1.2.4,1.8,1.6,1.4,2.8-.3.9-1.1,1.5-2,1.5q-.4,0-.7-.1Zm270.1-1.7c-.3-1.2.3-2.4,1.4-2.8c1.2-.3,2.4.3,2.8,1.4.3,1.2-.3,2.4-1.4,2.8q-.4.1-.7.1c-.9,0-1.8-.6-2.1-1.5ZM951,759.8c-1.1-.5-1.5-1.7-1.1-2.8.5-1.1,1.8-1.6,2.9-1.1s1.6,1.7,1.1,2.8c-.3.8-1.1,1.3-2,1.3q-.4,0-.9-.2Zm259.7-1.3c-.5-1.1,0-2.4,1.1-2.9s2.4,0,2.9,1.1s0,2.4-1.1,2.8q-.4.2-.9.2c-.8,0-1.6-.4-2-1.2ZM957.6,746.4c-1-.6-1.4-1.9-.8-2.9.6-1.1,2-1.4,3-.8s1.4,1.9.8,2.9c-.4.7-1.1,1.1-1.9,1.1q-.5,0-1.1-.3Zm246.4-1c-.6-1.1-.2-2.4.8-3c1.1-.6,2.4-.2,3,.8s.2,2.4-.8,3c-.3.2-.7.2-1.1.2-.7,0-1.5-.3-1.9-1ZM965.6,733.8c-1-.7-1.2-2.1-.5-3.1.7-.9,2.1-1.1,3-.4c1,.7,1.2,2,.5,3-.4.6-1.1.9-1.8.9q-.6,0-1.2-.4Zm230.4-.7c-.7-1-.5-2.4.5-3.1.9-.7,2.3-.5,3,.5s.5,2.3-.5,3q-.6.4-1.2.4c-.7,0-1.4-.3-1.8-.8ZM974.8,722c-.9-.8-1-2.2-.2-3.1.8-.8,2.2-.9,3.1-.1s1,2.2.2,3v.1c-.5.4-1.1.7-1.7.7-.5,0-1-.2-1.4-.6Zm211.9-.4c-.8-.9-.7-2.2.2-3s2.2-.8,3.1.1c.7.9.7,2.3-.2,3.1-.4.4-.9.5-1.5.5-.5,0-1.1-.2-1.6-.7ZM985.2,711.3c-.8-.9-.7-2.3.1-3.1.9-.8,2.3-.7,3.1.2s.8,2.2-.1,3q-.8.6-1.5.6c-.6,0-1.2-.2-1.6-.7Zm191.1,0c-.9-.9-1-2.2-.2-3.1s2.2-1,3.1-.2s1,2.2.2,3.1c-.5.5-1,.7-1.6.7s-1.1-.2-1.5-.5Zm-179.7-9.6c-.7-1-.4-2.3.5-3c1-.7,2.4-.5,3,.4.8,1,.5,2.4-.4,3.1-.4.3-.9.4-1.3.4q-1.1,0-1.8-.9Zm168.3.3c-1-.7-1.2-2.1-.5-3c.7-1,2.1-1.2,3-.5c1,.7,1.2,2,.5,3-.4.6-1.1.9-1.8.9-.4,0-.8-.1-1.2-.4ZM1009,693.3c-.6-1-.2-2.3.8-2.9c1.1-.6,2.4-.3,3,.8.6,1,.2,2.3-.8,2.9q-.5.3-1.1.3c-.7,0-1.5-.4-1.9-1.1Zm143.5.7c-1-.6-1.4-1.9-.8-3c.6-1,2-1.4,3-.8s1.4,2,.8,3c-.4.7-1.1,1.1-1.9,1.1q-.6,0-1.1-.3Zm-130.3-7.7c-.5-1.1,0-2.3,1.1-2.8s2.4,0,2.9,1.1s0,2.3-1.1,2.8q-.5.2-.9.2c-.8,0-1.6-.4-2-1.3Zm117.2,1c-1.1-.5-1.6-1.7-1.1-2.8s1.8-1.6,2.9-1.1c1.1.4,1.6,1.7,1.1,2.8-.4.8-1.2,1.3-2,1.3q-.5,0-.9-.2Zm-103.3-6.5c-.4-1.2.2-2.4,1.4-2.8c1.1-.4,2.3.3,2.7,1.4.4,1.2-.3,2.4-1.4,2.8q-.3.1-.7.1c-.9,0-1.7-.6-2-1.5Zm89.6,1.3c-1.2-.4-1.8-1.6-1.4-2.8.3-1.1,1.6-1.7,2.7-1.4c1.2.4,1.8,1.6,1.4,2.8-.3.9-1.1,1.5-2.1,1.5q-.3,0-.6-.1Zm-75.3-5.4c-.2-1.2.5-2.4,1.7-2.6c1.2-.3,2.3.5,2.6,1.7.2,1.1-.5,2.3-1.7,2.5q-.2.1-.4.1c-1,0-1.9-.7-2.2-1.7Zm61.1,1.6c-1.2-.3-2-1.4-1.7-2.6.2-1.2,1.4-1.9,2.6-1.7c1.1.3,1.9,1.4,1.6,2.6-.2,1-1.1,1.7-2.1,1.7q-.2,0-.4,0Zm-46.3-4.2c-.2-1.2.7-2.2,1.9-2.4c1.2-.1,2.3.8,2.4,2c.1,1.1-.8,2.2-2,2.3q-.1.1-.2.1c-1.1,0-2-.9-2.1-2Zm31.7,1.9c-1.2-.1-2-1.2-1.9-2.4s1.2-2,2.4-1.9s2,1.2,1.9,2.4c-.1,1.1-1,1.9-2.1,1.9q-.2,0-.3,0Zm-16.8-2.9c0-1.2.9-2.2,2.1-2.2s2.2,1,2.2,2.2-1,2.2-2.2,2.2-2.1-1-2.1-2.2ZM941.8,815.9" fill-rule="evenodd"/></g><g><path d="M1082.6,943.5q-.1,0-.2,0c-1.3,0-2.4-1.1-2.4-2.4c0-1.4,1.1-2.4,2.4-2.4q.1,0,.1,0q.2,0,.3,0c1.3,0,2.4,1,2.4,2.4c0,1.3-1.1,2.4-2.4,2.4q-.1,0-.2,0Zm-15.3-.9c-1.3-.2-2.3-1.4-2.1-2.7.1-1.3,1.4-2.2,2.7-2.1c1.3.2,2.2,1.4,2.1,2.7-.2,1.2-1.2,2.1-2.4,2.1q-.2,0-.3,0Zm27.9-2.1c-.2-1.4.8-2.6,2.1-2.7c1.3-.2,2.5.7,2.7,2.1.1,1.3-.8,2.5-2.1,2.7q-.2,0-.3,0c-1.2,0-2.3-.9-2.4-2.1Zm-42.8-.6q0,0,0,.1c-1.3-.4-2.1-1.7-1.8-3s1.7-2.1,3-1.8c1.2.4,2,1.7,1.7,3-.2,1.1-1.2,1.8-2.3,1.8q-.3,0-.6-.1Zm57.4-1.8c-.3-1.3.5-2.6,1.8-2.9s2.6.4,2.9,1.7-.5,2.6-1.8,3q-.2,0-.5,0c-1.1,0-2.1-.7-2.4-1.8Zm-71.9-2.6c-1.2-.4-1.8-1.8-1.4-3.1.5-1.2,1.9-1.9,3.1-1.4c1.3.5,1.9,1.9,1.4,3.1-.3,1-1.2,1.6-2.2,1.6q-.4,0-.9-.2Zm86.2-1.5c-.5-1.3.1-2.7,1.4-3.1c1.2-.5,2.6.1,3.1,1.4.5,1.2-.2,2.6-1.4,3.1q-.4.1-.9.2c-.9,0-1.9-.6-2.2-1.6Zm-100-4.6c-1.2-.6-1.6-2-1-3.2s2-1.7,3.2-1.1c1.2.7,1.7,2.1,1.1,3.3-.5.8-1.3,1.3-2.2,1.3-.4,0-.7-.1-1.1-.3Zm113.6-1.2c-.6-1.2-.1-2.6,1.1-3.2s2.6-.2,3.2,1s.2,2.6-1,3.3q-.5.2-1.1.2c-.9,0-1.7-.4-2.2-1.3Zm-126.6-6.5c-1.1-.7-1.4-2.2-.6-3.3.7-1.1,2.2-1.4,3.3-.7c1.1.8,1.4,2.3.6,3.4-.4.7-1.2,1-2,1q-.7,0-1.3-.4Zm139.5-.8c-.7-1.1-.4-2.6.7-3.4c1.1-.7,2.6-.4,3.3.7.8,1.1.5,2.6-.6,3.3-.4.3-.9.4-1.4.4-.7,0-1.5-.3-2-1Zm-151.5-8.4q0,0,0,.1c-1-.9-1.2-2.5-.3-3.5s2.4-1.1,3.4-.2s1.1,2.4.3,3.4c-.5.5-1.2.8-1.9.8-.5,0-1.1-.2-1.5-.6Zm163.5-.4c-.9-1-.8-2.6.2-3.4c1-.9,2.5-.8,3.4.2s.8,2.5-.2,3.4c-.5.4-1.1.6-1.6.6-.7,0-1.4-.3-1.8-.8ZM988.2,902c-.9-1-.8-2.5.2-3.4s2.5-.8,3.4.2c.9.9.8,2.5-.2,3.4-.4.4-1,.6-1.6.6s-1.3-.3-1.8-.8Zm185.2-.1c-1-.9-1.1-2.4-.2-3.4s2.5-1.1,3.4-.1c1,.8,1.1,2.4.2,3.4-.5.5-1.1.7-1.8.7-.6,0-1.2-.2-1.6-.6ZM978.7,890.3c-.8-1.1-.5-2.6.5-3.4c1.1-.8,2.6-.5,3.4.6s.5,2.6-.5,3.3q-.7.5-1.4.5c-.8,0-1.5-.4-2-1Zm204.2.3c-1.1-.8-1.3-2.3-.5-3.4.7-1.1,2.2-1.3,3.3-.6c1.1.8,1.4,2.3.6,3.4-.5.7-1.2,1-2,1q-.7,0-1.4-.4ZM970.6,877.5c-.6-1.2-.2-2.6,1-3.3c1.1-.6,2.6-.2,3.2,1c.7,1.1.2,2.6-.9,3.3q-.6.3-1.2.3c-.8,0-1.6-.5-2.1-1.3Zm220.5.7c-1.2-.7-1.6-2.2-1-3.3.7-1.2,2.1-1.6,3.3-1c1.2.7,1.6,2.1.9,3.3-.4.8-1.2,1.2-2.1,1.2q-.6,0-1.1-.2Zm-227-14.3c-.5-1.3.1-2.7,1.3-3.2c1.3-.5,2.7.1,3.2,1.4.5,1.2-.1,2.6-1.4,3.1q-.4.2-.9.2c-.9,0-1.8-.6-2.2-1.5Zm233.6,1c-1.2-.5-1.8-1.9-1.3-3.2.5-1.2,1.8-1.8,3.1-1.3c1.2.5,1.8,1.9,1.3,3.1-.4,1-1.3,1.5-2.2,1.5q-.5,0-.9-.1ZM959.2,849.6c-.3-1.3.5-2.6,1.7-3c1.3-.4,2.6.4,3,1.7.3,1.3-.4,2.6-1.7,2.9q-.3.1-.6.1c-1.1,0-2.1-.7-2.4-1.7Zm243.5,1.3c-1.3-.4-2.1-1.7-1.7-3c.3-1.2,1.6-2,2.9-1.7c1.3.4,2.1,1.7,1.7,3-.3,1.1-1.2,1.8-2.3,1.8q-.3,0-.6-.1ZM956.1,834.8c-.2-1.3.8-2.6,2.1-2.8s2.5.7,2.7,2.1c.2,1.3-.7,2.5-2,2.7q-.2,0-.4,0c-1.2,0-2.2-.8-2.4-2Zm249.9,1.6c-1.3-.2-2.3-1.4-2.1-2.7s1.4-2.3,2.8-2.1c1.3.2,2.2,1.5,2,2.8-.2,1.2-1.2,2-2.4,2q-.2,0-.3,0ZM954.8,819.7c0-1.3,1-2.4,2.3-2.5c1.4,0,2.5,1,2.5,2.4.1,1.3-1,2.4-2.3,2.5q0,0-.1,0c-1.3,0-2.4-1.1-2.4-2.4Zm252.7,2c-1.3-.1-2.4-1.2-2.3-2.5c0-1.4,1.1-2.4,2.4-2.4c1.4.1,2.4,1.2,2.4,2.5s-1.1,2.4-2.4,2.4q0,0-.1,0ZM957.4,807.2c-1.3-.1-2.3-1.3-2.2-2.6s1.3-2.3,2.6-2.2c1.4.1,2.4,1.3,2.2,2.6-.1,1.3-1.1,2.2-2.4,2.2q-.1,0-.2,0Zm247.3-2.5c-.1-1.4.9-2.6,2.2-2.7s2.5.9,2.6,2.2-.8,2.5-2.2,2.6q-.1,0-.2,0c-1.2,0-2.3-.9-2.4-2.1ZM959.3,792.5c-1.3-.3-2.1-1.5-1.9-2.9.3-1.3,1.6-2.1,2.9-1.8s2.1,1.5,1.9,2.8c-.3,1.2-1.3,2-2.4,2q-.3,0-.5-.1Zm243.2-2.2c-.2-1.3.6-2.6,1.9-2.9s2.6.6,2.9,1.9c.2,1.3-.6,2.5-1.9,2.8q-.2.1-.5.1c-1.1,0-2.1-.8-2.4-1.9ZM962.9,778.1c-1.2-.4-1.9-1.8-1.5-3.1.4-1.2,1.8-1.9,3.1-1.5c1.2.5,1.9,1.8,1.5,3.1-.4,1-1.3,1.6-2.3,1.6q-.4,0-.8-.1Zm235.8-1.9c-.4-1.2.2-2.6,1.5-3c1.3-.5,2.6.2,3.1,1.5.4,1.2-.3,2.6-1.5,3q-.4.2-.8.2c-1,0-2-.7-2.3-1.7Zm-230.5-12c-1.2-.5-1.7-2-1.1-3.2.5-1.2,2-1.7,3.2-1.1s1.7,2,1.1,3.2c-.4.9-1.3,1.4-2.1,1.4-.4,0-.8-.1-1.1-.3Zm225-1.4c-.6-1.2-.1-2.7,1.1-3.2c1.2-.6,2.7-.1,3.3,1.1.5,1.2,0,2.6-1.2,3.2q-.5.2-1,.2c-.9,0-1.8-.5-2.2-1.3ZM975.1,751.1c-1.1-.7-1.4-2.2-.7-3.3s2.2-1.5,3.3-.8s1.5,2.2.7,3.4h.1c-.5.7-1.3,1.1-2.1,1.1q-.7,0-1.3-.4Zm211.1-1c-.8-1.2-.4-2.7.7-3.4s2.6-.4,3.3.8c.7,1.1.4,2.6-.7,3.3q-.6.4-1.3.4c-.8,0-1.6-.4-2-1.1ZM983.5,738.9c-1-.8-1.2-2.4-.3-3.4.8-1,2.3-1.2,3.4-.4c1,.9,1.2,2.4.3,3.4q-.8.9-1.8.9c-.6,0-1.1-.2-1.6-.5Zm194.1-.6c-.8-1.1-.7-2.6.4-3.4c1-.9,2.5-.7,3.4.3.8,1,.7,2.6-.4,3.4-.4.4-1,.6-1.5.6-.7,0-1.4-.4-1.9-.9ZM993.3,727.7c-.9-.9-.9-2.4.1-3.4.9-.9,2.5-.9,3.4.1.9.9.9,2.5,0,3.4-.5.4-1.1.7-1.7.7-.7,0-1.3-.3-1.8-.8Zm174.5-.1c-1-1-1-2.5-.1-3.5c1-.9,2.5-.9,3.4,0c1,.9,1,2.4.1,3.4-.5.5-1.1.7-1.7.7s-1.3-.2-1.7-.6Zm-163.4-9.8c-.8-1-.6-2.6.4-3.4c1.1-.8,2.6-.6,3.4.5.8,1,.6,2.6-.5,3.4-.4.3-.9.5-1.4.5-.7,0-1.4-.4-1.9-1Zm152.3.3c-1-.8-1.2-2.4-.4-3.4.8-1.1,2.3-1.3,3.4-.5c1,.8,1.2,2.3.4,3.4-.4.6-1.2,1-1.9,1q-.8,0-1.5-.5Zm-140.2-8.8c-.7-1.2-.3-2.6.8-3.3c1.2-.7,2.7-.3,3.3.8.7,1.2.3,2.6-.8,3.3q-.6.4-1.2.4c-.9,0-1.6-.5-2.1-1.2Zm128.2.6c-1.2-.6-1.6-2.1-.9-3.3.7-1.1,2.2-1.5,3.3-.8c1.2.7,1.6,2.1.9,3.3-.5.8-1.3,1.2-2.1,1.2q-.6,0-1.2-.4Zm-115.2-7.7c-.5-1.2,0-2.6,1.3-3.2c1.2-.5,2.6.1,3.1,1.3.6,1.2,0,2.6-1.2,3.2q-.5.2-.9.2c-1,0-1.9-.6-2.3-1.5Zm102.2,1.1c-1.2-.5-1.7-1.9-1.2-3.2.5-1.2,1.9-1.7,3.2-1.2c1.2.5,1.7,2,1.2,3.2-.4.9-1.3,1.4-2.2,1.4q-.5,0-1-.2Zm-88.4-6.5c-.4-1.3.4-2.6,1.6-3c1.3-.4,2.7.3,3.1,1.6.3,1.2-.4,2.6-1.6,3q-.4.1-.8.1c-1,0-1.9-.7-2.3-1.7Zm74.8,1.5c-1.3-.4-2-1.8-1.6-3c.4-1.3,1.7-2,3-1.6c1.2.3,2,1.7,1.6,2.9-.3,1.1-1.3,1.8-2.3,1.8q-.4,0-.7-.1Zm-60.4-5.3c-.3-1.3.6-2.6,1.9-2.8s2.6.6,2.8,2c.3,1.3-.6,2.5-1.9,2.8q-.2,0-.4,0c-1.2,0-2.2-.8-2.4-2Zm46.2,1.9c-1.3-.2-2.2-1.5-1.9-2.8.2-1.3,1.5-2.2,2.8-2c1.3.3,2.2,1.5,1.9,2.8-.2,1.2-1.2,2-2.4,2q-.1,0-.4,0Zm-31.5-3.9c-.1-1.4.9-2.5,2.2-2.6c1.4-.1,2.5,1,2.6,2.3s-.9,2.4-2.3,2.5q0,0-.1,0c-1.3,0-2.3-1-2.4-2.2Zm17.1,2.2c-1.3-.1-2.4-1.2-2.3-2.5.1-1.4,1.2-2.4,2.6-2.3q0,0-.1,0c1.4.1,2.4,1.2,2.3,2.5s-1.1,2.3-2.4,2.3q0,0-.1,0Z"/></g><g><path d="M1082.6,926.2q-.1,0-.2,0c-1.5,0-2.7-1.2-2.7-2.6c0-1.5,1.2-2.7,2.7-2.7q.1,0,.2,0t.2,0c1.5,0,2.7,1.2,2.7,2.7c0,1.4-1.2,2.6-2.7,2.6q-.1,0-.2,0Zm-15.2-1c-1.5-.2-2.5-1.5-2.3-3c.2-1.4,1.5-2.4,3-2.2c1.4.2,2.4,1.5,2.3,2.9-.2,1.4-1.4,2.3-2.7,2.3q-.1,0-.3,0Zm27.4-2.3c-.2-1.4.8-2.8,2.3-3c1.4-.2,2.8.8,3,2.3.2,1.4-.8,2.7-2.3,3q.1,0,0,0t-.3,0c-1.3,0-2.5-1-2.7-2.3Zm-42.2-.7c-1.4-.4-2.2-1.9-1.8-3.3s1.8-2.2,3.3-1.8c1.4.4,2.2,1.8,1.8,3.2-.3,1.2-1.4,2-2.6,2q-.3,0-.7-.1Zm56.7-2c-.4-1.4.4-2.9,1.8-3.2c1.4-.5,2.9.4,3.3,1.8s-.4,2.8-1.8,3.2q-.4.2-.7.1c-1.2,0-2.3-.7-2.6-1.9Zm-70.9-3.1c-1.3-.6-1.9-2.1-1.4-3.5.6-1.3,2.2-1.9,3.5-1.4v.1c1.4.5,2,2.1,1.4,3.5-.4.9-1.4,1.5-2.4,1.5q-.6,0-1.1-.2Zm84.9-1.5c-.6-1.3,0-2.9,1.3-3.5c1.4-.6,2.9,0,3.5,1.4.6,1.3,0,2.9-1.4,3.5q-.5.2-1,.2c-1,0-2-.6-2.4-1.6Zm-98.3-5.4c-1.2-.8-1.6-2.4-.8-3.7.7-1.2,2.4-1.6,3.6-.9c1.2.8,1.7,2.4.9,3.7-.5.8-1.4,1.3-2.3,1.3q-.7,0-1.4-.4Zm111.4-1.1c-.7-1.3-.3-2.9.9-3.6c1.3-.8,2.9-.4,3.6.8.8,1.3.4,2.9-.8,3.7-.4.2-.9.4-1.4.4-.9,0-1.8-.5-2.3-1.3Zm-123.7-7.6c-1.1-.9-1.3-2.6-.3-3.7.9-1.2,2.5-1.4,3.7-.4c1.1.9,1.3,2.6.4,3.7-.6.7-1.3,1-2.1,1-.6,0-1.2-.2-1.7-.6Zm135.9-.6c-.9-1.2-.7-2.8.4-3.8c1.1-.9,2.8-.7,3.7.4s.8,2.8-.4,3.7c-.5.5-1.1.6-1.6.6-.8,0-1.6-.3-2.1-.9Zm-146.9-9.7c-1-1.1-.9-2.7.2-3.7c1-1,2.7-1,3.7.1s1,2.7-.1,3.7c-.5.5-1.2.7-1.8.7-.7,0-1.4-.2-2-.8Zm157.9-.1c-1.1-1-1.2-2.7-.2-3.8s2.7-1.1,3.8-.1s1.1,2.6.1,3.7c-.5.6-1.2.9-1.9.9s-1.3-.3-1.8-.7ZM992.2,879.5c-.8-1.2-.5-2.8.7-3.7c1.2-.8,2.8-.5,3.7.7.8,1.2.5,2.8-.7,3.7-.4.3-1,.5-1.5.5-.9,0-1.7-.4-2.2-1.2Zm176.9.4c-1.2-.9-1.5-2.5-.7-3.7.9-1.2,2.5-1.5,3.7-.7c1.2.9,1.5,2.5.7,3.7-.5.7-1.4,1.1-2.2,1.1q-.8,0-1.5-.4ZM984.4,866.7c-.7-1.3-.2-2.9,1.1-3.6s2.9-.1,3.6,1.1c.7,1.3.2,2.9-1.1,3.6q-.6.3-1.3.3c-.9,0-1.9-.5-2.3-1.4Zm192.6.8c-1.3-.7-1.8-2.3-1.1-3.6.6-1.3,2.2-1.8,3.5-1.1c1.3.6,1.8,2.2,1.2,3.5-.5.9-1.4,1.5-2.4,1.5q-.6,0-1.2-.3ZM978.4,852.9c-.5-1.4.2-2.9,1.6-3.4s2.9.2,3.4,1.6-.3,2.9-1.6,3.4q-.5.1-.9.1c-1.1,0-2.1-.6-2.5-1.7Zm204.8,1.2c-1.4-.5-2.1-2-1.6-3.4.4-1.3,1.9-2.1,3.3-1.6s2.1,2,1.7,3.4c-.4,1.1-1.5,1.8-2.6,1.8q-.4,0-.8-.2ZM974.3,838.4c-.3-1.5.6-2.9,2.1-3.2c1.4-.3,2.8.7,3.1,2.1s-.6,2.8-2.1,3.1q-.2.1-.5.1c-1.2,0-2.3-.9-2.6-2.1Zm213.1,1.6c-1.4-.3-2.3-1.7-2-3.1s1.7-2.4,3.1-2.1s2.4,1.7,2.1,3.2c-.3,1.2-1.4,2.1-2.6,2.1q-.3,0-.6-.1ZM972.2,823.5c0-1.5,1.1-2.8,2.5-2.9c1.5-.1,2.7,1,2.9,2.5h-.1c.2,1.5-1,2.7-2.4,2.8q-.1,0-.2,0c-1.4,0-2.6-1-2.7-2.4Zm217.5,2c-1.4-.1-2.5-1.3-2.4-2.8s1.3-2.6,2.8-2.5c1.4.1,2.6,1.4,2.5,2.8s-1.3,2.5-2.7,2.5q-.1,0-.2,0Zm-215-14.3c-1.4-.1-2.6-1.3-2.5-2.8s1.4-2.6,2.9-2.5c1.4.1,2.5,1.4,2.4,2.9-.1,1.4-1.2,2.4-2.6,2.4q-.1,0-.2,0Zm212.5-2.8c-.1-1.5,1-2.8,2.5-2.9c1.4-.1,2.7,1,2.8,2.5.1,1.4-1,2.7-2.5,2.8q0,0-.1,0c-1.4,0-2.6-1.1-2.7-2.4ZM976.3,796.6c-1.4-.3-2.4-1.7-2-3.1.2-1.4,1.7-2.4,3.1-2.1s2.4,1.7,2,3.2c-.2,1.2-1.3,2.1-2.6,2.1q-.2,0-.5-.1Zm208.9-2.4c-.3-1.5.7-2.9,2.1-3.2s2.8.6,3.1,2.1c.3,1.4-.6,2.8-2,3.1q-.3.1-.6.1c-1.2,0-2.3-.9-2.6-2.1ZM979.9,782.3c-1.4-.4-2.1-2-1.6-3.3.5-1.4,2-2.1,3.4-1.6s2.1,2,1.6,3.3c-.4,1.1-1.4,1.8-2.5,1.8q-.4,0-.9-.2Zm201.4-1.9c-.5-1.4.3-2.9,1.6-3.4c1.4-.5,2.9.2,3.4,1.6s-.2,2.9-1.6,3.4q-.4.1-.8.1c-1.1,0-2.2-.7-2.6-1.7ZM985.4,768.7c-1.3-.7-1.8-2.3-1.1-3.6s2.3-1.8,3.6-1.1s1.8,2.3,1.1,3.6c-.5.9-1.4,1.4-2.4,1.4q-.6,0-1.2-.3Zm190.2-1.5c-.7-1.3-.2-2.9,1.1-3.5c1.3-.7,2.9-.2,3.6,1.1s.2,2.9-1.1,3.6q-.6.3-1.2.2c-1,0-1.9-.5-2.4-1.4ZM992.8,756c-1.2-.9-1.5-2.5-.7-3.7.9-1.2,2.5-1.5,3.7-.7c1.2.9,1.5,2.5.6,3.7-.5.8-1.3,1.2-2.1,1.2-.5,0-1.1-.2-1.5-.5Zm175.3-1c-.8-1.2-.6-2.8.6-3.7c1.2-.8,2.9-.6,3.7.6.9,1.2.6,2.9-.6,3.7q-.7.5-1.5.5c-.9,0-1.7-.4-2.2-1.1Zm-166.4-10.7c-1-1-1.1-2.7-.1-3.7c1-1.1,2.7-1.2,3.8-.2c1,1,1.1,2.7.1,3.8-.5.5-1.2.8-2,.8-.6,0-1.2-.2-1.8-.7Zm157.3-.4c-1-1-.9-2.7.1-3.7c1.1-1,2.8-1,3.8.1c1,1,.9,2.7-.1,3.7-.5.5-1.2.8-1.8.8-.7,0-1.5-.3-2-.9ZM1012.2,734c-.9-1.1-.7-2.8.4-3.7c1.1-1,2.8-.8,3.7.4c1,1.1.8,2.8-.3,3.7-.5.4-1.1.6-1.7.6-.8,0-1.6-.3-2.1-1Zm136.3.2c-1.1-1-1.3-2.6-.4-3.8c1-1.1,2.6-1.3,3.8-.4c1.1,1,1.3,2.6.4,3.8-.6.6-1.3,1-2.1,1-.6,0-1.2-.2-1.7-.6Zm-124.5-9c-.8-1.2-.4-2.9.9-3.6c1.2-.8,2.9-.4,3.6.9.8,1.2.4,2.8-.9,3.6-.4.3-.9.4-1.3.4-.9,0-1.8-.5-2.3-1.3Zm112.8.7c-1.3-.8-1.7-2.4-.9-3.6.8-1.3,2.4-1.7,3.7-.9c1.2.7,1.6,2.4.8,3.6-.5.8-1.3,1.3-2.2,1.3-.5,0-1-.1-1.4-.4Zm-99.9-7.8c-.6-1.3,0-2.9,1.3-3.5c1.4-.6,2.9,0,3.5,1.4.6,1.3,0,2.9-1.3,3.5q-.6.2-1.1.2c-1,0-2-.6-2.4-1.6Zm87.2,1.2c-1.4-.6-2-2.1-1.4-3.5.6-1.3,2.1-1.9,3.5-1.3c1.3.5,1.9,2.1,1.3,3.4-.4,1-1.4,1.6-2.4,1.6-.3,0-.7,0-1-.2Zm-73.5-6.5c-.4-1.4.4-2.9,1.8-3.2c1.4-.4,2.9.4,3.3,1.8s-.4,2.9-1.9,3.3l.1-.1q-.4.2-.8.2c-1.1,0-2.2-.8-2.5-2Zm59.9,1.8c-1.4-.5-2.2-1.9-1.8-3.3s1.8-2.3,3.2-1.9c1.5.4,2.3,1.9,1.9,3.3-.3,1.2-1.4,1.9-2.6,1.9q-.3,0-.7,0Zm-45.6-5.1c-.2-1.5.8-2.8,2.3-3c1.4-.2,2.7.8,2.9,2.2.3,1.5-.8,2.8-2.2,3q-.2.1-.4.1c-1.3,0-2.4-1-2.6-2.3Zm31.6,2.2c-1.5-.2-2.5-1.5-2.3-3s1.5-2.5,3-2.3c1.4.2,2.5,1.6,2.3,3-.2,1.3-1.3,2.3-2.7,2.3q-.1,0-.3,0Zm-14.3-1c-1.5,0-2.7-1.1-2.7-2.6s1.2-2.7,2.7-2.7c1.4,0,2.6,1.2,2.6,2.7c0,1.4-1.2,2.6-2.6,2.6Z"/></g><g><path d="M1079.5,906.1c0-1.6,1.3-2.9,2.9-2.9q.1,0,.1,0q.2,0,.3,0c1.6,0,2.9,1.3,2.9,2.9s-1.3,2.9-2.9,2.9q-.1,0-.2,0t-.2,0c-1.6,0-2.9-1.3-2.9-2.9Zm-12.4,1.6c-1.6-.2-2.7-1.7-2.4-3.3s1.7-2.6,3.3-2.4c1.6.3,2.7,1.8,2.4,3.3-.2,1.4-1.5,2.5-2.8,2.5q-.3,0-.5-.1Zm27.7-2.4c-.3-1.6.8-3.1,2.3-3.4c1.6-.2,3.1.8,3.4,2.4.2,1.6-.8,3.1-2.4,3.4q-.2,0-.5,0c-1.4,0-2.6-1-2.8-2.4Zm-42.6-1.3c-1.5-.6-2.4-2.2-1.8-3.7.5-1.5,2.1-2.3,3.6-1.8c1.6.5,2.3,2.2,1.8,3.7-.4,1.2-1.5,1.9-2.7,1.9q-.5,0-.9-.1Zm57.1-2c-.5-1.5.3-3.1,1.8-3.6c1.5-.6,3.1.2,3.7,1.8.5,1.5-.3,3.1-1.8,3.6q-.5.2-1,.2c-1.1,0-2.3-.8-2.7-2Zm-71.2-4.2c-1.4-.8-2-2.5-1.2-3.9s2.5-2,3.9-1.2s2,2.5,1.2,3.9c-.5,1-1.5,1.5-2.6,1.5-.4,0-.9-.1-1.3-.3Zm85-1.4c-.8-1.4-.2-3.1,1.2-3.9s3.1-.2,3.9,1.2.2,3.1-1.2,3.9c-.4.2-.9.4-1.3.4-1.1,0-2.1-.6-2.6-1.6Zm-97.9-7c-1.3-1-1.5-2.8-.5-4.1s2.8-1.5,4.1-.5c1.2,1,1.4,2.8.5,4.1-.6.7-1.5,1.1-2.3,1.1q-1.1,0-1.8-.6Zm110.6-.8c-1-1.2-.8-3,.5-4s3.1-.8,4.1.5c1,1.2.7,3-.5,4-.6.4-1.2.7-1.8.7-.9,0-1.7-.4-2.3-1.2Zm-121.9-9.7c-1.1-1.1-1-3,.2-4c1.1-1.1,3-1,4,.1c1.1,1.2,1.1,3-.1,4.1-.6.5-1.3.8-2,.8-.8,0-1.5-.3-2.1-1Zm133.2,0c-1.2-1.1-1.3-3-.2-4.1c1.1-1.2,2.9-1.3,4.1-.2c1.1,1.1,1.2,2.9.2,4.1q0,0-.1,0c-.5.6-1.3.9-2.1.9-.7,0-1.4-.2-1.9-.7Zm-142.7-12.1c-.8-1.3-.5-3.1.9-4c1.3-.9,3.1-.5,4,.8.9,1.4.5,3.2-.9,4.1q-.7.4-1.5.4c-1,0-1.9-.4-2.5-1.3Zm152.2.6c-1.4-.9-1.8-2.7-.9-4c.9-1.4,2.7-1.8,4-.9c1.4.9,1.7,2.7.8,4-.5.9-1.4,1.3-2.4,1.3q-.8,0-1.5-.4ZM997.1,853.3c-.6-1.4,0-3.1,1.5-3.8c1.5-.6,3.1,0,3.8,1.5.6,1.5,0,3.2-1.5,3.8q-.6.2-1.2.2c-1.1,0-2.1-.6-2.6-1.7Zm166.9,1.2c-1.4-.7-2.1-2.4-1.5-3.9.7-1.4,2.4-2.1,3.8-1.4c1.5.6,2.2,2.3,1.5,3.8-.4,1.1-1.5,1.7-2.6,1.7q-.6,0-1.2-.2ZM992.1,838.8c-.4-1.6.5-3.1,2.1-3.5c1.5-.4,3.1.5,3.5,2.1.4,1.5-.5,3.1-2.1,3.5q-.4.1-.7.1c-1.3,0-2.5-.9-2.8-2.2Zm177.2,1.7c-1.6-.4-2.5-2-2.1-3.5.4-1.6,1.9-2.5,3.5-2.1c1.5.4,2.5,1.9,2.1,3.5-.3,1.3-1.5,2.2-2.8,2.2q-.4,0-.7-.1ZM989.6,823.6c-.2-1.6,1-3,2.6-3.1s3,1.1,3.1,2.6c.2,1.6-1,3-2.6,3.2q-.1,0-.2,0c-1.5,0-2.8-1.2-2.9-2.7Zm182.5,2.3c-1.6-.1-2.8-1.6-2.6-3.1.1-1.6,1.5-2.8,3.1-2.7s2.8,1.5,2.7,3.1c-.2,1.5-1.4,2.7-2.9,2.7q-.1,0-.3,0ZM992.2,811.4c-1.6-.2-2.8-1.6-2.6-3.2.1-1.5,1.5-2.7,3.1-2.6s2.7,1.5,2.6,3.1c-.1,1.5-1.4,2.7-2.9,2.7q-.1,0-.2,0Zm177.2-3.1c-.1-1.5,1.1-3,2.7-3.1s3,1.1,3.1,2.7c.1,1.5-1,2.9-2.6,3.1q-.2,0-.3,0c-1.5,0-2.7-1.2-2.9-2.7ZM994.1,796.6c-1.5-.4-2.4-2-2.1-3.5.4-1.6,2-2.5,3.6-2.1c1.5.4,2.4,1.9,2.1,3.5-.4,1.3-1.5,2.2-2.9,2.2q-.3,0-.7-.1Zm172.9-2.5c-.4-1.5.6-3.1,2.1-3.5c1.6-.4,3.1.5,3.5,2.1.4,1.5-.5,3.1-2,3.5q-.4.1-.8.1c-1.3,0-2.4-.9-2.8-2.2ZM998.5,782.3c-1.5-.6-2.1-2.3-1.5-3.8.7-1.5,2.4-2.1,3.8-1.5c1.5.7,2.2,2.4,1.5,3.8-.5,1.1-1.5,1.8-2.6,1.8q-.6,0-1.2-.3Zm163.8-1.8c-.6-1.5,0-3.2,1.5-3.8c1.4-.7,3.2,0,3.8,1.5.6,1.4,0,3.1-1.5,3.8q-.6.2-1.1.2c-1.2,0-2.2-.6-2.7-1.7ZM1005.2,769c-1.4-.9-1.7-2.7-.9-4c.9-1.3,2.7-1.7,4-.9c1.4.9,1.7,2.7.9,4-.6.9-1.5,1.4-2.4,1.4q-.9,0-1.6-.5Zm150.2-1.2c-.9-1.3-.5-3.1.8-4c1.4-.8,3.2-.5,4,.9.9,1.3.5,3.1-.8,4-.5.3-1,.5-1.6.5-.9,0-1.8-.5-2.4-1.4Zm-141.5-10.9c-1.1-1-1.2-2.9-.1-4.1c1-1.1,2.9-1.2,4.1-.1c1.1,1,1.2,2.9.1,4-.5.7-1.3,1-2.1,1-.7,0-1.4-.3-2-.8Zm132.6-.4c-1.1-1.2-1-3,.2-4.1c1.1-1.1,3-1,4.1.2c1,1.1,1,3-.2,4-.6.6-1.3.8-2,.8s-1.5-.3-2.1-.9Zm-121.9-10c-1-1.3-.8-3.1.5-4.1c1.2-1,3-.8,4,.5s.8,3.1-.5,4.1q-.8.6-1.8.6c-.8,0-1.7-.4-2.2-1.1Zm111.3.3c-1.3-1-1.5-2.8-.5-4.1.9-1.3,2.8-1.5,4-.5c1.3,1,1.5,2.8.5,4-.5.8-1.4,1.2-2.3,1.2-.6,0-1.2-.2-1.7-.6Zm-99.2-8.9c-.7-1.4-.2-3.2,1.2-3.9c1.4-.8,3.2-.3,3.9,1.1.8,1.4.3,3.2-1.1,4q-.7.3-1.4.3c-1,0-2-.5-2.6-1.5Zm87.1,1c-1.4-.8-2-2.5-1.2-3.9s2.5-2,3.9-1.2c1.4.7,2,2.5,1.2,3.9-.5,1-1.5,1.5-2.6,1.5q-.7,0-1.3-.3Zm-73.6-7.4c-.5-1.6.3-3.2,1.8-3.7c1.5-.6,3.1.2,3.7,1.8.5,1.5-.3,3.1-1.8,3.6q-.5.2-1,.2c-1.2,0-2.3-.8-2.7-1.9Zm60.4,1.6c-1.5-.5-2.4-2.1-1.8-3.7.5-1.5,2.1-2.3,3.6-1.8c1.6.6,2.3,2.2,1.8,3.7-.4,1.2-1.5,2-2.7,2q-.5,0-.9-.2Zm-46.1-5.8c-.3-1.6.8-3.1,2.4-3.3c1.5-.3,3,.8,3.3,2.3.3,1.6-.8,3.1-2.4,3.4q-.2,0-.5,0c-1.3,0-2.6-1-2.8-2.4Zm32.1,2.3c-1.6-.3-2.7-1.7-2.4-3.3s1.7-2.7,3.3-2.4s2.7,1.7,2.4,3.3c-.2,1.5-1.5,2.5-2.8,2.5q-.3,0-.5-.1Zm-14.4-1.1c-1.6,0-2.9-1.3-2.9-2.9s1.3-2.9,2.9-2.9s2.9,1.3,2.9,2.9-1.3,2.9-2.9,2.9Z"/></g><g><path d="M1079.2,888.6c0-1.7,1.5-3.2,3.2-3.2v.1q.1,0,.1,0q.1-.1.2-.1c1.7,0,3.1,1.4,3.1,3.2c0,1.7-1.4,3.1-3.1,3.1q-.1,0-.2,0q0,0-.1,0c-1.7,0-3.2-1.4-3.2-3.1Zm-11.6,1.7c-1.7-.4-2.8-2-2.5-3.7.4-1.7,2-2.8,3.7-2.5c1.7.4,2.8,2,2.5,3.7-.3,1.5-1.6,2.5-3.1,2.5q-.3,0-.6,0Zm26.2-2.5c-.3-1.7.8-3.4,2.5-3.7c1.7-.4,3.3.7,3.6,2.4.4,1.7-.7,3.4-2.4,3.7q-.3.1-.6.1c-1.5,0-2.8-1.1-3.1-2.5Zm-40.4-1.8c-1.6-.7-2.4-2.5-1.7-4.1.6-1.6,2.5-2.4,4.1-1.7c1.6.6,2.3,2.5,1.6,4.1-.4,1.2-1.6,1.9-2.8,1.9q-.7,0-1.2-.2Zm54.2-1.8c-.7-1.6.1-3.5,1.7-4.1c1.6-.7,3.4,0,4.1,1.6s-.1,3.5-1.7,4.2q-.6.2-1.2.2c-1.2,0-2.4-.7-2.9-1.9Zm-67.4-5.2c-1.4-1-1.8-2.9-.8-4.4.9-1.4,2.9-1.8,4.3-.8c1.5.9,1.9,2.9.9,4.3-.6.9-1.6,1.4-2.6,1.4q-.9,0-1.8-.5Zm80.2-1.1c-.9-1.4-.5-3.4.9-4.3c1.4-1,3.4-.6,4.3.8c1,1.5.6,3.4-.8,4.4q-.8.5-1.8.5c-1,0-1.9-.5-2.6-1.4Zm-91.6-8.4c-1.3-1.2-1.3-3.2-.1-4.4c1.3-1.2,3.3-1.2,4.5,0s1.2,3.2,0,4.4c-.6.6-1.4.9-2.2.9s-1.6-.3-2.2-.9Zm103-.2c-1.2-1.2-1.2-3.2,0-4.4c1.2-1.3,3.2-1.3,4.4,0c1.3,1.2,1.3,3.2.1,4.4-.7.6-1.5.9-2.3.9s-1.6-.3-2.2-.9ZM1019.3,858c-1-1.4-.6-3.3.9-4.3c1.4-1,3.4-.6,4.3.8c1,1.5.6,3.4-.8,4.4-.6.3-1.2.5-1.8.5-1,0-2-.5-2.6-1.4Zm122,.7c-1.4-1-1.8-2.9-.9-4.4c1-1.4,2.9-1.8,4.4-.9c1.4,1,1.8,2.9.9,4.4-.7.9-1.6,1.4-2.7,1.4-.6,0-1.2-.2-1.7-.5Zm-129-13.8c-.7-1.6.1-3.4,1.7-4.1c1.6-.6,3.4.1,4.1,1.7.6,1.6-.1,3.5-1.7,4.1q-.6.3-1.2.3c-1.3,0-2.4-.8-2.9-2Zm136.2,1.4c-1.6-.6-2.3-2.4-1.7-4c.7-1.7,2.5-2.4,4.1-1.7c1.6.6,2.4,2.4,1.7,4-.5,1.3-1.6,2-2.9,2q-.6,0-1.2-.3Zm-140.6-15.6c-.3-1.7.8-3.3,2.5-3.7c1.7-.3,3.4.8,3.7,2.5s-.8,3.3-2.5,3.7q-.3,0-.6,0c-1.4,0-2.8-1-3.1-2.5Zm145.3,2.2c-1.7-.4-2.8-2-2.5-3.7.4-1.7,2-2.8,3.7-2.5s2.8,2,2.5,3.7c-.3,1.5-1.6,2.5-3.1,2.5q-.3,0-.6,0Zm-146.7-17c0-1.7,1.4-3.1,3.1-3.1c1.8,0,3.2,1.4,3.2,3.1s-1.4,3.1-3.2,3.1c-1.7,0-3.1-1.4-3.1-3.1Zm145.5-.3c0-1.7,1.4-3.1,3.1-3.1c1.8,0,3.2,1.4,3.2,3.1s-1.4,3.1-3.1,3.1c-1.8,0-3.2-1.4-3.2-3.1Zm-141.6-10.8c-1.7-.3-2.8-2-2.5-3.7s2-2.8,3.7-2.5c1.7.4,2.8,2,2.5,3.7-.3,1.5-1.6,2.6-3.1,2.6q-.3,0-.6-.1Zm140.3-2.8c-.4-1.7.7-3.3,2.4-3.7c1.7-.3,3.4.8,3.7,2.5s-.8,3.3-2.5,3.7q-.3.1-.6.1c-1.4,0-2.8-1.1-3-2.6Zm-136.8-11c-1.6-.7-2.4-2.5-1.7-4.1s2.5-2.4,4.1-1.7c1.6.6,2.4,2.5,1.7,4.1-.5,1.2-1.7,1.9-2.9,1.9q-.6,0-1.2-.2Zm132.8-2c-.7-1.6,0-3.5,1.6-4.1c1.6-.7,3.5.1,4.1,1.7.7,1.6-.1,3.4-1.7,4.1q-.5.2-1.1.2c-1.3,0-2.4-.7-2.9-1.9Zm-126.6-10.9c-1.5-1-1.8-2.9-.9-4.4c1-1.4,2.9-1.8,4.4-.8c1.4.9,1.8,2.9.8,4.3-.6.9-1.6,1.4-2.6,1.4q-.9,0-1.7-.5Zm120.1-1.1c-1-1.4-.6-3.4.8-4.4c1.5-.9,3.4-.6,4.4.9.9,1.4.6,3.4-.9,4.3q-.8.6-1.7.6c-1,0-2-.5-2.6-1.4Zm-111.6-10.3c-1.2-1.2-1.2-3.2,0-4.5c1.3-1.2,3.2-1.2,4.5,0c1.2,1.3,1.2,3.2,0,4.5-.6.6-1.4.9-2.2.9s-1.6-.3-2.3-.9Zm102.9-.2c-1.2-1.2-1.2-3.2,0-4.5c1.2-1.2,3.2-1.2,4.4,0s1.2,3.2,0,4.4c-.6.7-1.4,1-2.2,1s-1.6-.3-2.2-.9Zm-92.2-9.3c-1-1.5-.6-3.4.8-4.4s3.4-.6,4.4.8c.9,1.5.5,3.4-.9,4.4-.5.3-1.1.5-1.7.5-1,0-2-.5-2.6-1.3Zm81.6.6c-1.4-.9-1.8-2.9-.8-4.3.9-1.5,2.9-1.8,4.3-.9c1.4,1,1.8,2.9.9,4.4-.6.9-1.6,1.4-2.6,1.4-.6-.1-1.2-.2-1.8-.6Zm-69.4-8c-.7-1.5.1-3.4,1.7-4.1c1.6-.6,3.4.1,4.1,1.7s-.1,3.5-1.7,4.1q-.6.3-1.2.3c-1.2,0-2.4-.7-2.9-2Zm57.4,1.6c-1.6-.6-2.4-2.5-1.7-4.1.6-1.6,2.5-2.3,4.1-1.7c1.6.7,2.3,2.5,1.7,4.1-.5,1.2-1.7,2-2.9,2q-.6,0-1.2-.3Zm-43.9-6.3c-.4-1.7.7-3.3,2.4-3.7c1.7-.3,3.4.8,3.7,2.5.4,1.7-.7,3.3-2.4,3.7q-.3,0-.7,0c-1.4,0-2.7-1-3-2.5Zm30.8,2.4c-1.7-.3-2.8-2-2.4-3.7.3-1.7,1.9-2.8,3.6-2.5c1.7.4,2.8,2,2.5,3.7-.3,1.5-1.6,2.6-3.1,2.6q-.3,0-.6-.1Zm-16.7-4.4c0-1.8,1.4-3.2,3.1-3.2c1.8,0,3.2,1.4,3.2,3.2c0,1.7-1.4,3.1-3.2,3.1-1.7,0-3.1-1.4-3.1-3.1Z"/></g><g><path d="M1079,871.1c0-1.9,1.5-3.4,3.4-3.4q.1,0,.2,0c1.9,0,3.4,1.5,3.4,3.4c0,1.8-1.5,3.4-3.4,3.4q0,0-.1,0q0,0-.1,0c-1.9,0-3.4-1.5-3.4-3.4Zm-11.8,1.4c-1.8-.5-2.8-2.3-2.4-4.1.5-1.8,2.4-2.9,4.2-2.4c1.8.4,2.8,2.3,2.4,4.1-.4,1.5-1.8,2.5-3.3,2.5q-.4,0-.9-.1Zm26.4-2.4c-.4-1.8.6-3.7,2.4-4.2s3.7.6,4.2,2.4c.4,1.8-.6,3.6-2.4,4.1q-.5.1-.9.1c-1.5,0-2.9-.9-3.3-2.4Zm-40.5-3.5c-1.6-.9-2.2-3-1.2-4.6.9-1.6,2.9-2.2,4.6-1.2c1.6.9,2.1,3,1.2,4.6-.6,1.1-1.8,1.7-2.9,1.7-.6,0-1.2-.2-1.7-.5Zm54.2-1.3c-.9-1.6-.4-3.7,1.2-4.6s3.7-.4,4.6,1.2c1,1.6.4,3.7-1.2,4.6q-.8.5-1.7.5c-1.2,0-2.3-.6-2.9-1.7Zm-66.3-8c-1.4-1.3-1.4-3.4,0-4.8c1.3-1.3,3.4-1.3,4.7,0s1.3,3.5,0,4.8c-.6.7-1.5,1-2.4,1-.8,0-1.7-.3-2.3-1Zm78.2-.1c-1.3-1.3-1.3-3.5,0-4.8s3.5-1.3,4.8,0s1.3,3.4,0,4.7c-.7.7-1.5,1-2.4,1q-1.4,0-2.4-.9Zm-87.6-12c-.9-1.6-.4-3.7,1.2-4.6c1.7-1,3.7-.4,4.7,1.2.9,1.6.3,3.7-1.3,4.6q-.8.5-1.7.5c-1.1,0-2.3-.6-2.9-1.7Zm97.1,1c-1.6-.9-2.2-3-1.3-4.6s3-2.1,4.6-1.2c1.7.9,2.2,3,1.3,4.6-.6,1.1-1.8,1.7-2.9,1.7q-.9,0-1.7-.5Zm-103-15.1c-.4-1.9.6-3.7,2.4-4.2s3.7.6,4.2,2.4-.6,3.7-2.4,4.1q-.5.2-.9.2c-1.5,0-2.8-1-3.3-2.5Zm109.3,2.1c-1.8-.4-2.9-2.3-2.4-4.1.4-1.8,2.3-2.9,4.1-2.4s2.9,2.3,2.4,4.1c-.4,1.5-1.8,2.5-3.3,2.5q-.4,0-.8-.1Zm-111.3-17.3c0-1.9,1.5-3.4,3.4-3.4s3.4,1.5,3.4,3.4-1.5,3.4-3.4,3.4c-1.8,0-3.4-1.5-3.4-3.4Zm110.6-.2c0-1.9,1.5-3.4,3.3-3.4c1.9,0,3.4,1.5,3.4,3.3c0,1.9-1.5,3.4-3.3,3.4-1.9,0-3.4-1.5-3.4-3.3Zm-106.2-10.9c-1.8-.4-2.9-2.3-2.4-4.1s2.3-2.9,4.1-2.4c1.9.5,2.9,2.4,2.4,4.2-.4,1.5-1.7,2.5-3.2,2.5q-.5,0-.9-.2Zm104.4-2.5c-.5-1.9.6-3.7,2.4-4.2s3.6.6,4.1,2.4-.6,3.6-2.4,4.1q-.4.1-.8.1c-1.5,0-2.9-.9-3.3-2.4Zm-99.7-11.1c-1.6-1-2.2-3-1.2-4.6.9-1.6,2.9-2.2,4.6-1.3c1.6,1,2.1,3,1.2,4.6-.6,1.1-1.8,1.7-2.9,1.7-.6,0-1.2-.1-1.7-.4Zm94.5-1.4c-1-1.6-.4-3.7,1.2-4.7c1.6-.9,3.7-.3,4.6,1.3s.4,3.6-1.2,4.6c-.5.3-1.1.4-1.7.4-1.2,0-2.3-.6-2.9-1.6Zm-86.4-10.6c-1.4-1.3-1.4-3.5,0-4.8c1.3-1.3,3.4-1.3,4.7,0c1.4,1.3,1.4,3.5,0,4.8-.6.7-1.5,1-2.4,1-.8,0-1.7-.3-2.3-1Zm78.1-.2c-1.3-1.3-1.3-3.4,0-4.7s3.4-1.3,4.8,0c1.3,1.3,1.3,3.4,0,4.7-.7.7-1.5,1-2.4,1s-1.8-.3-2.4-1Zm-67.2-9.3c-1-1.6-.4-3.7,1.2-4.6c1.6-1,3.7-.4,4.6,1.2s.4,3.7-1.2,4.6c-.6.3-1.2.5-1.7.5-1.2,0-2.3-.6-2.9-1.7Zm56.4,1.1c-1.6-.9-2.1-3-1.2-4.6s3-2.2,4.6-1.2c1.6.9,2.2,3,1.2,4.6-.6,1.1-1.7,1.7-2.9,1.7q-.8,0-1.7-.5Zm-43.5-7.5c-.5-1.8.6-3.6,2.4-4.1s3.7.6,4.1,2.4c.5,1.8-.5,3.6-2.3,4.1q-.5.1-.9.1c-1.5,0-2.9-1-3.3-2.5Zm31,2.4c-1.8-.5-2.9-2.4-2.4-4.2s2.3-2.8,4.1-2.4c1.9.5,2.9,2.4,2.5,4.2-.5,1.5-1.8,2.5-3.3,2.5q-.5,0-.9-.1Zm-16.8-5.1c0-1.9,1.5-3.4,3.4-3.4c1.8,0,3.4,1.5,3.4,3.4c0,1.8-1.6,3.3-3.4,3.3-1.9,0-3.4-1.5-3.4-3.3Z"/></g><g><path d="M1082.5,857.2q-.1,0-.1,0c-2,0-3.6-1.6-3.6-3.6s1.6-3.6,3.6-3.6q0,0,.1,0c2,0,3.7,1.6,3.7,3.6s-1.6,3.6-3.6,3.6q-.1,0-.1,0Zm-15.9-3.1c-1.9-.8-2.8-2.9-2-4.7.8-1.9,2.9-2.8,4.7-2c1.9.8,2.8,2.9,2,4.7-.6,1.4-1.9,2.3-3.4,2.3q-.7,0-1.3-.3Zm27-2c-.7-1.9.1-4,2-4.8c1.8-.7,3.9.1,4.7,2c.8,1.8-.1,3.9-1.9,4.7q-.7.3-1.4.3c-1.4,0-2.8-.8-3.4-2.2Zm-40.5-7c-1.4-1.4-1.4-3.7,0-5.1c1.5-1.4,3.7-1.4,5.2,0c1.4,1.4,1.4,3.7,0,5.1-.8.7-1.7,1.1-2.6,1.1s-1.9-.4-2.6-1.1Zm53.5-.1c-1.4-1.4-1.4-3.7,0-5.1s3.7-1.4,5.1,0c1.5,1.4,1.5,3.7.1,5.1-.7.7-1.7,1.1-2.6,1.1s-1.8-.4-2.6-1.1Zm-62.4-13.3c-.8-1.8.1-4,1.9-4.7c1.9-.8,4,.1,4.7,1.9.8,1.9-.1,4-1.9,4.7q-.7.3-1.4.3c-1.4,0-2.8-.8-3.3-2.2Zm71.8,1.8c-1.9-.7-2.8-2.9-2-4.7s2.9-2.7,4.7-2c1.9.8,2.8,2.9,2,4.7-.6,1.4-1.9,2.3-3.3,2.3q-.7,0-1.4-.3Zm-75-17.6c0-2,1.6-3.6,3.6-3.6s3.6,1.6,3.6,3.6-1.6,3.6-3.6,3.6-3.6-1.6-3.6-3.6Zm75.5-.2c0-2,1.7-3.6,3.6-3.6c2.1,0,3.7,1.6,3.7,3.6s-1.6,3.6-3.6,3.6-3.6-1.6-3.7-3.6Zm-70.4-10.9c-1.9-.8-2.7-2.9-2-4.8.8-1.8,2.9-2.7,4.7-1.9c1.9.7,2.8,2.8,2,4.7-.6,1.4-1.9,2.2-3.3,2.2q-.7,0-1.4-.2Zm67.8-2.1c-.8-1.9.1-4,2-4.8c1.8-.7,3.9.1,4.7,2c.8,1.8-.1,3.9-1.9,4.7q-.7.3-1.4.3c-1.5,0-2.8-.8-3.4-2.2Zm-60.8-11c-1.4-1.4-1.4-3.7,0-5.1s3.7-1.4,5.1,0s1.4,3.7,0,5.1c-.7.7-1.6,1.1-2.6,1.1-.9,0-1.8-.4-2.5-1.1Zm53.4-.1c-1.4-1.4-1.4-3.7,0-5.1s3.7-1.4,5.1,0s1.4,3.7,0,5.1c-.7.7-1.6,1.1-2.6,1.1-.9,0-1.8-.4-2.5-1.1Zm-42-9.3c-.7-1.8.1-3.9,2-4.7c1.8-.8,3.9.1,4.7,1.9.8,1.9-.1,4-1.9,4.8q-.7.3-1.4.3c-1.4,0-2.8-.9-3.4-2.3Zm30.9,1.9c-1.9-.7-2.7-2.8-2-4.7.8-1.8,2.9-2.7,4.7-2c1.9.8,2.8,2.9,2,4.8-.6,1.4-1.9,2.2-3.3,2.2q-.7,0-1.4-.3Zm-16.7-6.1c0-2,1.6-3.7,3.6-3.7s3.6,1.7,3.6,3.6c0,2.1-1.6,3.7-3.6,3.7s-3.6-1.6-3.6-3.6Z"/></g><g><path d="M1082.4,840c-2.1,0-3.9-1.8-3.9-3.9s1.7-3.8,3.7-3.8q.2,0,.3,0c2.1-.1,3.8,1.7,3.8,3.8s-1.7,3.9-3.8,3.9q0,0-.1,0Zm-15.5-5.7c-1.7-1.3-1.9-3.8-.5-5.4s3.8-1.9,5.4-.5c1.7,1.4,1.9,3.8.5,5.5-.7.9-1.8,1.3-2.9,1.3-.9,0-1.8-.3-2.5-.9Zm25.6-.5c-1.3-1.6-1.1-4,.5-5.4s4.1-1.2,5.4.4c1.4,1.6,1.2,4.1-.4,5.5-.8.6-1.6.9-2.5.9-1.1,0-2.2-.5-3-1.4ZM1058.6,820c-.4-2.1,1-4.1,3.2-4.4c2-.4,4,1,4.4,3.1s-1,4.1-3.1,4.5q-.4,0-.7,0c-1.8,0-3.4-1.3-3.8-3.2Zm43.1,3.1c-2.1-.4-3.5-2.4-3.1-4.5.3-2.1,2.3-3.5,4.4-3.1c2.1.3,3.5,2.3,3.2,4.4q0,.1,0,0c-.3,1.9-2,3.3-3.8,3.3q-.3,0-.7-.1ZM1062.9,809c-1.9-1-2.5-3.4-1.4-5.2c1-1.9,3.4-2.5,5.2-1.4c1.9,1,2.5,3.4,1.5,5.2-.8,1.3-2.1,2-3.4,2q-1,0-1.9-.6Zm33.7-1.4c-1.1-1.9-.5-4.2,1.4-5.3c1.8-1.1,4.2-.4,5.3,1.4c1,1.8.4,4.2-1.4,5.3-.6.3-1.3.5-2,.5-1.3,0-2.6-.7-3.3-1.9Zm-24.8-9.5c-.7-2,.3-4.2,2.3-4.9c2-.8,4.2.2,4.9,2.2.8,2.1-.3,4.3-2.3,5-.4.2-.8.2-1.3.2-1.6,0-3-.9-3.6-2.5Zm16.2,2.3c-2-.7-3.1-3-2.3-5c.7-2,2.9-3,4.9-2.3s3,3,2.3,5c-.6,1.5-2,2.5-3.6,2.5q-.7,0-1.3-.2Z"/></g></g><g><path d="M628.6,734.8h-111.8v-111.8h111.8Z" fill="#fbefe7"/><path d="M628.6,790.7h-111.8v-111.8h111.8Z" fill="#f7dfcf"/><path d="M628.6,846h-111.8v-111.8h111.8Z" fill="#eab087"/></g><path d="M130.9,1032.7v-342.4c0-46.5,37.8-84.3,84.2-84.3c46.5,0,84.3,37.8,84.3,84.3v342.4Z" fill="#fbefe7"/><g><path d="M1389.9,747.4c-119.8,0-217.3-97.5-217.3-217.3s97.5-217.2,217.3-217.2c119.7,0,217.2,97.4,217.2,217.2s-97.5,217.3-217.2,217.3Zm0-432.6c-118.8,0-215.4,96.6-215.4,215.3s96.6,215.3,215.4,215.3c118.7,0,215.3-96.6,215.3-215.3s-96.6-215.3-215.3-215.3Z" fill-rule="evenodd"/></g><path d="M1383.3,232.3c0,23.8-19.3,43.1-43.1,43.1s-43.1-19.3-43.1-43.1s19.3-43.1,43.1-43.1s43.1,19.3,43.1,43.1Z" fill="#8bd2bd"/><g id="eeaYsfZnSog42_to" style="offset-path:path('M65.800005,874.500024L65.800005,358.500024C69.816454,314.754365,59.644562,258.768353,26.500002,247.950024C7.463042,236.107234,-13.103625,233.102332,-35.199998,232.300024');offset-rotate:0deg"><path d="M85.9,750.4c0,14.6-11.9,26.5-26.5,26.5-14.7,0-26.5-11.9-26.5-26.5c0-14.7,11.8-26.5,26.5-26.5c14.6,0,26.5,11.8,26.5,26.5Z" transform="translate(-59.400002,-750.400024)"/></g><g id="eeaYsfZnSog43_to" style="offset-path:path('M-12.75,133.699991C21.945465,127.340547,104.217746,167.263313,112.800002,182.299994C127.812972,196.03687,148.832652,224.11453,152.350003,239.699994C166.86753,275.56583,170.344707,308.051533,168.900002,325.599988Q170.344707,886.851539,168.900002,904.399994');offset-rotate:0deg"><path d="M70.3,150.4c0,7-5.7,12.7-12.7,12.7-7.1,0-12.8-5.7-12.8-12.7s5.7-12.7,12.8-12.7c7,0,12.7,5.7,12.7,12.7Z" transform="translate(-57.550003,-150.399994)" fill="#eab087"/></g><g><g><path d="M168.9,820.6h-1.5v-509.3c0-97.1-79-176.1-176.1-176.1s-176.1,79-176.1,176.1v509.3h-1.5v-509.3c0-97.9,79.7-177.6,177.6-177.6c98,0,177.6,79.7,177.6,177.6Z"/></g><g><path d="M143.1,820.6h-1.5v-509.3C141.6,228.4,74.2,161,-8.7,161s-150.3,67.4-150.3,150.3v509.3h-1.5v-509.3c0-83.7,68.1-151.8,151.8-151.8s151.8,68.1,151.8,151.8Z"/></g><g><path d="M117.4,820.6h-1.6v-509.3c0-68.7-55.8-124.5-124.5-124.5s-124.5,55.8-124.5,124.5v509.3h-1.5v-509.3c0-69.5,56.5-126,126-126s126.1,56.5,126.1,126Z"/></g><g><path d="M91.6,820.6h-1.6v-509.3c0-54.4-44.2-98.7-98.7-98.7-54.4,0-98.7,44.3-98.7,98.7v509.3h-1.6v-509.3C-109,256,-64,211,-8.7,211s100.3,45,100.3,100.3Z"/></g><g><path d="M65.8,820.6h-1.5v-509.3c0-40.2-32.8-72.9-73-72.9s-72.9,32.7-72.9,72.9v509.3h-1.6v-509.3c0-41.1,33.4-74.5,74.5-74.5s74.5,33.4,74.5,74.5Z"/></g></g><g><path d="M572.2,760.7h-4.8v-4.8h4.8Z"/><path d="M572.2,790.2h-4.8v-4.9h4.8Z"/><path d="M572.2,819.7h-4.8v-4.9h4.8Z"/><path d="M598.9,760.7h-4.9v-4.8h4.9Z"/><path d="M598.9,790.2h-4.9v-4.9h4.9Z"/><path d="M598.9,819.7h-4.9v-4.9h4.9Z"/><path d="M625.6,760.7h-4.9v-4.8h4.9Z"/><path d="M625.6,790.2h-4.9v-4.9h4.9Z"/><path d="M625.6,819.7h-4.9v-4.9h4.9Z"/><path d="M652.3,760.7h-4.9v-4.8h4.9Z"/><path d="M652.3,790.2h-4.9v-4.9h4.9Z"/><path d="M652.3,819.7h-4.9v-4.9h4.9Z"/><path d="M678.9,760.7h-4.8v-4.8h4.8Z"/><path d="M678.9,790.2h-4.8v-4.9h4.8Z"/><path d="M678.9,819.7h-4.8v-4.9h4.8Z"/><path d="M705.6,760.7h-4.9v-4.8h4.9Z"/><path d="M705.6,790.2h-4.9v-4.9h4.9Z"/><path d="M705.6,819.7h-4.9v-4.9h4.9Z"/><path d="M732.3,760.7h-4.9v-4.8h4.9Z"/><path d="M732.3,790.2h-4.9v-4.9h4.9Z"/><path d="M732.3,819.7h-4.9v-4.9h4.9Z"/><path d="M759,760.7h-4.9v-4.8h4.9Z"/><path d="M759,790.2h-4.9v-4.9h4.9Z"/><path d="M759,819.7h-4.9v-4.9h4.9Z"/><path d="M785.6,760.7h-4.8v-4.8h4.8Z"/><path d="M785.6,790.2h-4.8v-4.9h4.8Z"/><path d="M785.6,819.7h-4.8v-4.9h4.8Z"/><path d="M812.3,760.7h-4.9v-4.8h4.9Z"/><path d="M812.3,790.2h-4.9v-4.9h4.9Z"/><path d="M812.3,819.7h-4.9v-4.9h4.9Z"/><path d="M839,760.7h-4.9v-4.8h4.9Z"/><path d="M839,790.2h-4.9v-4.9h4.9Z"/><path d="M839,819.7h-4.9v-4.9h4.9Z"/></g><g><path d="M267.7,416.4c0,2.9-2.3,5.2-5.1,5.2-2.9,0-5.2-2.3-5.2-5.2c0-2.8,2.3-5.1,5.2-5.1c2.8,0,5.1,2.3,5.1,5.1Z" fill="#fff"/><path d="M335.3,416.4c0,2.9-2.3,5.2-5.2,5.2s-5.2-2.3-5.2-5.2c0-2.8,2.3-5.1,5.2-5.1s5.2,2.3,5.2,5.1Z" fill="#fff"/><path d="M402.8,416.4c0,2.9-2.3,5.2-5.1,5.2-2.9,0-5.2-2.3-5.2-5.2c0-2.8,2.3-5.1,5.2-5.1c2.8,0,5.1,2.3,5.1,5.1Z"/><path d="M470.4,416.4c0,2.9-2.3,5.2-5.2,5.2s-5.2-2.3-5.2-5.2c0-2.8,2.3-5.1,5.2-5.1s5.2,2.3,5.2,5.1Z"/><path d="M267.7,483.4c0,2.9-2.3,5.2-5.1,5.2-2.9,0-5.2-2.3-5.2-5.2s2.3-5.2,5.2-5.2c2.8,0,5.1,2.3,5.1,5.2Z"/><path d="M335.3,483.4c0,2.9-2.3,5.2-5.2,5.2s-5.2-2.3-5.2-5.2s2.3-5.2,5.2-5.2s5.2,2.3,5.2,5.2Z"/><path d="M402.8,483.4c0,2.9-2.3,5.2-5.1,5.2-2.9,0-5.2-2.3-5.2-5.2s2.3-5.2,5.2-5.2c2.8,0,5.1,2.3,5.1,5.2Z"/><path d="M470.4,483.4c0,2.9-2.3,5.2-5.2,5.2s-5.2-2.3-5.2-5.2s2.3-5.2,5.2-5.2s5.2,2.3,5.2,5.2Z"/><path d="M267.7,550.4c0,2.8-2.3,5.1-5.1,5.1-2.9,0-5.2-2.3-5.2-5.1c0-2.9,2.3-5.2,5.2-5.2c2.8,0,5.1,2.3,5.1,5.2Z"/><path d="M335.3,550.4c0,2.8-2.3,5.1-5.2,5.1s-5.2-2.3-5.2-5.1c0-2.9,2.3-5.2,5.2-5.2s5.2,2.3,5.2,5.2Z"/><path d="M402.8,550.4c0,2.8-2.3,5.1-5.1,5.1-2.9,0-5.2-2.3-5.2-5.1c0-2.9,2.3-5.2,5.2-5.2c2.8,0,5.1,2.3,5.1,5.2Z"/><path d="M470.4,550.4c0,2.8-2.3,5.1-5.2,5.1s-5.2-2.3-5.2-5.1c0-2.9,2.3-5.2,5.2-5.2s5.2,2.3,5.2,5.2Z"/><path d="M267.7,617.3c0,2.9-2.3,5.2-5.1,5.2-2.9,0-5.2-2.3-5.2-5.2c0-2.8,2.3-5.2,5.2-5.2c2.8,0,5.1,2.4,5.1,5.2Z"/><path d="M335.3,617.3c0,2.9-2.3,5.2-5.2,5.2s-5.2-2.3-5.2-5.2c0-2.8,2.3-5.2,5.2-5.2s5.2,2.4,5.2,5.2Z"/><path d="M402.8,617.3c0,2.9-2.3,5.2-5.1,5.2-2.9,0-5.2-2.3-5.2-5.2c0-2.8,2.3-5.2,5.2-5.2c2.8,0,5.1,2.4,5.1,5.2Z"/><path d="M470.4,617.3c0,2.9-2.3,5.2-5.2,5.2s-5.2-2.3-5.2-5.2c0-2.8,2.3-5.2,5.2-5.2s5.2,2.4,5.2,5.2Z"/></g><g><path d="M1405.9,190.5c0,2.5-2,4.5-4.4,4.5-2.5,0-4.5-2-4.5-4.5c0-2.4,2-4.4,4.5-4.4c2.4,0,4.4,2,4.4,4.4Z"/><path d="M1463.9,190.5c0,2.5-2,4.5-4.4,4.5-2.5,0-4.5-2-4.5-4.5c0-2.4,2-4.4,4.5-4.4c2.4,0,4.4,2,4.4,4.4Z"/><path d="M1405.9,248c0,2.4-2,4.4-4.4,4.4-2.5,0-4.5-2-4.5-4.4c0-2.5,2-4.5,4.5-4.5c2.4,0,4.4,2,4.4,4.5Z"/><path d="M1463.9,248c0,2.4-2,4.4-4.4,4.4-2.5,0-4.5-2-4.5-4.4c0-2.5,2-4.5,4.5-4.5c2.4,0,4.4,2,4.4,4.5Z"/><path d="M1405.9,305.4c0,2.5-2,4.5-4.4,4.5-2.5,0-4.5-2-4.5-4.5c0-2.4,2-4.4,4.5-4.4c2.4,0,4.4,2,4.4,4.4Z"/><path d="M1463.9,305.4c0,2.5-2,4.5-4.4,4.5-2.5,0-4.5-2-4.5-4.5c0-2.4,2-4.4,4.5-4.4c2.4,0,4.4,2,4.4,4.4Z"/><path d="M1405.9,362.9c0,2.5-2,4.5-4.4,4.5-2.5,0-4.5-2-4.5-4.5c0-2.4,2-4.4,4.5-4.4c2.4,0,4.4,2,4.4,4.4Z"/><path d="M1463.9,362.9c0,2.5-2,4.5-4.4,4.5-2.5,0-4.5-2-4.5-4.5c0-2.4,2-4.4,4.5-4.4c2.4,0,4.4,2,4.4,4.4Z"/><path d="M1405.9,420.4c0,2.4-2,4.4-4.4,4.4-2.5,0-4.5-2-4.5-4.4c0-2.5,2-4.5,4.5-4.5c2.4,0,4.4,2,4.4,4.5Z"/><path d="M1463.9,420.4c0,2.4-2,4.4-4.4,4.4-2.5,0-4.5-2-4.5-4.4c0-2.5,2-4.5,4.5-4.5c2.4,0,4.4,2,4.4,4.5Z"/><path d="M1405.9,477.8c0,2.5-2,4.5-4.4,4.5-2.5,0-4.5-2-4.5-4.5c0-2.4,2-4.4,4.5-4.4c2.4,0,4.4,2,4.4,4.4Z"/><path d="M1463.9,477.8c0,2.5-2,4.5-4.4,4.5-2.5,0-4.5-2-4.5-4.5c0-2.4,2-4.4,4.5-4.4c2.4,0,4.4,2,4.4,4.4Z"/><path d="M1405.9,535.3c0,2.4-2,4.4-4.4,4.4-2.5,0-4.5-2-4.5-4.4c0-2.5,2-4.5,4.5-4.5c2.4,0,4.4,2,4.4,4.5Z"/><path d="M1463.9,535.3c0,2.4-2,4.4-4.4,4.4-2.5,0-4.5-2-4.5-4.4c0-2.5,2-4.5,4.5-4.5c2.4,0,4.4,2,4.4,4.5Z"/></g><path d="M427.6,846L0,846v-32h427.6Z"/><path d="M1267.6,728.7l20.5-76.6l76.6-20.5l56,56.1-20.5,76.6-76.6,20.5Z" fill="#f7dfcf"/><g><path d="M1329.1,849.7l-56.8-56.8.1-.6l20.7-77.1.5-.1l77.2-20.7l56.8,56.9-.1.5-20.7,77.1-.5.2Zm-54.7-57.5l55.3,55.3l75.5-20.2l20.2-75.5-55.3-55.3-75.5,20.2Z" fill-rule="evenodd"/></g><g id="eeaYsfZnSog125_tr" transform="translate(1389.85,528.7) rotate(0)"><path d="M1257.9,417.7l-86.3,124.9-86.3-124.9Z" transform="translate(-1389.85,-528.7)" fill="#eab087"/></g></g></g></svg>
