<svg id="eLQGmN9ZWFP1" xmlns="http://www.w3.org/2000/svg" xmlns:xlink="http://www.w3.org/1999/xlink"
    viewBox="0 0 1500 1000" shape-rendering="geometricPrecision" text-rendering="geometricPrecision">
    <style><![CDATA[
#eLQGmN9ZWFP63_tr {animation: eLQGmN9ZWFP63_tr__tr 6000ms linear infinite normal forwards}@keyframes eLQGmN9ZWFP63_tr__tr { 0% {transform: translate(742.9px,613.4px) rotate(0deg);animation-timing-function: cubic-bezier(0.42,0,0.58,1)} 50% {transform: translate(742.9px,613.4px) rotate(11.31994deg);animation-timing-function: cubic-bezier(0.42,0,0.58,1)} 100% {transform: translate(742.9px,613.4px) rotate(0deg)}} #eLQGmN9ZWFP99_tr {animation: eLQGmN9ZWFP99_tr__tr 6000ms linear infinite normal forwards}@keyframes eLQGmN9ZWFP99_tr__tr { 0% {transform: translate(634.8px,647.3px) rotate(0deg);animation-timing-function: cubic-bezier(0.42,0,0.58,1)} 50% {transform: translate(634.8px,647.3px) rotate(17.048911deg);animation-timing-function: cubic-bezier(0.42,0,0.58,1)} 100% {transform: translate(634.8px,647.3px) rotate(0deg)}} #eLQGmN9ZWFP199_tr {animation: eLQGmN9ZWFP199_tr__tr 6000ms linear infinite normal forwards}@keyframes eLQGmN9ZWFP199_tr__tr { 0% {transform: translate(1010.50592px,209.9px) rotate(0deg);animation-timing-function: cubic-bezier(0.42,0,0.58,1)} 50% {transform: translate(1010.50592px,209.9px) rotate(179.431042deg);animation-timing-function: cubic-bezier(0.42,0,0.58,1)} 100% {transform: translate(1010.50592px,209.9px) rotate(360.421942deg)}} #eLQGmN9ZWFP256_to {animation: eLQGmN9ZWFP256_to__to 6000ms linear infinite normal forwards}@keyframes eLQGmN9ZWFP256_to__to { 0% {transform: translate(502.399994px,204.150002px);animation-timing-function: cubic-bezier(0.42,0,0.58,1)} 50% {transform: translate(437.843294px,204.150002px);animation-timing-function: cubic-bezier(0.42,0,0.58,1)} 100% {transform: translate(502.4px,204.150002px)}}
]]></style>
    <g transform="matrix(1.161769 0 0 1.161769-120.979241-112.503005)">
        <g>
            <path
                d="M253.2,787.2c-15.2-42.5-25.1-89.8-9.4-132.1c10.6-28.5,32.2-51.9,56.6-70.1c38.2-28.3,84.8-45.2,132.2-48.1c43.5-2.7,87.3,6.1,130.6,1.1c68.1-7.9,127.8-49.4,176.9-97.1c24.5-23.8,47.7-49.8,77.2-67c28.3-16.5,61-24.1,93.7-26.2c34.9-2.4,71.9,1.9,100.8,21.7c62.6,43.1,63.4,139.1,118,192c17.8,17.2,40.3,28.8,59.2,44.7c37.2,31.2,59,78.4,64.8,126.6c5.9,48.1-3.2,97.3-19.9,142.8-3.5,9.5-7.6,19.2-15.3,25.6-1.2,1-2.5,1.9-3.9,2.7h-881.7c-10.6-3.1-21.3-6.4-27.4-10.9-25.5-19-41.9-76.5-52.4-105.7Z"
                opacity="0.3" fill="#7229b5" />
            <path
                d="M1193,772.6c-23.2,43.5-46.6,86.9-69.8,130.4-3.1,5.8-6.4,11.9-11.9,15.6-7.1,4.8-16.3,4.8-24.9,4.5-46.3-1.3-92.6-2.1-139-2.6q-160.2-1.4-320.4-2.9-71.9-.6-143.8-1.3c-31.3-.3-62.5.9-93.8,1-15.9.1-32.7-3-44.5-13.7-9.8-8.9-14.7-21.8-18.9-34.4-22.9-67.4-36.7-137.9-40.9-209-3.7-61,9.9-122.6,58.7-163.6c18.2-15.3,39.8-26.4,56.9-42.9c52.4-50.8,53.1-142.9,113.3-184.3c27.7-19,63.2-23.1,96.7-20.9c31.4,2.1,62.8,9.4,90,25.2c28.3,16.5,50.5,41.5,74,64.4c47.2,45.8,104.5,85.5,169.9,93.2c41.5,4.8,83.6-3.7,125.3-1.1c45.6,2.7,90.2,19,126.9,46.2c23.5,17.4,44.2,39.9,54.4,67.3c22.2,59.9-2.1,122.7-30.2,176q-13.9,26.5-28,52.9Z"
                opacity="0.3" fill="#7229b5" />
        </g>
        <g>
            <g>
                <g>
                    <g>
                        <path
                            d="M1020.6,786.5c5.7-.9,32.9-4.5,33.4,7c.6,12.8-34.4-6.9-34.4-6.9s.4,0,1-.1Z"
                            fill="#7229b5" />
                    </g>
                    <g>
                        <path d="M1020,786.2c0,0,19.7-35,6.8-34.4-12.8.6-6.8,34.4-6.8,34.4Z"
                            fill="#7229b5" />
                    </g>
                    <g>
                        <path d="M997.8,802c0,0,34.9,19.7,34.4,6.9-.6-12.9-34.4-6.9-34.4-6.9Z"
                            fill="#7229b5" />
                    </g>
                    <g>
                        <path d="M997.7,802c0,0,19.7-34.9,6.8-34.3-12.8.5-6.8,34.3-6.8,34.3Z"
                            fill="#7229b5" />
                    </g>
                    <g>
                        <path d="M980.3,817.3c0,0,30.7,17.3,30.2,6.1-.6-11.3-30.2-6.1-30.2-6.1Z"
                            fill="#7229b5" />
                    </g>
                    <g>
                        <path d="M980.4,817.6c0,0,17.3-30.7,6-30.2-11.2.6-6,30.2-6,30.2Z"
                            fill="#7229b5" />
                    </g>
                    <g>
                        <path d="M964.8,834c0,0,30.6,12.4,28.8,2-1.9-10.4-28.8-2-28.8-2Z"
                            fill="#7229b5" />
                    </g>
                    <g>
                        <path d="M965.3,834.5c0,0,12.4-30.6,2-28.8s-2,28.8-2,28.8Z" fill="#7229b5" />
                    </g>
                    <g>
                        <g>
                            <path d="M951.5,852.2c0,0,32.8,4,28.3-5.6-4.4-9.6-28.3,5.6-28.3,5.6Z"
                                fill="#7229b5" />
                        </g>
                        <g>
                            <path d="M951.9,852.1c0,0,4.1-32.7-5.5-28.3-9.6,4.5,5.5,28.3,5.5,28.3Z"
                                fill="#7229b5" />
                        </g>
                    </g>
                    <g>
                        <g>
                            <path d="M941.1,869.7c0,0,28.4,3.5,24.5-4.8-3.8-8.3-24.5,4.8-24.5,4.8Z"
                                fill="#7229b5" />
                        </g>
                        <g>
                            <path d="M941.8,869.8c0,0,3.5-28.3-4.8-24.5-8.3,3.9,4.8,24.5,4.8,24.5Z"
                                fill="#7229b5" />
                        </g>
                    </g>
                    <g>
                        <g>
                            <path d="M934.1,883.8c0,0,24.3,3,21-4.1s-21,4.1-21,4.1Z" fill="#7229b5" />
                        </g>
                        <g>
                            <path d="M934.9,884c0,0,3-24.2-4.1-20.9s4.1,20.9,4.1,20.9Z"
                                fill="#7229b5" />
                        </g>
                    </g>
                </g>
            </g>
            <path d="M1018.1,787.7c0,0,38.4-15.7,34.4-22.9-4.1-7.1-34.4,22.9-34.4,22.9Z"
                fill="#7229b5" />
            <path d="M1025.7,782.8c0,0-84.6,44.1-102.2,139" fill="none" stroke="#7229b5"
                stroke-width="2" />
        </g>
        <g>
            <g>
                <g>
                    <g>
                        <path
                            d="M408.1,685.5c0,0-69.3.7-57.8-18.3c10.4-17,48.6,11.1,56.4,17.1.9.8,1.4,1.2,1.4,1.2Z"
                            fill="#7229b5" />
                    </g>
                    <g>
                        <path d="M408,684.5c0,0-.8-69.4,18.2-57.8s-18.2,57.8-18.2,57.8Z"
                            fill="#7229b5" />
                    </g>
                    <g>
                        <path d="M428.4,726.9c0,0-69.4.8-57.8-18.2s57.8,18.2,57.8,18.2Z"
                            fill="#7229b5" />
                    </g>
                    <g>
                        <path d="M428.5,727.1c0,0-.7-69.4,18.3-57.8c18.9,11.6-18.3,57.8-18.3,57.8Z"
                            fill="#7229b5" />
                    </g>
                    <g>
                        <path d="M442.1,764.7c0,0-60.8.7-50.7-16c10.2-16.6,50.7,16,50.7,16Z"
                            fill="#7229b5" />
                    </g>
                    <g>
                        <path d="M441.7,765.1c0,0-.6-60.9,16-50.8c16.7,10.2-16,50.8-16,50.8Z"
                            fill="#7229b5" />
                    </g>
                    <g>
                        <path d="M451.7,802.9c0,0-56.7-6.7-45.2-21c11.4-14.2,45.2,21,45.2,21Z"
                            fill="#7229b5" />
                    </g>
                    <g>
                        <path d="M450.6,803.2c0,0,6.7-56.7,21-45.2c14.2,11.4-21,45.2-21,45.2Z"
                            fill="#7229b5" />
                    </g>
                </g>
            </g>
            <path d="M409.6,688.4c0,0-45.1-55.9-33.1-63.3c12.1-7.5,33.1,63.3,33.1,63.3Z"
                fill="#7229b5" />
            <path d="M402.1,674.6c0,0,56,84,55.3,196.4" fill="none" stroke="#7229b5"
                stroke-width="2" stroke-linecap="round" stroke-linejoin="round" />
        </g>
        <g id="eLQGmN9ZWFP63_tr" transform="translate(742.9,613.4) rotate(0)">
            <g transform="translate(-742.9,-613.4)">
                <g>
                    <g>
                        <g>
                            <path
                                d="M994.3,472.9c9.5,2.8,54.7,17.1,47.1,35.5-8.5,20.5-48.8-36-48.8-36s.6.1,1.7.5Z"
                                fill="#7229b5" />
                        </g>
                        <g>
                            <path
                                d="M993.5,472c0,0,56.5-40.3,35.9-48.8-20.5-8.5-35.9,48.8-35.9,48.8Z"
                                fill="#7229b5" />
                        </g>
                        <g>
                            <path d="M947.1,480.4c0,0,40.3,56.5,48.8,36s-48.8-36-48.8-36Z"
                                fill="#7229b5" />
                        </g>
                        <g>
                            <path d="M946.9,480.4c0,0,56.5-40.2,36-48.8-20.5-8.5-36,48.8-36,48.8Z"
                                fill="#7229b5" />
                        </g>
                        <g>
                            <path
                                d="M908.5,491.6c0,0,35.3,49.6,42.8,31.5c7.5-18-42.8-31.5-42.8-31.5Z"
                                fill="#7229b5" />
                        </g>
                        <g>
                            <path
                                d="M908.5,492.1c0,0,49.6-35.3,31.5-42.8-18-7.4-31.5,42.8-31.5,42.8Z"
                                fill="#7229b5" />
                        </g>
                        <g>
                            <path
                                d="M872,506.4c0,0,38.8,41.8,43.6,24.2c4.8-17.7-43.6-24.2-43.6-24.2Z"
                                fill="#7229b5" />
                        </g>
                        <g>
                            <path
                                d="M872.5,507.4c0,0,41.8-38.8,24.1-43.5-17.6-4.8-24.1,43.5-24.1,43.5Z"
                                fill="#7229b5" />
                        </g>
                        <g>
                            <g>
                                <path
                                    d="M837.9,525c0,0,48.3,30.4,48.4,12.1c0-18.3-48.4-12.1-48.4-12.1Z"
                                    fill="#7229b5" />
                            </g>
                            <g>
                                <path
                                    d="M838.6,525.3c0,0,30.4-48.3,12.1-48.4-18.3,0-12.1,48.4-12.1,48.4Z"
                                    fill="#7229b5" />
                            </g>
                        </g>
                        <g>
                            <g>
                                <path d="M808.7,544.8c0,0,41.9,26.3,42,10.5c0-15.8-42-10.5-42-10.5Z"
                                    fill="#7229b5" />
                            </g>
                            <g>
                                <path
                                    d="M809.7,545.6c0,0,26.4-41.9,10.5-41.9-15.8-.1-10.5,41.9-10.5,41.9Z"
                                    fill="#7229b5" />
                            </g>
                        </g>
                        <g>
                            <g>
                                <path
                                    d="M787.5,561.8c0,0,35.7,22.5,35.8,8.9c0-13.5-35.8-8.9-35.8-8.9Z"
                                    fill="#7229b5" />
                            </g>
                            <g>
                                <path d="M788.5,562.7c0,0,22.4-35.8,8.9-35.8s-8.9,35.8-8.9,35.8Z"
                                    fill="#7229b5" />
                            </g>
                        </g>
                    </g>
                </g>
                <path d="M989.4,472.9c0,0,71.7,3.6,70.6-10.6-1.1-14.1-70.6,10.6-70.6,10.6Z"
                    fill="#7229b5" />
                <path d="M1004.9,470.9c0,0-164.8,6.9-262,142.5" fill="none" stroke="#7229b5"
                    stroke-width="2" />
            </g>
        </g>
        <g id="eLQGmN9ZWFP99_tr" transform="translate(634.8,647.3) rotate(0)">
            <g transform="translate(-634.8,-647.3)">
                <g>
                    <g>
                        <path
                            d="M459.1,605.9C407.5,565.6,381,486.5,331,443.1c-7.7-6.7-16.1-12.5-25.5-12.8c75.4-18,153.9-22.8,221,24.1c36.4,25.4,66.4,64.6,86.6,112.7c1.3,3.3,22.1,64.2,19.5,65.3C574.3,657.5,509,645,459.1,605.9Z"
                            fill="#7229b5" />
                    </g>
                </g>
                <g>
                    <path d="M602.8,619.2c0,0-92.6-159.5-258.9-181.4" fill="none" stroke="#fff"
                        stroke-width="2" stroke-linecap="round" stroke-linejoin="round" />
                    <path d="M452.3,433.1l16.9,50.5-83.6,3.6" fill="none" stroke="#fff"
                        stroke-width="2" stroke-linecap="round" stroke-linejoin="round" />
                    <path d="M516.3,475.1l16.5,58.4-70.3,3.7" fill="none" stroke="#fff"
                        stroke-width="2" stroke-linecap="round" stroke-linejoin="round" />
                    <path d="M573.3,528.8l9,60.2-71.2-6.5" fill="none" stroke="#fff"
                        stroke-width="2" stroke-linecap="round" stroke-linejoin="round" />
                </g>
            </g>
        </g>
        <g>
            <g>
                <g>
                    <g>
                        <g>
                            <path
                                d="M653.6,617.1l-11.5,29.1-75.6,192.2-7.9-28.5-8.4-87.7l32.4-95.6Z"
                                fill="#faad3b" stroke="#6a26a8" stroke-width="2" />
                            <g style="mix-blend-mode:multiply" opacity="0.7">
                                <path d="M642.1,646.2L566.5,838.4l-7.9-28.5l75.6-165.4Z"
                                    fill="#f5e073" />
                            </g>
                        </g>
                        <g>
                            <path d="M912,756.3l-10,50.3-6.3,31.8L820,646.2l-11.5-29.1l71,9.5Z"
                                fill="#faad3b" stroke="#6a26a8" stroke-width="2" />
                            <g style="mix-blend-mode:multiply" opacity="0.7">
                                <path d="M902,806.6l-6.3,31.8L820,646.2l8-1.7Z" fill="#f5e073" />
                            </g>
                        </g>
                        <g>
                            <g>
                                <g>
                                    <path
                                        d="M646.6,757.3q-.4,0-.7-.3c-.2-.2-.3-.5-.3-.7q0-2.5-.1-4.9v-2.4l-.1-1.4q0-1.2-.1-2.5-.2-2.8-.3-5.6-.4-5-.8-9.9v-.5q-.1-.6-.1-1.1l-.1-2.2v-1.2q-.1-1.3-.2-2.6l-.3-5.6q-.3-5-.7-9.9l-.3-2.9-.3-3.2c-.1-1.1-.2-2.1-.3-3l-.2-1.3q-.2-1.8-.4-3.5l-.1-1.1-.4-3q-.2-1.4-.4-2.8v-.6q-.2-1.2-.4-2.3l-.5-3.8q-.2-.9-.3-1.8c-.1-1-.3-1.9-.4-2.8q-.7-4-1.3-7.9c-.2-.7-.3-1.4-.4-2.1q-.4-2.4-.9-4.8l-.2-1.1q-.3-1.7-.7-3.3-.7-3.7-1.3-6.9c-26.4-2.6-55.6-15.9-55.9-16-.5-.3-.8-.9-.5-1.4l36-82.3c8.2-13,40.4-23,65.9-29.2c12.9-3,23.1-4.9,25.4-5.3q.2-.1.4-.1c0,0,26.4,2.4,26.4,2.4s27.2-2.4,27.2-2.4q.2,0,.4.1c5.3.9,78.4,13.9,91.2,34.4l36.1,82.4c.2.5,0,1.1-.5,1.4-.3.1-30.5,13.9-57.2,16.1-11.4,43.8-10.7,104.6-10.7,105.2s-.5,1-1,1l-25.1.4-37.9.6-44.1.7-5.2.1c0,0-58.3.9-58.3.9Z"
                                        fill="#f5e073" />
                                    <path
                                        d="M705.5,513l.5.1l25.6,2.3l27.1-2.4q.1,0,.2,0q.3,0,.7.2c5.8.9,78.7,14,91.7,34.7q.1.2.2.3l36,82.3c.4,1,0,2.2-1,2.7-1.2.5-30.2,13.7-56.8,16.1C818.5,693,819.2,753,819.2,753.6c0,1.1-.9,2-2,2l-25.1.4-37.9.6-44.1.7-5.2.1-23.1.3-35.1.6q-.1,0-.1,0c-.5,0-1-.2-1.4-.6s-.6-.9-.6-1.4c0-1.5,0-3-.1-4.9v-2.5l-.1-1.2q0-1.3-.1-2.5-.2-2.8-.3-5.6c-.3-3.7-.5-7-.8-10v-.5q-.1-.5-.1-1.1v-.6l-.1-1.6v-1.2q-.1-1.2-.2-2.5l-.3-5.6c-.2-3.3-.4-6.6-.7-9.9l-.1-1.4-.2-1.4q-.1-.9-.1-1.7-.1-.8-.2-1.6v-.2q-.2-1.4-.3-2.8l-.2-1.4q-.2-1.7-.4-3.3q0-.3,0-.6c-.1-.2-.1-.4-.1-.6l-.3-2-.1-1q-.2-1.4-.4-2.8v-.4q-.2-1.3-.4-2.5l-.2-1.4-.2-1.4-.1-1q-.1-.9-.3-1.8c-.1-.9-.3-1.8-.4-2.7q-.7-4.1-1.3-7.9c-.2-.7-.3-1.4-.4-2.2q-.4-2.3-.9-4.6l-.2-1.2c-.2-1.1-.4-2.2-.6-3.3q-.7-3.3-1.3-6.2c-26.3-2.7-54.3-15.5-55.5-16-.9-.5-1.4-1.7-1-2.7l36.1-82.3q.1-.1.1-.3c8.3-13.1,40.8-23.3,66.5-29.4c12.5-3,22.6-4.9,25.2-5.3q.4-.2.8-.2.1,0,.2,0Zm26.1,4.4l-25.7-2.3-.6-.1-.1.1c-.1,0-11.1,1.9-25.4,5.3-23.9,5.7-57.2,15.8-65.3,28.6l-36,82.3c0,0,29.6,13.7,56.3,16q.7,3.6,1.5,7.7.3,1.6.7,3.3.5,2.9,1.1,5.9.2,1.1.3,2.1.7,3.9,1.3,8q.3,1.3.5,2.7c.1.9.3,1.9.4,2.8q.2,1.4.4,2.8t.4,2.9q.2,1.4.4,2.9.2,1.4.4,2.9q0,.6.1,1.2c.2,1.6.4,3.2.6,4.8q.1,1.5.3,3q.1,1.6.3,3.2.1,1.5.3,2.9.4,5,.7,10q.2,2.8.3,5.6c.1,1.2.2,2.5.2,3.7c0,.7.1,1.5.1,2.2c0,.6.1,1.1.1,1.6q.4,4.9.8,10q.1,2.8.3,5.6.1,1.8.2,3.7q0,1.3,0,2.6.1,2.4.1,4.9l35.2-.6l23-.3l5.3-.1l44.1-.7L792,754l25.2-.4c0,0-.9-61.6,10.9-106.1c27-2.1,57.6-16.2,57.6-16.2L849.6,549c-12.9-20.6-90.4-33.9-90.7-33.9v-.1Z"
                                        fill="#6a26a8" fill-rule="evenodd" />
                                </g>
                            </g>
                        </g>
                        <path
                            d="M754.2,754.6l-44.1.7-5.3.1-58.2.9q0-2.5-.1-4.9q0-1.3,0-2.6-.1-1.9-.2-3.7-.2-2.8-.3-5.6-.4-5.1-.8-10c0-.5-.1-1-.1-1.6c0-.7-.1-1.5-.1-2.2c0-1.2-.1-2.5-.2-3.7q-.1-2.8-.3-5.6-.3-5-.7-10-.2-1.4-.3-2.9-.2-1.6-.3-3.2-.2-1.5-.3-3c-.2-1.6-.4-3.2-.6-4.8q-.1-.6-.1-1.2-.2-1.5-.4-2.9-.2-1.5-.4-2.9-.2-1.5-.4-2.9t-.4-2.8c-.1-.9-.3-1.9-.4-2.8q-.2-1.4-.5-2.7-.6-4.1-1.3-8-.1-1-.3-2.1-.6-3-1.1-5.9-.4-1.7-.7-3.3-.8-4.1-1.5-7.7c0,0,56.5,72.8,119.4,107.3Z"
                            fill="#e3c940" />
                    </g>
                    <g>
                        <g>
                            <g>
                                <path
                                    d="M758.9,459.8v60.6c0,0-6.3,4.8-20.7,5.6q-2.1.1-4.4.1c-10,0-17.4-1.5-22.1-3-4.3-1.4-6.4-2.7-6.4-2.7v-54.1Z"
                                    fill="#faad3b" />
                                <g style="mix-blend-mode:multiply" opacity="0.7">
                                    <path
                                        d="M738.2,526q-2.1.1-4.4.1c-10,0-17.4-1.5-22.1-3-4.3-1.4-6.4-2.7-6.4-2.7v-49.8L726.8,481c0,0-4.8,29.4,11.4,45Z"
                                        fill="#f5e073" />
                                </g>
                                <path d="M705.3,520.4v-54.1l53.6-6.5v60.6" fill="none"
                                    stroke="#6a26a8" stroke-width="2" stroke-linecap="round"
                                    stroke-linejoin="round" />
                            </g>
                            <g>
                                <g>
                                    <g>
                                        <path
                                            d="M667.5,401.9c.6,9.5-3.2,17.4-8.5,17.8-5.4.4-10.3-6.9-10.9-16.4-.7-9.4,3.1-17.4,8.4-17.7c5.4-.4,10.3,6.9,11,16.3Z"
                                            fill="#faad3b" stroke="#6a26a8" stroke-width="2" />
                                        <g style="mix-blend-mode:multiply">
                                            <g style="mix-blend-mode:multiply" opacity="0.7">
                                                <path
                                                    d="M651.7,399c1.4-1.4,3.6-1.5,5.3-.5c2,1.2,2.7,3.5,3.3,5.6.5,1.4-1.8,2-2.2.6-.4-1.2-.7-2.6-1.6-3.6-.8-.9-2.2-1.4-3.2-.5-1,1.1-2.7-.6-1.6-1.6Z"
                                                    fill="#f5e073" />
                                            </g>
                                        </g>
                                    </g>
                                    <g>
                                        <path
                                            d="M806.3,385.6c5.4.3,9.2,8.3,8.5,17.7-.7,9.5-5.6,16.8-10.9,16.4-5.4-.4-9.2-8.3-8.5-17.8.7-9.4,5.6-16.7,10.9-16.3Z"
                                            fill="#faad3b" stroke="#6a26a8" stroke-width="2" />
                                        <g style="mix-blend-mode:multiply">
                                            <g style="mix-blend-mode:multiply" opacity="0.7">
                                                <path
                                                    d="M809.5,400.6c-.9-.9-2.3-.4-3.1.5-.9,1-1.3,2.4-1.6,3.6-.5,1.4-2.7.8-2.3-.6.6-2.1,1.4-4.4,3.3-5.6c1.7-1,3.9-.9,5.4.5c1,1-.6,2.7-1.7,1.6Z"
                                                    fill="#f5e073" />
                                            </g>
                                        </g>
                                    </g>
                                    <g>
                                        <g>
                                            <g>
                                                <path
                                                    d="M733.7,486.3c-5.8,0-11.5-.7-17-2.2-4.2-1.1-8.2-2.5-11.9-4.3-1.3-.7-2.6-1.3-3.7-1.9-1.8-1-3.7-2.3-5.8-3.7-16.7-11.7-28.4-31-33.8-55.9-2.4-11.1-3.5-23.2-3.4-36-.1-3.1-.1-6.1.1-9v-.3-.1c1.7-30.6,16.1-57.4,38.5-71.8q2.3-1.5,4.6-2.7c8.8-4.9,18.3-7.5,28.2-7.7q.9,0,1.8,0c12.4,0,24.7,3.7,35.5,10.9c20,13.1,34.3,37.1,38.2,64l.1,1c.5,3.7.9,7.5,1,11.3q0,4.1,0,7.9l-.2,3.7c-.3,8.7-1.1,17.1-2.6,25-5.4,29.7-19.1,52.3-38.5,63.5q-2.2,1.4-5.1,2.8l-.6-.8.4.9-.2.1c-7.3,3.2-15.2,5-23.5,5.3q-1.1,0-2.1,0Z"
                                                    fill="#faad3b" />
                                                <path
                                                    d="M767.4,300.7c20.2,13.3,34.7,37.5,38.6,64.8l.1.9c.5,3.8.9,7.7,1,11.5q0,4.1,0,8l-.2,3.7c-.3,8.7-1.2,17.2-2.6,25.1-5.5,30-19.3,52.8-38.9,64.2-1.5.9-3.3,1.9-5.3,2.8l-.2.1-.2.1c-7.4,3.3-15.4,5.1-23.9,5.4q-1.1,0-2.1,0c-5.9,0-11.7-.7-17.3-2.2-4.2-1.1-8.2-2.6-12-4.4q-2.1-1-3.8-1.9c-1.8-1.1-3.8-2.3-5.9-3.8-16.9-11.8-28.7-31.4-34.2-56.5-2.4-11.1-3.5-23.3-3.4-36.1-.1-3.2-.1-6.3.1-9.1q0-.3,0-.5c1.8-30.9,16.3-58,39-72.5c1.5-1,3.1-2,4.6-2.8c9-4.9,18.6-7.5,28.6-7.8q1,0,1.9,0c12.6,0,25,3.8,36.1,11Zm-37.9-9c-9.9.2-19.3,2.9-27.7,7.6q-2.3,1.2-4.6,2.6c-21.5,13.8-36.3,40.4-38,71.3c0,.1,0,.1,0,.1q-.2,4.5-.1,9c-.1,13.2,1.1,25.1,3.3,35.8c5.7,26,18,44.4,33.4,55.3c1.9,1.3,3.8,2.5,5.8,3.6q1.8,1,3.7,1.9c3.7,1.8,7.6,3.2,11.6,4.2c5.5,1.5,11.1,2.2,16.8,2.2q1,0,2.1,0c8.1-.3,15.9-2,23.1-5.3q.2,0,.4-.1c1.7-.8,3.4-1.7,5-2.7c18.6-10.8,32.5-32.2,38.1-62.9c1.3-7.7,2.2-15.9,2.5-24.8q.1-1.8.2-3.7q0-3.8,0-7.8c-.1-3.9-.5-7.6-1-11.3l-.1-1c-4-27.4-18.3-50.5-37.7-63.3-10.5-6.9-22.4-10.7-35-10.7q-.9,0-1.8,0Z"
                                                    fill="#6a26a8" fill-rule="evenodd" />
                                            </g>
                                            <path
                                                d="M745.2,420.5c-4.8,3.4-9.3,3.9-12.4,3.6-1.9-.2-3.1-2.2-2.3-4.1c4.1-9.5-.8-26.4-.8-26.4"
                                                fill="none" stroke="#6a26a8" stroke-width="2"
                                                stroke-linecap="round" stroke-linejoin="round" />
                                            <path d="M728.7,439.6c0,0,15.1,6.6,27.5-6.5" fill="none"
                                                stroke="#6a26a8" stroke-width="2"
                                                stroke-linecap="round" stroke-linejoin="round" />
                                            <path d="M753.5,371.1c0,0,13.2-3.9,19.6,1.8" fill="none"
                                                stroke="#6a26a8" stroke-width="2"
                                                stroke-linecap="round" stroke-linejoin="round" />
                                            <path d="M695.3,371.1c0,0,13.2-3.9,19.5,1.8" fill="none"
                                                stroke="#6a26a8" stroke-width="2"
                                                stroke-linecap="round" stroke-linejoin="round" />
                                            <g style="mix-blend-mode:multiply" opacity="0.7">
                                                <path
                                                    d="M735.8,485.3c-6.4.2-12.8-.5-18.9-2.2-4-1-7.9-2.4-11.6-4.2q-1.9-.9-3.7-1.9c-2-1.1-3.9-2.3-5.8-3.6-15.4-10.9-27.7-29.3-33.4-55.3-2.2-10.7-3.4-22.6-3.3-35.8q-.1-4.5.1-9c0,0,0,0,0-.1c1.7-30.9,16.5-57.5,38-71.3l5.4,22.5c0,0-26.5,103.8,2.7,144.7c6.8,9.5,16.6,15.6,30.5,16.2Z"
                                                    fill="#f5e073" />
                                            </g>
                                        </g>
                                        <g>
                                            <g style="mix-blend-mode:multiply" opacity="0.5">
                                                <path
                                                    d="M782.8,419.3c-1.6,6.9-8.5,11.2-15.4,9.5-6.8-1.6-11.1-8.5-9.5-15.4c1.7-6.8,8.6-11.1,15.4-9.5c6.9,1.7,11.2,8.6,9.5,15.4Z"
                                                    fill="#e8a137" />
                                                <path
                                                    d="M706.1,421.3c-1.6,6.9-8.5,11.2-15.4,9.5-6.8-1.6-11.1-8.5-9.5-15.3c1.7-6.9,8.5-11.2,15.4-9.5c6.9,1.6,11.2,8.5,9.5,15.3Z"
                                                    fill="#e8a137" />
                                            </g>
                                            <g>
                                                <g>
                                                    <g>
                                                        <g>
                                                            <path
                                                                d="M765,388.1c0,5.1-2.7,9.4-6.1,9.6s-6.2-3.7-6.2-8.8c0-5,2.8-9.3,6.2-9.5s6.1,3.7,6.1,8.7Z"
                                                                fill="#7229b5" />
                                                            <path
                                                                d="M713.4,387.8c.3,5.1-2.2,9.5-5.6,9.9s-6.4-3.4-6.6-8.4c-.3-5.1,2.2-9.5,5.6-9.9s6.3,3.4,6.6,8.4Z"
                                                                fill="#7229b5" />
                                                        </g>
                                                    </g>
                                                </g>
                                            </g>
                                        </g>
                                    </g>
                                </g>
                            </g>
                        </g>
                    </g>
                </g>
            </g>
            <g>
                <path
                    d="M693.7,511.7q-.1,0-.3,0c-.9-.3-22.3-5.7-38.1-31.9-19.3-32.2-21-80-4.9-142c1.1-4.3,2.3-8.7,3.6-12.8.3-1,.6-2.1.9-3.2c3.7-12.3,8.6-22.9,14.6-31.7c6.2-9.5,13.3-16.3,21-20.1c10.2-6.1,22.2-9.3,35.6-9.3c6,0,12.3.6,18.8,1.8q0-.4,0-.8c0-14,11.4-25.5,25.5-25.5c14,0,25.5,11.5,25.5,25.5c0,8.9-4.7,17.1-12.2,21.8C816,318.9,807.4,385,807.3,385.7c0,.3-.2.5-.4.7q-.3.2-.6.2-.1,0-.2-.1c-.4-.1-36.6-9.2-41.6-55-4.5,13-22.6,40.1-94.9,53.7-4,41.2-2.8,96.1,24.8,124.8.3.3.4.8.1,1.2-.1.3-.5.5-.8.5Z"
                    fill="#7229b5" />
                <path
                    d="M770.4,237.2c13.5,0,24.5,11,24.5,24.5c0,9.3-5.2,17.4-12.8,21.5c33.4,35.3,24.2,102.4,24.2,102.4s-39.6-9.5-41.3-61.3c0,0-.1,42.2-96.3,60-4,40.3-3.5,96.7,25,126.4c0,0-81.9-19.8-42.4-172.6q1.8-6.8,3.7-12.8.4-1.6.9-3.2c3.4-11.6,8.2-22.3,14.4-31.4c6.5-9.9,13.4-16.3,20.6-19.8c9.7-5.8,21.3-9.2,35.2-9.2c6,0,12.4.6,19.3,1.9q.3.1.6.2-.1-1-.1-2.1c0-13.5,11-24.5,24.5-24.5Zm0-2c-14.5,0-26.3,11.7-26.5,26.1-6.2-1-12.1-1.6-17.8-1.6-13.6,0-25.7,3.2-36.1,9.4-7.9,3.9-15.1,10.8-21.3,20.5-6.1,8.8-11.1,19.5-14.8,31.9q-.4,1.5-.8,3.3c-1.3,4.1-2.6,8.4-3.7,12.8-16.1,62.3-14.4,110.3,5.1,142.7c15.9,26.6,37.8,32.1,38.7,32.3q.2.1.5.1c.7,0,1.4-.4,1.7-1c.5-.8.3-1.8-.3-2.4C667.9,481,666.6,427,670.5,386c39.6-7.5,67.8-19.9,83.9-37c4.8-5.1,7.8-9.8,9.6-13.8c3.1,20.9,12.8,33.5,21,40.7c10.4,9,20.4,11.5,20.9,11.6q.2.1.4.1.6,0,1.1-.4c.5-.3.8-.8.9-1.4.4-2.7,8.7-66.2-23.1-102.1c7.3-4.9,11.7-13.1,11.7-22c0-14.6-11.9-26.5-26.5-26.5Z"
                    fill="#6a26a8" fill-rule="evenodd" />
            </g>
        </g>
        <g>
            <path
                d="M543,903.3c-.5,0-1-.4-1-1v-223.9c0-.5.5-1,1-1h380.5c.5,0,1,.5,1,1v223.9c0,.6-.5,1-1,1Z"
                fill="#7229b5" />
            <path
                d="M925.5,678.5v223.8c0,1.1-.9,2-2,2h-380.5c-1.1,0-2-.9-2-2v-223.8c0-1.2.9-2,2-2h380.5c1.1,0,2,.8,2,2Zm-382.5,0v223.8h380.5v-223.8Z"
                fill="#6a26a8" fill-rule="evenodd" />
        </g>
        <g>
            <g>
                <path
                    d="M417.7,902.8c-.5,0-.9-.3-1-.8-3.9-23-14.3-83.2-14.9-85.2-.1-.3-.1-.7.1-.9.2-.3.5-.5.8-.5h84.7c.3,0,.6.2.8.4s.3.5.2.8l-15.2,79.7q0,.1,0,.2l-1.1,5.5c0,.5-.5.8-.9.8Z"
                    fill="#ededed" />
                <path
                    d="M489,815.2c.4.4.5,1,.4,1.6l-15.2,79.7q0,.1,0,.2l-1.1,5.5c-.2.9-1,1.6-1.9,1.6h-53.5c-1,0-1.8-.7-2-1.6-5.6-33-14.3-82.9-14.9-85.1-.2-.6-.1-1.3.3-1.8s1-.9,1.6-.9h84.7c.6,0,1.2.3,1.6.8Zm-86.3,1.2c.7,2,15,85.4,15,85.4h53.5l1-5.7h.1l15.1-79.7Zm84.8,2"
                    fill="#6a26a8" fill-rule="evenodd" />
            </g>
            <g>
                <path
                    d="M444.4,875.5q-.4,0-.8,0c-9,0-16.4-8.8-16.4-19.6c0-10.6,7-19.2,15.8-19.6-1.3,4.4-2.2,11,1.1,18.4c3.4,7.7,2,15.6.3,20.8Z"
                    fill="#7229b5" />
                <path
                    d="M447.6,875.5c1.8-5.2,3.2-13.1-.2-20.8-3.3-7.4-2.5-14-1.1-18.4q.3-.1.6-.1c9.1,0,16.5,8.8,16.5,19.7c0,10.5-7,19.1-15.8,19.6Z"
                    fill="#7229b5" />
            </g>
            <g>
                <path
                    d="M402.7,817.4c-.4,0-.7-.2-.9-.5-.1-.3-.1-.7.1-1l8.2-12.1l9.4-14c.2-.3.5-.4.8-.4h51.5c.4,0,.7.2.9.5l8.3,13.9l7.3,12.1c.2.3.2.7,0,1-.2.4-.5.5-.9.5Z"
                    fill="#ededed" />
                <path
                    d="M473.5,789.3l8.4,14l7.3,12.1c.3.6.3,1.4,0,2-.4.7-1,1-1.8,1h-84.7c-.7,0-1.4-.4-1.7-1-.4-.7-.4-1.5.1-2.1l8.1-12.1l9.4-13.9c.4-.6,1-.9,1.7-.9h51.5c.7,0,1.4.3,1.7.9Zm-53.2,1.1l-9.4,13.9-8.2,12.1h84.7l-7.2-12.1-8.4-13.9Z"
                    fill="#6a26a8" fill-rule="evenodd" />
            </g>
        </g>
        <g>
            <path
                d="M1095.9,210.6c0,47.2-38.2,85.5-85.4,85.5s-85.5-38.3-85.5-85.5s38.3-85.4,85.5-85.4s85.4,38.2,85.4,85.4Z"
                fill="#fff" stroke="#6a26a8" stroke-width="2" stroke-linecap="round"
                stroke-linejoin="round" />
            <g>
                <g>
                    <path d="M1010.5,125.2v14.8" fill="#fff" stroke="#6a26a8" stroke-width="2"
                        stroke-linecap="round" stroke-linejoin="round" />
                    <path d="M1010.5,279.8v14.8" fill="#fff" stroke="#6a26a8" stroke-width="2"
                        stroke-linecap="round" stroke-linejoin="round" />
                </g>
                <g>
                    <path d="M925.8,209.9h14.8" fill="#fff" stroke="#6a26a8" stroke-width="2"
                        stroke-linecap="round" stroke-linejoin="round" />
                    <path d="M1080.3,209.9h14.9" fill="#fff" stroke="#6a26a8" stroke-width="2"
                        stroke-linecap="round" stroke-linejoin="round" />
                </g>
            </g>
            <g>
                <g>
                    <path d="M950.6,150l10.5,10.5" fill="#fff" stroke="#6a26a8" stroke-width="2"
                        stroke-linecap="round" stroke-linejoin="round" />
                    <path d="M1059.9,259.3l10.5,10.5" fill="#fff" stroke="#6a26a8" stroke-width="2"
                        stroke-linecap="round" stroke-linejoin="round" />
                </g>
                <g>
                    <path d="M950.6,269.8l10.5-10.5" fill="#fff" stroke="#6a26a8" stroke-width="2"
                        stroke-linecap="round" stroke-linejoin="round" />
                    <path d="M1059.9,160.5l10.5-10.5" fill="#fff" stroke="#6a26a8" stroke-width="2"
                        stroke-linecap="round" stroke-linejoin="round" />
                </g>
            </g>
            <path
                d="M1016.2,209.9c0,3.2-2.6,5.8-5.7,5.8-3.2,0-5.8-2.6-5.8-5.8s2.6-5.8,5.8-5.8c3.1,0,5.7,2.6,5.7,5.8Z"
                fill="#6a26a8" />
            <g id="eLQGmN9ZWFP199_tr" transform="translate(1010.50592,209.9) rotate(0)">
                <path d="M1043.9,241.6l-33.4-31.7v-59.9" transform="translate(-1010.50592,-209.9)"
                    fill="none" stroke="#6a26a8" stroke-width="2" stroke-linecap="round"
                    stroke-linejoin="round" />
            </g>
        </g>
        <path
            d="M472.2,896.1l-1,5.7h-53.5c0,0-14.3-83.4-15-85.4l8.2-12.1l9.4-13.9c0,0-.3,11,1.4,26c3.3,29.4,14.4,73.7,50.5,79.7Z"
            opacity="0.3" fill="#7229b5" />
        <g>
            <g>
                <g>
                    <path
                        d="M343.9,849.3q-.3,0-.7-.1c-3.3-.3-5.9-3.4-5.9-6.9v-71.9c0-.6.4-1,1-1h11.3c.5,0,1,.4,1,1v72.2c0,1.8-.7,3.5-2,4.7-1.2,1.3-2.9,2-4.7,2Z"
                        fill="#f5e073" />
                    <path
                        d="M351.6,770.4v72.2c0,4.2-3.5,7.7-7.7,7.7q-.4,0-.8-.1c-3.8-.4-6.8-3.8-6.8-7.9v-71.9c0-1.2.9-2,2-2h11.3c1.1,0,2,.8,2,2Zm-13.3,0v71.9c0,2.9,2.1,5.6,5,5.9q.3.1.6.1c3.1,0,5.7-2.6,5.7-5.7v-72.2Z"
                        fill="#6a26a8" fill-rule="evenodd" />
                </g>
                <path d="M349.6,769.8v.6h-11.3v-.6l3.7-5c1-1.2,2.9-1.2,3.8,0Z" fill="#7229b5" />
            </g>
            <g>
                <path d="M327.5,779.1l3.2,2.3v11.9l-3.2,2.8Z" fill="#7229b5" />
                <g>
                    <g>
                        <path
                            d="M321.8,833.9c-3.6,0-6.6-3-6.6-6.7v-58.9h13.3v58.9c0,3.7-3,6.7-6.7,6.7Z"
                            fill="#f5e073" />
                        <path
                            d="M329.5,827.2c0,4.2-3.4,7.7-7.7,7.7-4.2,0-7.6-3.5-7.6-7.7v-59.9h15.3Zm-13.3-57.8v57.8c0,3.2,2.5,5.7,5.6,5.7c3.2,0,5.7-2.5,5.7-5.7v-57.8Z"
                            fill="#6a26a8" fill-rule="evenodd" />
                    </g>
                    <g>
                        <path d="M315.2,770.3v-9.7c0-3.7,3-6.6,6.6-6.6c3.7,0,6.7,2.9,6.7,6.6v9.7Z"
                            fill="#f5e073" />
                        <path
                            d="M329.5,760.6v10.7h-15.3v-10.7c0-4.2,3.4-7.6,7.6-7.6c4.3,0,7.7,3.4,7.7,7.6Zm-13.3,0v8.7h11.3v-8.7c0-3.1-2.5-5.6-5.7-5.6-3.1,0-5.6,2.5-5.6,5.6Z"
                            fill="#6a26a8" fill-rule="evenodd" />
                    </g>
                </g>
            </g>
            <g>
                <path
                    d="M304.2,849.3c-3.6,0-6.6-3-6.6-6.7v-66.6c0-3.7,3-6.6,6.6-6.6c3.7,0,6.7,2.9,6.7,6.6v66.6c0,3.7-3,6.7-6.7,6.7Z"
                    fill="#f5e073" />
                <path
                    d="M311.9,776v66.6c0,4.2-3.5,7.7-7.7,7.7s-7.6-3.5-7.6-7.7v-66.6c0-4.2,3.4-7.6,7.6-7.6s7.7,3.4,7.7,7.6Zm-13.3,0v66.6c0,3.1,2.5,5.7,5.6,5.7s5.7-2.6,5.7-5.7v-66.6c0-3.1-2.6-5.6-5.7-5.6s-5.6,2.5-5.6,5.6Z"
                    fill="#6a26a8" fill-rule="evenodd" />
            </g>
            <g>
                <path d="M359.9,813.2l-3.2-2.9v-11.8l3.2-2.4Z" fill="#7229b5" />
                <g>
                    <g>
                        <path
                            d="M365.6,850.9c-3.7,0-6.7-2.9-6.7-6.6v-58.9h13.3v58.9c0,3.7-3,6.6-6.6,6.6Z"
                            fill="#f5e073" />
                        <path
                            d="M373.2,844.3c0,4.2-3.4,7.6-7.6,7.6s-7.7-3.4-7.7-7.6v-59.9h15.3Zm-13.3-57.9v57.9c0,3.1,2.6,5.7,5.7,5.7s5.6-2.6,5.6-5.7v-57.9Z"
                            fill="#6a26a8" fill-rule="evenodd" />
                    </g>
                    <path d="M365.6,772c3.1,0,5.6,2.6,5.6,5.7v8.7h-11.3v-8.7c0-3.1,2.6-5.7,5.7-5.7Z"
                        fill="#7229b5" />
                </g>
            </g>
            <path
                d="M375.3,803.4v77.4c0,5.8-2.3,11.1-6.1,15-3.9,4-9.3,6.5-15.4,6.5h-41.6c-11.9,0-21.5-9.6-21.5-21.5v-77.4Z"
                fill="#62239c" />
            <path
                d="M369.2,895.8c-3.9,4-9.3,6.5-15.4,6.5h-41.6c-11.9,0-21.5-9.6-21.5-21.5v-77.4c0,0,25.4,73.1,78.5,92.4Z"
                fill="#5a208f" />
        </g>
        <g>
            <path
                d="M287.9,943.6c-13.4,0-24.3-10.9-24.3-24.2c0-13.4,10.9-24.3,24.3-24.3h924.2c13.4,0,24.3,10.9,24.3,24.3c0,13.3-10.9,24.2-24.3,24.2Z"
                fill="#ededed" />
            <path
                d="M1237.4,919.4c0,13.9-11.4,25.2-25.3,25.2h-924.2c-13.9,0-25.3-11.3-25.3-25.2c0-14,11.4-25.3,25.3-25.3h924.2c13.9,0,25.3,11.3,25.3,25.3ZM287.9,896.1c-12.9,0-23.3,10.4-23.3,23.3c0,12.8,10.4,23.2,23.3,23.2h924.2c12.9,0,23.3-10.4,23.3-23.2c0-12.9-10.4-23.3-23.3-23.3Z"
                fill="#6a26a8" fill-rule="evenodd" />
        </g>
        <g id="eLQGmN9ZWFP256_to" transform="translate(502.399994,204.150002)">
            <g transform="translate(-502.399994,-204.150002)">
                <path
                    d="M626.3,153.4v74.1c0,18.9-15.3,34.2-34.2,34.2h-13.7l11.2,34.1-47-34.1h-144.5c-18.9,0-34.2-15.3-34.2-34.2v-74.1c0-18.9,15.3-34.2,34.2-34.2h194c18.9,0,34.2,15.3,34.2,34.2Z"
                    fill="#7229b5" />
                <path
                    d="M640.9,146.7v74.1c0,18.9-15.4,34.2-34.3,34.2h-13.7l11.2,34.1-47-34.1h-144.4c-19,0-34.3-15.3-34.3-34.2v-74.1c0-18.9,15.3-34.2,34.3-34.2h193.9c18.9,0,34.3,15.3,34.3,34.2Z"
                    fill="#fff" stroke="#7229b5" stroke-width="2" stroke-linecap="round"
                    stroke-linejoin="round" />
                <g>
                    <g>
                        <path d="M400.9,195.3h190.9" fill="none" stroke="#7229b5" stroke-width="2"
                            stroke-linecap="round" stroke-linejoin="round" />
                    </g>
                    <path d="M400.9,142.4h98.4" fill="none" stroke="#7229b5" stroke-width="2"
                        stroke-linecap="round" stroke-linejoin="round" />
                    <path d="M401.1,169.6h120" fill="none" stroke="#7229b5" stroke-width="2"
                        stroke-linecap="round" stroke-linejoin="round" />
                    <path d="M401.4,182.5h159" fill="none" stroke="#7229b5" stroke-width="2"
                        stroke-linecap="round" stroke-linejoin="round" />
                    <path d="M401.7,208.5h188.6" fill="none" stroke="#7229b5" stroke-width="2"
                        stroke-linecap="round" stroke-linejoin="round" />
                    <path d="M401.7,221.8h190.1" fill="none" stroke="#7229b5" stroke-width="2"
                        stroke-linecap="round" stroke-linejoin="round" />
                    <path d="M401.8,155.6h189.5" fill="none" stroke="#7229b5" stroke-width="2"
                        stroke-linecap="round" stroke-linejoin="round" />
                </g>
            </g>
        </g>
    </g>
</svg>